<?xml version="1.0" encoding="utf-8"?>
<!-- Generator: Adobe Illustrator 24.1.2, SVG Export Plug-In . SVG Version: 6.00 Build 0)  -->
<svg version="1.1" id="Injetor" xmlns="http://www.w3.org/2000/svg" xmlns:xlink="http://www.w3.org/1999/xlink" x="0px" y="0px"
	 viewBox="0 0 812 812" style="enable-background:new 0 0 812 812;" xml:space="preserve">
<style type="text/css">
	.st0{fill:#111825;}
</style>
<g>
	<path class="st0" d="M81.33,508.52c-0.36-8.04-1.24-15.65-0.93-23.2c0.61-14.71,5.98-28.07,13.73-40.36
		c4.9-7.77,12.41-11.79,21.76-12.69c20.86-2,41.69-4.3,62.52-6.58c1.19-0.13,2.91-0.99,3.3-1.96c2.77-6.78,7.17-12.12,13.57-16.21
		c-1.16-1.75-2.29-3.38-3.35-5.05c-4.19-6.61-4.09-11.82,1.53-17.29c11.5-11.2,23.35-22.05,35.14-32.96
		c3.28-3.04,6.83-5.8,9.54-8.08c-11.03-11.34-22.11-22.69-33.14-34.08c-5.36-5.53-11.77-10.38-12.12-18.95
		c-7.63,0.85-10.49,3.82-12.02,10.34c-0.58,2.48-2.44,5.21-4.52,6.7c-23.33,16.75-46.81,33.27-70.25,49.86
		c-2,1.41-3.93,2.92-5.97,4.28c-4.66,3.09-9,2.78-12.9-1.2c-11.34-11.57-22.57-23.24-33.87-34.85c-2.94-3.02-3.15-6.5-1.89-10.22
		c2.93-8.62,5.75-17.29,9.01-25.79c0.91-2.38,2.8-4.77,4.88-6.28c24.92-18.02,49.96-35.88,74.98-53.78c1-0.71,1.97-1.54,3.08-1.98
		c2.83-1.11,3.46-2.99,3.38-5.99c-0.24-9.64,3.87-18.03,8.91-25.84c13.97-21.67,32.33-38.82,54.77-51.52
		c7.17-4.06,14.86-6.69,23.26-6.82c7.09-0.11,13.3,2.4,16.55,8.59c5.37,10.23,13.73,17.74,21.38,25.96
		c5.1,5.48,10.19,10.98,15.1,16.63c2.03,2.33,3.63,3.07,6.85,1.74c3.94-1.63,8.36-2.66,12.62-2.84c6.26-0.25,11.87,1.63,16.3,6.81
		c6.89,8.06,14.27,15.7,21.45,23.53c2.27-1.14,4.39-2.2,6.91-3.46c0-1.86-0.07-4.16,0.02-6.45c0.11-2.72,0.1-5.01-3.49-5.77
		c-1.1-0.24-2.46-2.61-2.47-4.03c-0.17-13.47-0.21-26.95,0.01-40.43c0.11-6.54,4.49-10.72,11.62-11.33
		c12.48-1.07,24.98-1.9,37.47-2.84c8.16-0.61,11.79-3.69,13.83-11.71c0.13-0.52,0.19-1.27,0.55-1.5c4.41-2.74,3.05-7.08,3.08-10.98
		c0.06-8.58-0.13-17.15,0.04-25.73c0.07-3.52,0.8-7.02,1.32-11.2c-3.69-3.57-3.59-4.99,1.11-9.29c6.37-5.82,13.03-11.24,21.52-13.62
		c3.64-1.02,7.44-1.59,11.2-2.01c2.86-0.32,4.12-1.46,4-4.4c-0.15-3.94-0.06-7.89-0.03-11.84c0.04-4.82,2.02-7.93,6.69-8.17
		c11.26-0.58,22.55-0.72,33.83-0.59c4.03,0.05,6.27,3.18,6.47,7.59c0.19,4.08,0.26,8.17,0.17,12.25c-0.07,2.85,0.85,4.28,3.92,4.31
		c14.53,0.14,25.55,7.31,35.04,17.59c3.14,3.4,0.05,5.27-0.86,6.49c0.59,4.27,1.35,7.52,1.44,10.79
		c0.26,10.21,0.17,20.42,0.44,30.62c0.04,1.62,1.3,3.2,1.98,4.8c0.56,1.32,1.37,2.59,1.62,3.97c1,5.47,4.11,8.19,9.6,8.4
		c12.92,0.5,25.85,1,38.76,1.66c9.83,0.5,14.84,5.85,15.06,15.63c0.28,12.25,0.73,24.49,0.81,36.74c0.01,1.79-1.57,3.61-2.45,5.4
		c-0.45,0.9-1.36,1.72-1.42,2.62c-0.18,2.96-0.07,5.93-0.07,8.78c8.04,2.54,8.04,2.54,8.06,10.98c0.01,3.81-0.1,7.63,0.08,11.43
		c0.22,4.48-1.84,7.13-5.93,8.62c-6.78,2.47-7.03,2.92-6.99,9.99c0.02,3.54,0.3,7.1,0,10.61c-0.3,3.54,1.38,4.79,4.47,5.47
		c13.81,3.03,27.59,6.16,41.38,9.27c2.78,0.63,5.59,1.2,8.32,2c5.09,1.49,7.16,4.15,7.38,9.43c0.17,4.22,0.18,8.44,0.27,12.66
		c0.19,8.83,3.78,13.27,12.44,14.94c10.67,2.05,21.34,4.23,32.1,5.76c14.54,2.07,24.02,10.37,29.63,23.31
		c6.92,15.95,5.98,32.27-0.05,48.14c-4.81,12.68-7.11,25.54-7.09,39.04c0.06,26.82-0.15,53.63-0.41,80.45
		c-0.03,2.88,0.81,4.22,3.56,4.75c3.06,0.59,6.25,1.05,9.08,2.27c4.32,1.86,8.91,3.71,12.37,6.73c2.86,2.5,5.64,3.74,9.16,4.34
		c9.25,1.57,18.47,3.3,27.7,5c8.8,1.62,15.05,6.82,19.26,14.43c10.75,19.43,5.25,49.25-11.65,63.65c-6.46,5.5-13.89,7.83-22.36,6.37
		c-10.58-1.83-21.14-3.73-31.73-5.5c-1.05-0.18-2.29,0.22-3.33,0.62c-4.86,1.87-9.67,3.83-14.24,5.65
		c1.92,5.79,4.94,12.4,6.25,19.34c3.77,19.94,0.28,38.5-13.08,54.37c-8.85,10.51-20.25,14.3-33.72,11.11
		c-5.42-1.29-10.78-2.83-16.15-4.35c-11.12-3.14-21.01-1.96-30.65,5.46c-32.34,24.89-69.01,36.34-109.91,33.31
		c-7.73-0.57-15.42-1.56-23.12-2.46c-4.1-0.48-5.8,0.99-8.61,5.86c-3.92,6.8-7.64,13.93-12.73,19.8
		c-12.33,14.22-28.15,18.67-46.13,12.92c-12.02-3.84-23.76-8.62-35.53-13.23c-17.64-6.9-27.67-20.48-32.58-38.24
		c-1.62-5.85-2.75-11.83-4.2-18.15c2.4-0.64,5.1-1.35,7.79-2.07c-0.04-0.21-0.07-0.42-0.11-0.63c-6.2,0.96-12.46,1.63-18.59,2.95
		c-7.17,1.55-13.8,0.95-20.68-1.87c-14.96-6.15-30.16-11.73-45.3-17.44c-1.24-0.47-3.3-0.8-4.07-0.14
		c-8.43,7.21-18.96,8.45-29.18,10.62c-6.39,1.35-12.75,2.83-19.19,3.93c-2.6,0.44-5.36,0.02-8.04-0.03
		c-0.79-0.02-1.6-0.28-2.35-0.14c-20.28,3.93-40.65,7.43-60.79,11.98c-18.86,4.27-31.49-4.14-41.82-18.37
		c-2.55-3.51-4.7-7.32-7.07-10.97c-2.55-3.93-5.71-7.59-7.56-11.82c-3.24-7.42-5.76-15.17-8.36-22.85c-0.23-0.68,0.99-2.54,1.8-2.74
		c2.87-0.71,5.64-1,8.49,1.08c6.35,4.64,11.29,3.88,16.36-2.18c5.32-6.36,7.38-14.19,9.07-22.03c5.13-23.88,3.23-47.62-1.9-71.24
		c-2.85-13.1-7.19-25.66-14.47-37.01c-2.1-3.28-4.67-6.41-7.56-9.01c-4.58-4.11-7.17-3.82-11.67,0.29c-0.8,0.73-1.58,1.48-3.13,2.93
		c1.04,0.27,1.96,0.51,2.87,0.75c-20.16,4.38-40.11,5.26-59.57,9.53c9.22,3.09,12.89,10.95,15.87,18.54
		c8.82,22.45,12.28,45.87,10.33,69.97c-0.42,5.14-0.99,10.31-2.08,15.34c-1.63,7.55-3.54,15.1-10.31,20.62
		c5.26,0.6,8.29-1.82,10.63-5.43c5.28-8.11,6.83-17.37,7.96-26.71c2.52-20.82,0.3-41.27-4.98-61.46c-1.36-5.21-1.07-6.01,4.18-6.79
		c10.63-1.59,21.29-2.97,31.94-4.45c1.35-0.19,2.68-0.49,4.03-0.62c3.02-0.29,4.25-1.57,2.76-4.57c-3.35-6.74-6.67-13.49-10.18-20.6
		c1.83,0.99,4.69,1.63,6.01,3.42c3.85,5.21,8.05,10.49,10.41,16.42c11.31,28.41,15.03,57.8,8.96,88.01
		c-1.16,5.79-3.53,11.4-5.86,16.87c-2.03,4.78-5.78,6.61-11.38,6.71c-9.35,0.17-18.69,1.65-28.03,2.58
		c-6.91,0.69-13.84,1.19-20.72,2.14c-10.36,1.43-18.4-2.73-23.88-10.91c-4.49-6.69-7.83-14.21-11.13-21.61
		c-1.28-2.88-2.23-4.69-5.67-4.09c-1.59,0.28-3.26,0-4.89,0.1c-3.61,0.22-6.14-1.46-7.38-4.66c-4.69-12.08-5.79-24.53-3.31-37.25
		c1.06-5.41,4.25-8.71,10-9.06c3.09-0.19,4.41-1.31,4.79-4.9c1.21-11.49,2.98-22.93,9.54-32.95c4.68-7.16,10.83-11.38,19.63-12.17
		C57.15,511.82,68.98,510.05,81.33,508.52z M362.26,375.12c-1.78-5.71-2.98-7.14-11.35-4.28c-7.4,2.52-12.42,8.14-16.35,14.68
		c-1.57,2.61-4.2,6.18-1.28,8.36c1.98,1.48,6.05,0.16,9.18,0.08c0.12,0,0.25-0.1,0.37-0.17c6.56-3.78,12.31-8.41,16.16-15.12
		c0.8-1.4,2.23-2.44,3.37-3.65c-0.39,1.57-0.48,3.3-1.2,4.69c-5.74,11-14.58,17.72-27.74,19.37c4.24,4.29,8.22,8.32,12.2,12.35
		c0.3-0.28,0.61-0.57,0.91-0.85c-0.94-1.61-1.88-3.23-2.91-5.01c0.97-0.44,1.73-0.7,2.41-1.1c4.73-2.8,9.54-5.49,14.14-8.5
		c2.51-1.64,2.9-3.94,1.06-6.68c-0.81-1.21-0.69-3.04-1-4.59c0.4-0.21,0.8-0.41,1.19-0.62c2.82,2.56,5.63,5.12,8.5,7.73
		C372.79,385.7,369.22,378.16,362.26,375.12z M581.12,281.6c0.2-2.21,0.58-4.42,0.58-6.63c-0.02-9.8-0.25-19.6-0.2-29.4
		c0.03-6.35,2.96-9.11,9.29-9.27c3.27-0.08,6.54-0.24,9.8-0.12c2.78,0.1,3.89-0.85,3.73-3.76c-0.24-4.21-0.28-8.45-0.05-12.65
		c0.2-3.63-1.33-4.91-4.77-4.76c-7.07,0.29-14.15,0.54-21.23,0.66c-28.18,0.48-56.37,0.92-84.55,1.34
		c-46.84,0.7-93.67,1.35-140.51,2.14c-1.48,0.03-3.22,1.11-4.25,2.24c-0.39,0.42,0.62,2.64,1.49,3.59
		c3.02,3.28,5.24,6.72,5.65,11.41c1.2,13.58-3.63,25.46-10.35,36.66c-14.66,24.44-35.03,43.24-59.15,58.07
		c-12.12,7.45-24.77,13.69-39.55,13.67c-0.95,0-2.07,0.64-2.81,1.31c-15.26,13.76-30.51,27.54-45.68,41.39
		c-1.6,1.46-2.72,3.44-4.56,5.81c6.84,0.83,12.68,1.23,18.38,2.31c10.36,1.96,21.7,0.35,30.54,8.09c0.38,0.34,0.99,0.45,1.51,0.6
		c9.55,2.71,18.99,5.95,28.68,7.96c11.49,2.38,18.29,9.28,22.55,19.64c0.51,1.23,2.37,2.64,3.67,2.71
		c17.4,0.92,34.82,1.43,52.21,2.47c5.52,0.33,9.2-1.55,12.56-5.74c9.2-11.46,18.67-22.71,28.09-33.99c1.17-1.41,2.69-2.53,4.05-3.78
		c0.26,0.27,0.52,0.53,0.78,0.8c-1.01,1.57-1.92,3.23-3.06,4.69c-8.27,10.63-16.45,21.34-24.94,31.79
		c-6.33,7.8-6.06,7.28,0.22,15.11c6.04,7.54,12.89,12.02,22.8,12.66c8.28,0.53,15.27,4.58,20.08,11.77
		c1.66,2.48,3.69,4.72,5.51,7.09c1.93,2.5,4.37,2.92,6.77,1.1c1.66-1.26,3.23-2.98,4.12-4.84c4.35-9.07,8.35-18.3,12.69-27.37
		c2.08-4.36,1.78-7.95-1.68-11.48c-15.43-15.7-28.46-33.72-45.87-47.51c-2.79-2.21-3.18-5.01-1.76-8.02
		c0.86-1.82,1.98-3.62,3.34-5.08c8.11-8.72,14.76-18.46,20.46-28.86c3.97-7.26,10.27-10.51,18.15-11.49
		c3.98-0.49,7.05,0.67,9.69,3.84c11.56,13.93,23.24,27.76,34.91,41.6c2.96,3.51,7.77,4.41,10.79,1.56
		c7.33-6.9,14.64-13.86,21.47-21.24c4.46-4.81,4.06-12.04,0.03-16.8c-12.15-14.33-24.23-28.7-36.53-42.9
		c-1.57-1.81-4.08-3.4-6.4-3.86c-6.12-1.23-12.37-1.82-18.58-2.58c-1.04-0.13-2.32-0.21-3.17,0.26c-5.01,2.8-9.92,5.77-14.79,8.63
		c-0.68,4.88-2.08,10.21,0.43,15.39c0.29,0.6,0,1.68-0.36,2.36c-4.14,7.97-10.53,13.47-19.16,17.65c1.4-3.56,2.49-6.36,3.65-9.3
		c-2.42-0.99-4.26-1.75-6.34-2.61c2.59-8.8,7.22-17.69-1.85-26.32c7.6-0.15,14.48-8.26,20.56,0.84c5.22-2.64,9.94-5.01,15.39-7.77
		c-9.22-1.35-17.55-2.61-25.89-3.75c-0.83-0.11-1.87,0.21-2.61,0.67c-3.88,2.43-7.7,4.96-11.88,7.68
		c8.15,6.38,5.95,14.61,3.02,22.31c-3.13,8.2-6.87,16.29-11.36,23.83c-6.99,11.74-16.37,21.65-26.55,30.76
		c0.91,2.27,1.99,2.82,3.91,1.11c2.66-2.37,5.47-4.58,8.38-6.99c0.47,3.19,0.01,6.41,1.39,8.21c3.43,4.47,4.16,9.25,2.87,14.26
		c-4.28,16.64-14.57,27.98-30.89,33.61c-5.03,1.73-9.86,1.26-14.3-2.12c-1.69-1.28-3.75-2.17-5.77-2.9
		c-7.93-2.86-16.02-5.31-23.84-8.44c-7.59-3.04-12.87-8.73-15.07-16.66c-0.81-2.93-2.32-4.32-4.83-5.36
		c-10.54-4.39-21.06-8.84-31.57-13.31c-1.57-0.67-3.04-1.57-5.3-2.75c3.77-4.43,7.15-8.41,11.72-13.79
		c-4.67-4.14-9.38-8.33-14.26-12.66c4.17-1.7,6.76-0.92,9.65,2.16c13.29,14.23,26.89,28.15,40.42,42.16
		c3.28,3.39,7.29,4.87,11.55,4.33c-15.88-16.72-31.65-33.32-47.41-49.91c6.81-2.86,13.14-5.52,19.46-8.16
		c15.16,16.09,30.32,32.18,44.8,47.55c5.5-5.29,10.11-10.71,15.67-14.85c7.92-5.9,13.54-5.34,21.59,0.65
		c12.82-10.44,22.75-23.37,30.24-37.97c3.73-7.26,5.6-15.49,7.99-23.38c0.39-1.3-0.42-3.5-1.43-4.62
		c-14.43-16.13-28.93-32.2-43.57-48.14c-2.61-2.84-3.07-5.47-1.22-9.12c1,0.92,1.94,1.65,2.72,2.52
		c9.06,10.16,18.24,20.21,27.05,30.59c2.53,2.98,4.66,4.29,8.54,2.99c1.91-0.64,4.27-0.05,6.41,0.12c2.91,0.23,5.82,0.58,8.94,0.9
		c0-7.99,0.05-15.59-0.02-23.2c-0.05-5.15-2.52-8.15-7.53-9.16c-3.6-0.72-7.25-1.12-10.86-1.81c-5.36-1.03-10.7-2.18-16.05-3.29
		c0.04-0.37,0.08-0.75,0.11-1.12c0.86-0.14,1.71-0.38,2.57-0.41c21.21-0.85,42.43-1.73,63.64-2.48c5.68-0.2,8.13,2.33,8.22,8.14
		c0.14,9.39,0.17,18.78,0.29,28.18c0.13,10.19,0.15,10.25,10.49,11.12c6.67,0.56,12.16,2.85,16.48,8.38
		c6.96,8.89,14.5,17.32,21.62,26.09c1.79,2.2,3.68,2.61,5.36,0.8c1.38-1.49,2.63-3.8,2.65-5.76c0.14-16.88,0-33.76-0.08-50.64
		c-0.07-13.88-0.08-27.77-0.32-41.65c-0.06-3.75,1.4-5.29,5.02-5.1c0.95,0.05,1.91-0.03,2.86-0.04c5.13-0.04,5.51,0.31,5.55,5.57
		c0.08,11.43,0.09,22.87,0.2,34.3c0.19,18.65,0.47,37.3,0.64,55.94c0.05,5.6-0.7,6.42-6.05,8.05c-3.68,1.12-7.35,2.32-11.81,3.73
		c3.01,1.82,2.85,6.49,7.31,4.68c18.75-7.63,38.13-12.12,58.08-11.54c-1.09-1.23-3.21-2.51-3.25-3.85
		c-0.25-8.83-0.25-17.68,0.1-26.51c0.1-2.64,1.86-4.93,5.25-4.27c4.51,0.87,8.98,1.94,13.51,2.69c3.79,0.63,5.68,2.3,5.62,6.48
		c-0.16,9.93,0.04,19.87,0.14,29.81c0.06,6.13,1.91,8.5,7.88,10.13c3.54,0.97,7.12,1.78,10.63,2.84c1.71,0.51,3.3,1.42,4.94,2.15
		c-0.11,0.35-0.23,0.69-0.34,1.04c-6.22-1.22-12.43-2.51-18.66-3.65c-4.11-0.76-7.02-2.92-8.37-6.88c-1.29-3.79-3.87-5.33-7.77-5.19
		c-8.83,0.31-17.7,0.15-26.49,0.9c-13.78,1.17-26.79,5.5-39.77,10.83c8.91,11.6,3.93,20.54-5.31,28.82
		c3.46-1.44,6.48-3.16,9.56-4.76c25.86-13.38,53.15-18.88,82.13-14.73c6.45,0.92,12.84,3.47,19.22,3.35
		c15.2-0.3,30.38-1.77,45.58-2.71c2.42-0.15,4.86-0.02,7.65-0.02c4.05-9.83,10.27-18.67,21.97-23.35
		c-9.25-1.76-17.63-3.47-26.04-4.91c-8.5-1.46-13.28-6.7-14.73-14.8c-0.87-4.9-0.71-10-0.85-15.02c-0.16-5.75-1.17-6.97-6.99-6.74
		c-13.88,0.55-27.74,1.38-41.62,1.9c-6.51,0.24-13.03,0.04-19.54,0.04c-0.01-0.55-0.02-1.1-0.03-1.65
		c17.43-0.97,34.87-1.94,52.3-2.91c0.02-0.21,0.04-0.43,0.06-0.64c-13.28-3-26.57-5.99-40.63-9.16c0.92,3.08,1.63,5.45,2.37,7.93
		C592.89,280.62,586.82,281.12,581.12,281.6z M508.48,378.9c1.3-0.86,2.56-1.79,3.9-2.57c11.82-6.87,24.31-12.2,37.55-15.65
		c38.75-10.1,74.3-3.53,105.83,21.38c29.04,22.95,44.65,54.12,53.16,89.46c1.29,5.35,4.14,10.33,6.26,15.49
		c-2.58-24.38-9.79-47.17-22.13-68.15c-21.79-37.06-52.63-61.25-96.48-66c-39.22-4.25-73.54,7.81-103.69,32.61
		c-12.05,9.91-22.37,21.54-31.53,34.1c-5.19,7.12-10.15,14.56-14.09,22.41c-5.77,11.51-10.35,23.62-15.8,35.3
		c-3.44,7.36-12.88,8.99-18.64,3.58c-12.59-11.82-26.86-15.72-43.38-9.44c-0.73,0.28-1.59,0.39-2.37,0.31
		c-7.71-0.76-15.41-1.67-23.13-2.35c-10.75-0.95-21.52-1.75-32.29-2.62c1.24,0.72,2.52,1.13,3.83,1.42
		c12.72,2.88,25.47,5.67,38.17,8.64c4.56,1.07,5.47,3.28,3.66,7.49c-1.13,2.62-2.31,5.23-3.2,7.93c-1.86,5.6-5.48,8.8-11.47,9.49
		c-20.14,2.32-40.25,4.83-60.39,7.14c-6.78,0.78-10.7,4.96-10.2,11.66c1.48,20.08,3.01,40.15,4.55,60.23
		c0.28,3.62,2.11,5.08,5.62,4.65c8.38-1.03,16.75-2.06,25.13-3.08c7.4-0.9,14.8-1.79,22.9-2.77c-1.33-22.33-2.63-44.21-3.93-66.1
		c0.47-0.12,0.93-0.25,1.4-0.37c1.17,3.74,2.98,7.42,3.39,11.25c1.63,15.27,2.9,30.58,4.13,45.89c0.53,6.65,2.77,8.85,9.24,8.14
		c11.23-1.24,22.45-2.56,33.68-3.79c6.9-0.76,13.8-1.57,20.71-2.07c8.73-0.64,15.3,3.3,16.41,10.72c2.09,13.97,4.31,28.01,4.96,42.1
		c1.03,22.01,0.81,44.09,1.13,66.13c0.04,2.89,0.8,5.99-3.51,6.79c-0.92,0.17-1.77,1.66-2.33,2.71
		c-9.81,18.25-11.1,36.76-1.01,55.29c1.95,3.57,5.25,6.41,7.93,9.58c0.27-0.25,0.55-0.5,0.82-0.75
		c-22.91-30.91-1.03-75.79,33.29-81.71c-0.55-0.73-1.02-1.35-1.49-1.98c-8.47-11.28-15.24-23.54-20.11-36.74
		c-13.49-36.59-18.39-74.26-14.02-113.12c5.13-45.74,23.69-85.58,52.49-121c3.61-4.44,7.72-8.48,11.59-12.71
		c-2.64,8.36-4.23,16.46-2.77,25.06c2.59,15.18,12.73,26.71,26.97,29.09c4.96,0.83,10.26-0.43,14.9-0.71
		c-3.77,4.18-8.4,8.64-12.25,13.7c-21.84,28.73-31.65,61.03-27.87,97.11c2.41,23.04,9.71,44.29,24.46,62.5
		c10.63,13.13,23.96,22.3,40.38,27.01c10.98,3.15,22.01,2.12,33.76,1.64c-1.12-0.7-1.73-1.1-2.37-1.47
		c-23.02-13.32-38.77-32.68-47.21-57.78c-12.22-36.31-8.48-71.46,9.65-104.89c15.09-27.82,37.3-47.21,69.03-54.04
		c4.53-0.97,9.22-1.19,14.46-1.84c-31.51-16.31-60.73-11.11-89.65,7.99c6.58-11.07,8.42-16.83,7.59-21.06
		c-1.61,4.28-3.01,9.75-5.62,14.57c-8.25,15.21-26.86,19.36-41.1,9.55c-16.85-11.62-19.27-39.32-4.69-53.74
		c11.11-10.98,23.09-12.31,36.63-4.05c0.51,0.31,1.08,0.54,1.62,0.81C524.94,380.77,517.45,378.62,508.48,378.9z M699.52,618.2
		c-7.52-1.31-14.19-2.62-20.91-3.55c-1.44-0.2-3.46,0.54-4.53,1.56c-6.08,5.83-12.89,10.31-20.88,13.17
		c-27.26,9.74-53.06,0.75-68.11-23.94c-13.71-22.49-16.1-46.8-10.69-72.01c4.59-21.34,14.63-39.77,32.2-53.39
		c20.49-15.88,45.65-16.96,65.63-2.93c10.29,7.23,17.59,16.9,22.47,28.46c0.49,1.17,1.23,2.84,2.18,3.11
		c7.24,2.08,14.57,3.87,22.27,5.85c-4.42-24.1-14.77-44.32-33.58-59.49c-20.16-16.26-42.8-20.75-67.44-11.95
		c-15.91,5.69-29.15,15.61-39.14,29.09c-31.31,42.26-39.09,88.16-19.91,137.83c0.33,0.86,0.52,1.78,0.77,2.67
		c-0.34,0.05-0.69,0.09-1.03,0.14c-15.2-30.24-17.38-61.79-7.74-94.07c9.53-31.94,26.83-58.47,56.42-75.79
		c-5.27,2.23-10.58,4.37-15.34,7.38c-35.05,22.21-50.26,55.72-54.28,95.62c-1.18,11.69,2.29,22.65,5.07,33.61
		c4.06,15.99,9.55,31.52,20.88,44.2c2.45,2.74,4.77,5.59,7.05,8.47c26.89,33.99,70.29,39.45,104.68,13.07
		C685.17,637.98,692.82,628.9,699.52,618.2z M203.32,421.14c-1.8-1.71-3.53-3.2-5.05-4.89c-0.48-0.54-0.76-1.92-0.42-2.36
		c0.4-0.51,1.62-0.64,2.41-0.5c0.73,0.13,1.47,0.74,2.01,1.32c6.43,6.81,13.47,13.17,19.12,20.58
		c16.67,21.88,26.43,47.06,33.02,73.5c6.56,26.35,9.69,53.18,10.14,80.33c0.02,1.32,0.14,2.63,0.19,3.41
		c2.27-2.33,4.43-4.55,7.09-7.28c-1.06-13.05-2.14-27-3.36-40.94c-0.66-7.58-1.52-15.15-2.39-22.71
		c-1.15-10.03,4.05-16.9,13.94-18.15c5.4-0.68,10.82-1.18,16.21-1.87c11.06-1.43,22.14-2.79,33.16-4.48
		c5.5-0.84,6.48-3.22,3.57-7.88c-1.35-2.16-2.83-4.69-4.92-5.87c-10.41-5.87-21.01-11.46-33.69-9.32c-6.95,1.17-7.66,0.64-10.52-5.7
		c-4.07-9.04-8.08-18.12-12.62-26.92c-7.21-13.97-17.74-24.97-31.15-33.24c-2.86-1.76-5.58-2.74-9.15-2.26
		c-8.48,1.16-17.04,1.77-25.56,2.59c-7.05,0.68-15.87,8.63-17.49,15.55C192.75,423.15,197.74,422.2,203.32,421.14z M341.1,666.04
		c-0.71,2.7-1.95,5.4-2.02,8.13c-0.21,8.3,0,16.6,0.1,24.9c0.05,3.62,2.67,5.28,6.03,3.82c3.41-1.48,4.75-4.3,4.75-7.86
		c-0.01-6.81-0.05-13.61-0.1-20.42c-0.03-3.73,1.62-6.11,5.28-7.26c4.67-1.47,9.28-3.12,13.87-4.79c6.09-2.21,8.97-6.49,8.85-13.11
		c-0.36-19.73-0.51-39.46-0.74-59.2c-0.08-6.87-1.04-7.69-8.13-6.7c0,1.31-0.01,2.65,0,3.98c0.19,18.37,0.38,36.75,0.59,55.12
		c0.06,5.6-1.07,11.09-6.25,13.78c-6.1,3.18-12.8,5.21-19.27,7.68c-0.57,0.22-1.42,0.12-1.99-0.15c-4.5-2.18-9.18-4.11-13.33-6.84
		c-1.68-1.11-2.94-3.99-3.05-6.13c-0.59-11.41-0.44-22.87-1.17-34.27c-0.54-8.45,2.75-14.06,10.18-17.7
		c6.08-2.97,12.05-6.16,18.07-9.24c-0.79-3.27-2.5-4.41-5.63-4.04c-8.24,0.99-16.51,1.64-24.74,2.68c-4.94,0.62-6.66,2.92-6.54,8.12
		c0.15,5.99,0.48,11.97,0.68,17.95c0.25,7.73,0.26,7.8-7.09,10.35c-2.44,0.85-4.16,2.04-4.09,4.83c0.16,7.21,0.3,14.42,0.56,21.63
		c0.09,2.4,1.3,3.59,3.78,2.34c2.94-1.48,5.86-3.02,8.78-4.54c0.29,0.22,0.58,0.45,0.87,0.67c-1.79,2.16-3.39,4.53-5.42,6.44
		c-3.86,3.61-8.13,6.8-11.94,10.47c-2.5,2.41-5,2.46-6.37-0.26c-1.76-3.49-3.38-7.5-3.46-11.32c-0.28-13.06,0.28-26.13,0.19-39.19
		c-0.03-4.16-0.9-8.37-1.81-12.46c-0.76-3.43-2.83-5.33-6.85-4.49c-3.85,0.81-7.8,1.36-11.72,1.56c-4.75,0.24-6.64,3.1-7.46,7.16
		c-0.32,1.59-0.3,3.25-0.43,4.87c-0.89,10.84-1.36,21.74-2.79,32.51c-1.87,14.07-4.71,27.98-11.72,41.14
		c5.53-1.06,10.43-2.22,15.39-2.91c11.16-1.57,20.39-5.73,24.69-17.12c0.03-0.09,0.23-0.12,0.49-0.25
		c4.95,6.6-0.87,10.92-3.69,16.35c15.15-4.32,29.73-8.63,38.18-22.81C330.42,661.79,335.82,663.94,341.1,666.04z M726.23,521.2
		c-5.84-1.44-11.24-2.73-16.62-4.09c-22.14-5.61-44.22-11.44-66.42-16.8c-12.74-3.07-26.89,4.01-33.27,16.41
		c21.49,6.76,42.86,13.47,64.23,20.19c-0.08,0.28-0.15,0.56-0.23,0.83c-22.65-4.97-45.31-9.95-68.6-15.06
		c-1.47,4.36-3.23,8.48-4.21,12.79c-0.91,3.98-0.01,8.16,6.15,9.59c16.55,3.84,32.99,8.15,49.49,12.17
		c11.45,2.8,22.94,5.44,34.6,8.19C696.06,545.21,704.49,528.24,726.23,521.2z M165.4,232.91c5.3-0.2,12.18-3.15,18.71-6.83
		c20.94-11.81,38.62-27.35,52.03-47.36c3.74-5.57,6.92-11.82,8.89-18.21c3.56-11.52-2.18-17.79-14.3-16.73
		c-1.08,0.09-2.14,0.34-3.2,0.58c-8.92,1.99-16.71,6.36-24.16,11.47c-19.23,13.19-35.62,29.13-46.47,49.98
		c-2.66,5.1-4.03,11.31-4.33,17.09C152.21,230.01,156.11,233.01,165.4,232.91z M496.39,724.92c-0.34-0.11-0.68-0.21-1.02-0.32
		c0.39-6.19-2.53-10.32-7.43-13.97c-8.59-6.4-16.85-13.26-25-20.22c-4.22-3.6-5.96-4.26-11.3-2.11
		c-24.71,9.95-38.14,37.64-30.49,62.86c4.29,14.13,16.1,22.93,30.43,22.23c9.52-0.47,17.97-4.33,24-11.51
		c6.07-7.22,11.27-15.26,16.12-23.37C494.11,734.47,494.88,729.47,496.39,724.92z M597.79,199.34c-0.07-0.44-0.13-0.88-0.2-1.31
		c-0.66-0.03-1.32-0.09-1.98-0.09c-54.46,0.61-108.92,1.21-163.38,1.87c-22.87,0.28-45.74,0.74-68.61,1.01
		c-6.48,0.08-7.2-0.8-7.24-7.34c-0.05-8.17-0.1-16.33-0.08-24.5c0.02-8.35,1.24-9.91,9.51-10.19c40-1.34,80-2.53,120.01-3.74
		c1.31-0.04,2.62,0.14,4.65,0.26c0,7.56-0.1,14.76,0.03,21.95c0.09,5.16,2.43,7.57,7.56,7.54c31.59-0.21,63.17-0.51,94.76-0.86
		c2.04-0.02,4.07-0.65,6.11-1c-1.61-0.93-3.08-0.93-4.56-0.93c-30.23,0-60.45-0.01-90.68-0.02c-1.77,0-3.55-0.01-5.3-0.2
		c-3.5-0.39-5.34-2.4-5.41-5.96c-0.18-9.39-0.4-18.78-0.51-28.17c-0.07-6.08,2.14-8.32,8.36-8.4c5.58-0.07,11.16,0.06,16.75,0.07
		c7.42,0.02,14.84,0,22.66,0c-0.75-1.07-1.74-1.87-1.88-2.79c-0.71-4.42-3.85-4.35-7.21-4.35c-20.69,0.01-41.39-0.39-62.07,0.02
		c-17.41,0.35-34.8,1.6-52.19,2.53c-1.21,0.06-2.83,0.46-3.49,1.3c-1.86,2.38-3.31,5.06-5.02,7.77c27.08-0.42,54.34-0.84,81.87-1.26
		c-0.29,3.21-0.5,5.59-0.76,8.46c-2.55,0-4.83-0.05-7.11,0.01c-41.37,0.97-82.74,1.92-124.11,2.98c-6.35,0.16-7.6,1.68-7.59,7.94
		c0.01,10.34,0.02,20.69,0.08,31.03c0.05,8.53,2.36,10.93,10.77,10.85c44.25-0.41,88.5-0.74,132.74-1.37
		c32.94-0.47,65.88-1.34,98.82-2.09C594.66,200.33,596.22,199.69,597.79,199.34z M673.59,366.68c-0.84,5.56,1.68,9.59,5.07,13.68
		c6.66,8.05,13.02,16.38,19.16,24.84c4.76,6.56,7.6,7.16,14.44,2.53c13.52-9.15,19.58-22.18,19.95-38.09
		c0.29-12.2-2.66-23.49-10.99-32.81c-9.78-10.95-22.91-11.69-33.98-2.1C677.5,343.18,674.44,354.5,673.59,366.68z M726.02,654.1
		c-0.33-3.24-0.54-6.49-1.02-9.71c-1.27-8.47-3.86-16.42-10.06-22.69c-3.66-3.7-9.46-3.21-12.27,0.91
		c-6.92,10.16-14.44,19.9-24.58,26.99c-5.17,3.62-7.26,8.3-7.66,13.96c-0.39,5.38-0.54,10.87,0.1,16.2
		c1.4,11.76,8.22,19.94,17.99,21.53c10.65,1.74,18.73-3.37,25.15-11.21C722.19,679.69,725.55,667.39,726.02,654.1z M148.51,230.92
		c-24.25,17.35-47.98,34.93-72.42,51.47c-8,5.42-12.21,12.06-14.55,20.83c-1.22,4.58-3.05,9-4.96,14.54
		c27.79-19.34,54.62-37.99,81.55-56.73c1.69,3.18,1.06,4.82-1.3,6.45c-16.23,11.22-32.38,22.55-48.55,33.87
		c-9.96,6.98-19.9,14-30.54,21.49c6.21,5.63,12.03,10.9,16.72,15.16c-3.49-3.87-8-8.89-12.8-14.22
		c26.17-18.21,52.02-36.21,78.08-54.35c11.12,11.14,20.85,23.32,33.42,32.55c-8.1-9.76-16.58-19.15-24.89-28.69
		c-9.19-10.55-9.07-6.94-5.28-21.05c1.69-6.28,2.09-13.29,8.43-17.36C150.44,233.53,149.64,232.45,148.51,230.92z M312.11,193.87
		c3.45,4.87,3.46,9.39,1.81,13.67c-2.48,6.43-4.91,13.02-8.44,18.9c-12.05,20.1-28.17,36.67-46.92,50.53
		c-15.89,11.74-32.13,23.15-51.62,25.14c0.82,1.06,1.95,2.8,3.35,4.27c9.02,9.45,18.2,18.75,27.1,28.31
		c3.36,3.6,7.2,4.15,12.02,3.74c-11.06-11.55-21.79-22.76-32.65-34.1c31.2-10.71,54.99-31.17,77.05-54.11
		c11.47,12.35,22.82,24.58,34.57,37.23c3.71-5.01,7.16-9.66,10.73-14.48c-11.6-12.6-22.91-24.88-34.01-36.94
		c4.02-7.78,7.84-15.17,11.21-21.69c8.56,7.72,17.2,15.51,24.04,21.68c-4.76-5.4-11-12.76-17.57-19.82
		c-3.44-3.7-6.05-7.08-5.07-12.76C318.29,200.1,318.18,195.62,312.11,193.87z M227.44,697.89c2.18-1.22,4.85-2,6.42-3.76
		c3.59-4,7.36-8.12,9.78-12.85c9.12-17.78,11.59-37.26,13.12-56.83c2.11-27.1,0.8-54.1-3.14-80.99
		c-4.04-27.6-10.91-54.35-23.72-79.3c-6-11.68-13-22.67-23.77-30.71c-3.88-2.89-8.24-4.16-12.64-4.23
		c4.71,4.04,9.92,7.77,14.24,12.34c10.36,10.96,16.57,24.49,22.14,38.27c10.37,25.63,16.17,52.38,19.09,79.82
		c3.47,32.64,3.75,65.22-2.95,97.48C242.97,671.87,239.1,686.58,227.44,697.89z M484.04,387c-2.06-0.98-4.33-1.41-5.55-2.78
		c-4.77-5.3-11.22-6.88-17.63-8.72c-4.04-1.16-7.28-0.59-10.07,2.99c-7.92,10.21-15.99,20.3-24.15,30.31
		c-1.77,2.17-1.55,3.59,0.2,5.52c6.28,6.89,12.45,13.88,18.83,21.04C456.37,417.64,468.94,401.33,484.04,387z M23.57,540.93
		c4.95-1.29,6.98-1.02,9.87,2.32c1.58,1.82,2.93,3.94,3.95,6.12c6.16,13.12,8.7,27.1,9.29,41.46c0.44,10.67-0.55,21.2-4.55,31.23
		c-1.63,4.08-3.74,7.78-9.48,7.54c1.7,2.43,3.04,4.45,4.5,6.39c0.81,1.08,1.75,2.09,2.75,3c4.07,3.7,8.07,3.43,10.78-1.38
		c2.23-3.97,4.16-8.33,5.12-12.76c6.12-28.29,3-55.95-6.96-82.88c-1.84-4.97-4.94-9.7-8.33-13.83c-3.66-4.46-8-3.93-11.05,0.92
		C27.13,532.8,25.51,536.96,23.57,540.93z M654.22,663.27c-0.23-0.35-0.47-0.7-0.7-1.05c-2.67,1.43-6.03,2.26-7.89,4.39
		c-13.07,14.99-28.45,26.81-46.35,35.47c-44.82,21.68-99.09,15.61-135.65-22.77c-7.96-8.36-14.91-17.47-20.31-27.78
		c0.4-0.15,0.56-0.26,0.61-0.22c0.97,0.73,1.92,1.5,2.9,2.21c7.09,5.16,14.74,7.3,23.44,4.7c18.51-5.54,31-26.57,27.13-45.89
		c-0.13,0.23-0.35,0.46-0.36,0.69c-0.04,1.22,0.01,2.45-0.05,3.67c-0.65,13.54-5.17,25.18-16.36,33.63
		c-13.59,10.27-30.88,7.54-39.81-6.48c-5.24-8.24-5.34-17.28-3.28-26.41c3.86-17.1,20.3-29.61,36.36-27.52
		c4.15,0.54,8.13,2.35,12.75,3.74c-7.36-5.01-14.78-7.57-23.17-5.78c-20.61,4.41-34.63,29.18-27.48,48.97
		c2.71,7.51,5.71,15.03,9.61,21.97c22.45,39.98,56.72,61.34,102.67,60.49C592.53,718.48,626.88,696.93,654.22,663.27z M169.2,657.08
		c3.32,10.57,3.24,21.59-1.98,30.38c-4.86,8.2-7.88,19.67-20.4,21.25c9.6,1.87,15.9-2.63,20.51-10.17
		c5.42-8.86,8.19-18.64,9.23-28.89c0.28-2.74,1.28-3.56,3.96-3.87c10.39-1.2,20.76-2.59,31.11-4.13c6.76-1,10.49-4.76,11.77-11.75
		c0.78-4.27,1.19-8.62,1.62-12.95c2.28-22.97,2.01-45.97-0.23-68.9c-1.23-12.57-3.21-25.08-5.42-37.52
		c-1.49-8.36-5.65-11.23-13.97-11.18c-2.04,0.01-4.11-0.13-6.12,0.13c-3.94,0.5-5.42-1.21-6.17-5.02
		c-3.15-15.95-8.18-31.33-16.14-45.55c-3.86-6.89-8.58-13.3-12.92-19.92c5.05,11.81,10.91,23.11,15.43,34.92
		c4.59,12,7.85,24.52,11.72,36.91c3.07,0,6.59,0.14,10.09-0.03c9.01-0.42,12.92,2.19,13.89,11.04c2.31,21.07,5.04,42.15,5.88,63.3
		c0.69,17.34-0.91,34.78-1.84,52.16c-0.34,6.24-3.43,9.37-9.54,10.48c-8.69,1.58-17.49,2.61-26.17,4.24
		C177.78,663.09,172.59,663.47,169.2,657.08z M529.54,74.04c-11.25-11.52-25.65-13.3-40.46-14.22c1.79-0.37,3.57-0.73,6.58-1.35
		c-2.14-1.02-3.25-2.02-4.36-2.01c-11.56,0.13-23.12,0.39-34.68,0.72c-0.92,0.03-1.82,0.84-3.75,1.78c2.5,0.59,3.72,0.88,5.52,1.3
		c-7.64,1.56-14.73,2.6-21.58,4.52c-6.89,1.92-12.72,5.98-18.62,11.4C455.82,72.49,492.49,71.52,529.54,74.04z M490.22,622.37
		c-0.14-1.3-0.14-3.38-0.62-5.34c-2.78-11.22-14.34-20.56-27.58-11.48c-10.61,7.27-13.75,23.37-6.8,34.21
		c5.97,9.3,17.79,10.91,26.11,3.59C487.45,637.97,490.06,631.09,490.22,622.37z M498.22,416.88c1.16,3.72,1.81,7.71,3.58,11.11
		c6.75,12.89,22.45,13.81,30.51,1.76c6.06-9.06,6.28-18.74,0.8-28.13c-6.53-11.19-20.16-11.96-28.31-1.9
		C500.79,404.67,498.88,410.34,498.22,416.88z M419.59,127.64c36.54-0.5,74.59-1.02,112.65-1.54c-34.72-3.63-69.44-2.64-103.93,0.19
		c0-2.25,0.01-4.26,0-6.27c-0.07-10.34-0.11-20.68-0.26-31.01c-0.04-2.82,0.79-4.1,3.9-4.16c19.17-0.4,38.34-1.12,57.52-1.45
		c13.55-0.24,27.1-0.05,39.28-0.05c-9.43-5.05-103-3.73-110.76,2.51c2.06,0,3.88,0,5.93,0c0.1,1.22,0.26,2.27,0.26,3.32
		c0.06,9.52,0.12,19.04,0.11,28.57C424.28,122.38,426.16,128.24,419.59,127.64z M159.31,529.64c2.73-5.72,7.47-6.98,13.22-6.99
		c4.85-0.01,9.69-0.87,14.54-1.35c-0.04-0.39-0.09-0.78-0.13-1.17c-4.99,0.36-9.98,0.75-14.97,1.06c-5.61,0.35-5.48,0.29-6.72-5.22
		c-5-22.17-12.55-43.3-26.21-61.8c-4.23-5.73-9.21-10.73-15.88-13.72c-8.24-3.69-16.62-1.66-21.98,5.38
		c12.4-4.21,19.56-2.3,28.41,7.83c2.5,2.86,4.73,5.96,6.93,9.06c5.79,8.15,8.84,17.84,15.3,25.77c3.3,4.05,4.44,10.16,5.67,15.54
		C159.39,512.3,162.2,520.63,159.31,529.64z M156.39,539.97c-5.2,6.64-5.14,6.63-4.34,10.78c4.86,25.38,7.34,50.93,3.29,76.63
		c-0.92,5.83,0.84,8.79,5.17,11.03C166.49,605.39,163.61,572.59,156.39,539.97z M131.81,507.41c0.71,8.6,2.14,16.75,6.9,23.82
		c1.4,2.08,4.6,4.4,6.69,4.16c2.13-0.24,5.01-3.18,5.69-5.49c3.89-13.16,2.97-26.08-4.1-38.07c-1.13-1.91-4.19-4.04-6.06-3.8
		c-2.14,0.27-4.92,2.73-5.71,4.87C133.51,497.52,132.89,502.55,131.81,507.41z M143.17,660.53c0.17,0.04,0.35,0.07,0.52,0.11
		c0.14,2.03,0.11,4.09,0.45,6.08c1.18,6.82,2.35,13.71,7.15,19.14c3.63,4.1,7.42,3.58,10.08-1.22c0.72-1.29,1.25-2.71,1.68-4.12
		c2.04-6.8,1.87-13.73,0.18-20.5c-1.17-4.66-2.82-9.35-5.17-13.5c-1.18-2.08-4.56-4.29-6.69-4.06c-2.09,0.23-4.71,3.15-5.58,5.47
		C144.3,651.89,143.98,656.31,143.17,660.53z M694.36,605.67c-22.99-2.73-46.14-5.49-69.29-8.24c-0.06,0.42-0.12,0.84-0.18,1.26
		c26.5,7.68,53.93,10.61,81.84,15.96c-11.22-10.15-15.02-22.48-15.79-36.01c-0.15-2.69-0.97-3.74-3.6-3.13
		C686.3,582.44,688.17,590.38,694.36,605.67z M211.49,579.01c-11.9,0.96-23.19,1.88-34.16,2.76c0.47,7.73,0.91,15.12,1.38,22.92
		c11.21-1.2,22.06-2.35,32.78-3.49C211.49,593.48,211.49,586.34,211.49,579.01z M738.97,529.72c-0.47-0.12-0.94-0.28-1.41-0.34
		c-11.82-1.54-20.62,3.76-27.44,12.72c-9.5,12.49-12,26.89-9.9,42.11c0.97,7.01,3.11,13.84,7.9,19.4
		c6.32,7.34,13.88,11.71,23.97,9.5c-1.38-0.4-2.83-0.55-4.27-0.67c-10.07-0.85-17-6.03-20.76-15.32
		c-4.41-10.87-5.47-21.81-1.81-33.32C710.69,546.64,719.7,533.49,738.97,529.72z M603.19,560.58c0.94,5.78,3.55,8.22,8.46,8.96
		c12.5,1.87,24.93,4.16,37.41,6.16c5.1,0.82,10.25,1.39,15.38,1.94c5.11,0.55,10.23,0.94,15.35,1.41c0.09-0.52,0.19-1.04,0.28-1.56
		C654.67,571.9,629.27,566.31,603.19,560.58z M779.38,615.62c-17.2-8.92-16.46-24.72-16.1-40.22c-0.62,2.21-1.24,4.44-1.87,6.68
		c-0.36-0.1-0.72-0.2-1.07-0.3c-0.56-8.78,2.21-16.8,6.39-24.41c4.25-7.72,9.73-14.22,19.68-16.69c-6.17-1.78-10.12,0.49-13.76,3.55
		c-16.7,14.08-21.35,42.88-9.81,61.48C766.51,611.63,771.58,615.67,779.38,615.62z M294.69,212.45
		c-15.19,26.42-35.24,48.18-61.01,64.54c16.52-6.31,37.24-21.86,49.12-36.92C289.17,231.99,294.82,223.52,294.69,212.45z
		 M201.7,246.33c0.18,0.36,0.36,0.72,0.55,1.08c6.22-3.73,12.66-7.13,18.61-11.24c15.22-10.51,28.82-22.72,38.47-38.78
		c3.09-5.15,3.34-10.76,2.61-16.48C249.36,208.4,234.79,224.31,201.7,246.33z M689.24,506.45c-0.96-6.54-4.93-11.52-9.16-16.2
		c-10.1-11.18-22.43-18-37.87-17.85c-19.64,0.19-34.6,9.72-46.1,24.76c-17.87,23.38-23.15,49.85-17.62,78.61
		c0.41,2.13,0.83,4.27,1.45,6.35c0.6,2.05,1.46,4.02,2.2,6.02c-5.77-20.45-6.33-40.86,0.12-61.06c5.91-18.53,15.43-34.8,32.72-45.23
		c23.2-14,49.09-9.44,65.95,11.74C684.1,497.56,686.49,502.15,689.24,506.45z M89.83,505.57c3.49-2.6,6.72-4.94,9.84-7.41
		c0.54-0.43,0.79-1.44,0.87-2.21c0.87-8.13-0.05-16.03-3.87-23.33c-0.83-1.59-3.05-3.66-4.35-3.48c-1.65,0.23-3.83,2.27-4.36,3.97
		c-1.24,3.97-2.1,8.18-2.25,12.33C85.45,492.46,86.35,499.4,89.83,505.57z M795.83,580.51c-0.42-0.06-0.84-0.12-1.26-0.17
		c-0.25-1-0.27-2.15-0.81-2.97c-0.97-1.47-2.05-3.56-3.44-3.89c-1.65-0.39-4.18,0.24-5.46,1.39c-4.77,4.29-3.43,15.26,1.92,18.64
		c0.56,0.35,0.73,1.33,1.12,2.1c7.28-1.43,12.93-13.99,9.34-21C796.8,576.45,796.32,578.48,795.83,580.51z M694.04,456.6
		c2.3-10.4-1.68-19.42-9.41-22.72c-6.01-2.56-12.36-0.52-16.3,5.37c2.46,1.12,4.9,2.22,6.3,2.86c3.07-0.97,5.25-1.65,7.42-2.34
		c0.66,4.25,3.29,6.88,7.04,8.6C687.45,452.94,692.05,453.52,694.04,456.6z M766.41,582.47c0.21,0.01,0.41,0.01,0.62,0.02
		c0.17-1.03,0.33-2.06,0.5-3.09c1.27-7.82,3-15.61,8.21-21.8c2.98-3.54,6.69-6.79,10.7-9.04c4.32-2.41,9.14-0.98,14.13,1.85
		c-7.11-8.6-16.12-9.27-23.87-1.49c-5.87,5.89-12.07,12.06-10.4,21.93C766.94,574.63,766.41,578.6,766.41,582.47z M561.37,163.78
		c0.06-6.13-4.73-11.6-10.24-11.7c-5.65-0.1-10.36,5.08-10.38,11.42c-0.03,6.17,4.7,11.35,10.46,11.45
		C556.66,175.06,561.31,169.94,561.37,163.78z M20.5,560.34c7.26-0.22,8.64,0.25,10.88,6.95c2.49,7.47,4.06,15.26,5.7,21.66
		c2.27-12.15-3.91-34.07-12.58-41.2C21.22,551.27,20.92,555.66,20.5,560.34z M767.43,537.54c-0.1-0.45-0.21-0.89-0.31-1.34
		c-2.76,1.41-6.18,2.2-8.13,4.34c-4.52,4.97-9.26,10.12-12.24,16.03c-6.25,12.45-6.74,25.69-2.37,39.05
		C741.42,571.94,746.51,551.56,767.43,537.54z M775.2,538.69c-3.73-0.87-6.47,1.13-8.98,3.22c-10.16,8.46-15.01,19.73-16.65,32.56
		c-1.03,8.05-0.42,15.94,3.08,24.29C749.04,574.05,753.56,553.25,775.2,538.69z M307.54,212.83c0.83-4.68,2.18-9.23,2.31-13.81
		c0.14-5.34-2.02-6.72-7.25-5.66c-2.92,0.59-5.78,1.48-8.32,2.14C298.66,201.24,302.8,206.64,307.54,212.83z M8.18,606.75
		c3.47-8.22,2.38-31.1-1.83-37.29C2.47,582.67,3.91,594.78,8.18,606.75z M727.72,587.45c2.05-30.86,5.22-37.51,25.47-52.59
		c-4.71-0.95-11.49,3.02-16.69,10.1C727.07,557.81,724.45,572.06,727.72,587.45z M283.82,220.15c-6.98-7.64-13.74-15.04-20.51-22.45
		c-0.38,0.02-0.77,0.03-1.15,0.05c-0.19,1.77-1.23,4.25-0.44,5.21c6.03,7.32,12.42,14.34,19.03,21.83
		C281.92,223.01,282.72,221.81,283.82,220.15z M759.84,536.35c0-0.4-0.01-0.79-0.01-1.19c-2.36,1-4.98,1.63-7.02,3.08
		c-10.47,7.44-15.72,18.09-17.96,30.42c-1.76,9.71-1.16,17.65,1.49,22.87C734.31,569.01,739.62,549.48,759.84,536.35z
		 M150.48,434.56c-0.08,0.52-0.16,1.03-0.25,1.55c2.14,0.51,4.3,1.5,6.42,1.43c5.01-0.18,10-0.84,14.99-1.35
		c7.5-0.76,15-1.56,22.51-2.35c0.06-0.38,0.12-0.77,0.17-1.15c-1.97-0.53-3.99-1.63-5.91-1.49
		C175.76,432.17,163.13,433.4,150.48,434.56z M208.41,231.75c19.07-12.89,36.99-26.89,45.08-49.72
		C241.62,201.44,226.63,218.04,208.41,231.75z M719.86,583.4c0.72-20.89,5.44-39.78,26.82-49.75
		C730.94,530.66,714.18,561.9,719.86,583.4z M426.61,252.09c-0.42,0.16-0.84,0.32-1.26,0.49c0,10.82,0,21.63,0,32.57
		c1.38,0.16,2.54,0.29,3.83,0.43c0-9.23,0.16-18.19-0.12-27.13C429,256.31,427.47,254.21,426.61,252.09z M641.27,666.11
		c-5.92,1.68-11.23,4.43-16.49,4.33c-4.95-0.09-9.84-3.17-14.76-4.93C617.39,677.47,631.08,677.94,641.27,666.11z M177.55,289.81
		c0.23,0.44,0.47,0.89,0.7,1.33c2.54-1.14,5.2-2.07,7.59-3.45c6.79-3.92,13.52-7.95,20.15-12.13c0.86-0.54,1.01-2.21,1.5-3.36
		c-0.35-0.15-0.71-0.29-1.06-0.44C196.81,277.78,187.18,283.79,177.55,289.81z M512.18,390.21c-12.11-0.57-20.81,8.62-22.28,23.26
		c-1.1,10.96,6.76,24.23,15.3,25.85c-9.96-6.71-15.36-15.78-13.46-28.02C493.55,399.66,500.73,392.8,512.18,390.21z M162.18,267.15
		c10.01-4.8,18.98-9.09,27.94-13.39c0.06-0.33,0.12-0.66,0.18-0.99c-1.31-0.41-2.98-1.54-3.87-1.1
		c-7.12,3.56-14.13,7.34-21.05,11.26C164.21,263.59,163.59,265.23,162.18,267.15z M376.83,387.95c-2.41,8.37-7.1,14.43-12.92,19.54
		c-5.82,5.11-11.79,10.28-20.47,9.76C355.17,421.79,378.46,401.76,376.83,387.95z M27.04,570.35c0.27-0.38,0.55-0.76,0.82-1.14
		c-1.35-1.12-2.76-3.26-4.04-3.18c-4.9,0.29-9.76,1.3-15.11,2.11c1.09,2.27,1.92,4.02,2.57,5.38
		C16.85,572.4,21.94,571.38,27.04,570.35z M461.4,52.96c0-3.02,0.19-5.86-0.05-8.66c-0.24-2.75,0.87-4.06,3.48-4.44
		c3.89-0.57,7.78-1.2,11.66-1.8c-5.46-0.29-10.9-0.17-16.29,0.37c-1.24,0.12-3.24,1.59-3.34,2.59c-0.39,3.99-0.16,8.05-0.16,12.34
		C458.63,53.2,459.8,53.1,461.4,52.96z M104.54,653.24c-0.56,0.23-1.12,0.46-1.69,0.69c2.29,4.79,4.38,9.69,7.01,14.28
		c0.57,1,3.53,1.7,4.63,1.11c3.1-1.66,4.32-8,2.46-12c-0.58,0.99-0.96,1.7-1.4,2.37c-1.16,1.8-2.33,3.59-3.5,5.38
		c-1.7-1.72-3.73-3.23-5-5.23C105.82,657.9,105.35,655.46,104.54,653.24z M275.36,231.55c0-0.68,0.29-1.63-0.04-2
		c-5.8-6.43-11.66-12.8-17.59-19.1c-0.43-0.45-1.59-0.22-2.41-0.3c0.07,0.81-0.17,1.96,0.27,2.39
		C262.03,218.83,268.56,225.04,275.36,231.55z M194.52,273.98c-2.31-2.63-4.08-4.66-5.87-6.67c-3.61-4.04-4.36-4.09-8.7-0.69
		c-0.84,0.66-1.71,1.27-2.56,1.91c6.26-1.39,9.36,0.7,11.68,8.35C190.73,275.99,192.33,275.14,194.52,273.98z M691.81,433.35
		c-3.78-7.75-9.96-11.62-16.27-10.9c-7.36,0.84-14.63,6.7-16.31,13.15C672.78,421.63,678.66,421.09,691.81,433.35z M465.49,599.29
		c-7.97-0.86-14.98,3.82-19.5,12.4c-3.71,7.05-4.85,19.92,0.8,26.21C439.26,621.46,448.48,601.38,465.49,599.29z M127.08,437.34
		c6.71,5.1,13.71,0.82,20.58,0.65C140.94,433.06,133.93,437.94,127.08,437.34z M30.34,584.54c0.57-0.66,1.15-1.33,1.72-1.99
		c-1.15-0.39-2.34-1.2-3.43-1.09c-4.93,0.51-9.84,1.27-14.94,1.97c0.18,1.33,0.34,2.49,0.45,3.29
		C19.73,585.96,25.03,585.25,30.34,584.54z M425.98,313.74c-3.55,3.11-7.29,6.38-11.01,9.63
		C422.21,322.13,426.62,317.85,425.98,313.74z M309.1,401.69c6.42,1.44,12.84,1.31,19.29-1.51
		C321.76,400.7,315.39,401.2,309.1,401.69z"/>
	<path class="st0" d="M564.96,222.43c2.05-0.1,3.72-0.63,4.96-0.13c1.3,0.53,2.2,2.05,3.26,3.14c0.07,0.07,0.01,0.26,0.01,0.4
		c0.54,17.36,1.03,34.73,1.67,52.08c0.11,3.04-0.36,4.62-3.98,4.91c-4.83,0.38-7.41,3.88-7.45,9.06
		c-0.06,8.02-0.08,16.05,0.06,24.07c0.05,2.8-0.81,3.73-3.73,3.75c-8.25,0.05-16.5,0.46-25.02,0.74c-0.05-0.89-0.16-2.09-0.17-3.28
		c-0.15-17-0.28-34-0.42-51c-0.07-8.7,3.81-12.97,12.56-13.65c4.2-0.33,8.41-0.57,12.62-0.79c5.42-0.29,5.6-0.41,5.62-6.03
		C564.98,238.11,564.96,230.52,564.96,222.43z"/>
	<path class="st0" d="M657.31,322.56c3.18,2.98,7.03,5.52,9.4,9.04c3.68,5.48,1.29,10.67-5.39,11.57
		c-8.33,1.12-16.8,1.15-25.18,1.91c-2.25,0.2-4.7,0.94-6.53,2.19c-2.41,1.64-3.99,1.43-6.07-0.42
		c-12.96-11.57-12.94-33.97-6.55-45.3c4.6-8.14,12.74-8.7,17.17-0.56c2.85,5.23,4.03,11.36,6,17.07c1.44,4.16,2.36,8.32,0.68,12.65
		c-1.36,3.49-2.67,7.01-4.15,10.93c4.26-0.39,8.84-0.36,13.19-1.35c3.3-0.75,3.96-4.08,4.21-7.21c0.26-3.25,0.63-6.5,0.95-9.75
		C655.8,323.08,656.56,322.82,657.31,322.56z M618.26,334.84c2.93,0.4,4.98,0.69,6.55,0.9c0,2.29,0,4.31,0,7.11
		c4.6-3.58,8.15-6.35,12.53-9.76c-2.85-0.48-4.24-0.71-5.55-0.93c-0.42-3.15,0.6-4.58,3.73-4.57c0.85,0,1.7-1.43,2.55-2.2
		c-0.27-0.36-0.54-0.72-0.81-1.08c-2.96,0.2-5.92,0.41-8.88,0.59c-2.83,0.18-5.66,0.34-8.49,0.51c-0.04,0.39-0.07,0.79-0.11,1.18
		c2.73,0.68,5.45,1.36,8.17,2.03C628.11,335.95,621.76,332.13,618.26,334.84z M634.85,311.66c0.3-0.23,0.6-0.47,0.89-0.7
		c-2.66-3.64-5.19-7.4-8.11-10.83c-0.57-0.67-2.64-0.07-4.02-0.06c0.02,1.08-0.2,2.23,0.1,3.22c0.98,3.17,2.15,6.27,3.52,10.16
		c-2.82,0-4.75,0-6.68,0c0,0.37,0.01,0.74,0.01,1.1c1.35,0,2.75,0.21,4.06-0.04c3.26-0.61,4.49,0.6,4.33,3.88
		c-0.09,1.65,0.47,3.34,0.74,5.01c0.53-0.03,1.07-0.07,1.6-0.1c0.25-4.39,0.51-8.77,0.78-13.52
		C633.12,310.48,633.99,311.07,634.85,311.66z"/>
	<path class="st0" d="M444.35,332.88c7.4-11.71,15.69-22.62,25.12-32.6c0.55,0.45,1.1,0.89,1.64,1.34
		C463.25,312.93,454.23,323.29,444.35,332.88z"/>
	<path class="st0" d="M386.54,363.9c5.21-8.07,10.42-16.15,15.63-24.22c0.5,0.32,1.01,0.65,1.51,0.97
		c-3.96,8.87-8.49,17.38-15.79,24.13C387.44,364.49,386.99,364.2,386.54,363.9z"/>
	<path class="st0" d="M392.9,364.51c4.29-1.6,7.85-2.93,11.11-4.16C402.96,363.57,398.49,365.62,392.9,364.51z"/>
	<path class="st0" d="M572.87,650.59c-33.15-4.27-58.73-20.38-72.23-51.91c-18.58-43.41-14.11-85.24,12.24-124.48
		c3.61-5.37,8.48-9.9,12.82-14.78c0.78-0.88,1.82-1.52,3.51-2.91c-4.81,6.57-9.24,12.14-13.16,18.05
		c-8.56,12.93-14.53,27.01-17.68,42.23c-1.22,5.9-0.57,6.91,5.07,8.37c4.61,1.2,9.24,2.33,13.84,3.57c5.49,1.48,5.78,1.93,4.98,7.71
		c-2.74,19.62-0.85,38.84,5.29,57.6c5.27,16.1,12.89,31.03,25.61,42.54C559.11,641.98,566.31,646.01,572.87,650.59z"/>
	<path class="st0" d="M365.25,501.87c-0.13-14.32,10.37-25.54,24.01-25.64c14.5-0.11,25.76,11.3,26,26.35
		c0.23,14.11-10.86,25.51-25.07,25.76C376.64,528.58,365.39,516.63,365.25,501.87z M403.92,503.66
		c-0.03-9.88-7.33-18.23-16.01-18.31c-8.4-0.08-14.91,7.74-14.97,17.99c-0.06,9.67,7.07,16.97,16.53,16.9
		C397.57,520.17,403.95,512.85,403.92,503.66z"/>
	<path class="st0" d="M538.45,449.41c17.08-17.42,48.91-25.97,74.38-15.94c-7.03,0.49-13.15,2.05-18.86,1.1
		c-18.01-2.98-33.71,2.88-49.04,11.04C542.72,446.79,540.61,448.14,538.45,449.41z"/>
	<path class="st0" d="M157.35,225.75c4.73-1.11,9.68-1.37,13.77-3.37c26.85-13.11,48.25-32.26,62.7-58.63
		c2.7-4.92,5.28-10.21,3.42-16.89c3.99,3.08,4.33,6.65,3.7,10.52c-1.33,8.17-5.63,15.07-10.35,21.49
		c-13.44,18.29-29.59,33.74-49.89,44.32c-4.62,2.41-9.86,3.76-14.94,5.13C162.48,229.21,159.43,228,157.35,225.75z"/>
	<path class="st0" d="M473.66,732.15c-0.63,8.62-4.52,15.63-12.19,20.17c-8.51,5.03-17.97,1.85-22.12-7.11
		c-4.96-10.69,0.71-26.03,11.43-30.96c10.24-4.71,20.7,1.58,22.54,13.58C473.52,729.17,473.54,730.53,473.66,732.15z"/>
	<path class="st0" d="M689.69,365.87c1.08-6.43,2.75-11.9,7.2-16.22c5.08-4.94,12.24-4.54,16.88,0.85
		c7.14,8.31,5.76,23.7-2.75,30.56c-5.49,4.43-12.52,3.81-16.24-2.22C692.38,374.95,691.34,370.22,689.69,365.87z"/>
	<path class="st0" d="M714.08,661.6c-0.28,6.62-2.66,12.29-7.08,16.99c-7.09,7.53-16.64,5.45-19.5-4.46
		c-2.67-9.25-0.68-17.85,6.24-24.73c6.77-6.72,15.82-4.4,18.91,4.67C713.47,656.46,713.62,659.08,714.08,661.6z"/>
	<path class="st0" d="M479.95,611.53c-6.1,7.7,2.57,8.84,4.28,13.12c-1.11,0.72-1.95,1.38-2.88,1.86c-3.13,1.6-4.72,3.9-3.94,7.58
		c0.68,3.2-0.69,4.66-3.77,3.25c-3.64-1.66-6.49-0.95-9.3,2.78c-1.54-2.99-2.34-5.9-4.16-7.86c-6.67-7.14,1.77-12.23,2.26-18.36
		c0.05-0.69,2.26-2.01,2.65-1.76c3.6,2.28,6.79,0.24,10.12-0.57C476.26,611.31,477.43,611.53,479.95,611.53z M471.4,616.27
		c-0.54-0.08-1.08-0.17-1.61-0.25c-1.68,4.36-3.4,8.72-4.99,13.11c-0.17,0.47,0.19,1.55,0.6,1.74c1.81,0.83,3.72,1.45,5.04,1.94
		c1.62-3.47,3.67-5.98,3.74-8.55C474.25,621.62,472.4,618.93,471.4,616.27z"/>
	<path class="st0" d="M507.18,423.43c-0.07-0.78,0.3-2.46-0.36-3.12c-3.67-3.66-1.77-6.54,0.83-9.56c0.48-0.56,0.66-1.53,0.68-2.31
		c0.11-3.65,1.03-5.74,5.46-4.31c1.2,0.39,3.16-1.08,4.59-1.99c2.92-1.87,4.65-1.27,4.76,2.09c0.09,2.78,1.35,4.12,3.92,4.9
		c3.95,1.2,4.27,2.6,1.25,5.39c-2.44,2.25-3.04,4.73-1.6,7.68c1.29,2.64-0.24,4.6-2.37,4.08c-4.17-1.01-6.84,0.14-8.84,4.38
		c-1.52-1.74-2.51-3.17-3.79-4.27C510.42,425.29,508.86,424.51,507.18,423.43z M516.31,407.01c-1.49,5.16-2.88,9.99-4.6,15.97
		c3.44,0,5.82,0,8.28,0C519.39,417.33,522.19,411.8,516.31,407.01z"/>
	<path class="st0" d="M147.48,514.27c-0.48,2.11-0.63,4.36-1.53,6.27c-0.62,1.31-2.27,2.14-3.45,3.18c-0.95-1.8-2.92-3.77-2.63-5.35
		c0.48-2.68,0.73-4.54-1.71-6.37c-0.85-0.63-1.35-2.54-1.1-3.65c0.61-2.67,2.36-4.8,1.93-8.09c-0.26-1.98,3.1-1.44,3.89,0.23
		c2.04,4.32,3.6,8.87,5.35,13.32C147.98,513.96,147.73,514.11,147.48,514.27z"/>
	<path class="st0" d="M153.92,653.44c3.83,6.85,5.64,13.59,3.01,20.84c-0.46,1.26-2.46,2.88-3.62,2.77
		c-2.46-0.22-1.81-2.24-1.41-4.09c0.23-1.05-0.15-2.72-0.9-3.41c-3.29-3.04-4.91-9.87-2.42-13.6
		C149.45,654.66,151.82,654.38,153.92,653.44z"/>
	<path class="st0" d="M198.89,581.97c4.84,0.05,9.24,4.71,9.1,9.65c-0.14,4.93-5.21,10.44-9.68,10.53c-4.71,0.09-8.65-4.53-8.53-10
		C189.9,586.77,194.24,581.92,198.89,581.97z"/>
	<path class="st0" d="M96.16,492.31c-0.23,2.01-0.18,4.12-0.8,6c-0.38,1.13-1.82,1.9-2.78,2.83c-0.85-1.12-1.94-2.13-2.49-3.38
		c-0.86-1.96-1.92-4.08-1.89-6.12c0.07-3.93,0.35-7.99,1.5-11.71c0.66-2.14,3.03-0.92,3.63,0.69c1.38,3.73,2.34,7.62,3.47,11.44
		C96.59,492.15,96.38,492.23,96.16,492.31z"/>
	<path class="st0" d="M342.21,383.53c-0.18-10.09,8.56-8.4,14.57-12.51c0,2.81,0.47,4.68-0.08,6.16
		c-2.52,6.75-7.85,10.95-13.96,14.2c-2.78,1.48-4.31-0.66-5.43-2.76c-1.32-2.48,0.52-3.39,2.4-4.15
		C340.58,384.12,341.46,383.81,342.21,383.53z"/>
	<path class="st0" d="M557.76,163.4c-0.07,4.56-3.4,8.28-7.34,8.18c-3.92-0.09-7-3.96-6.85-8.6c0.14-4.4,3.62-8.29,7.4-8.29
		C554.7,154.7,557.83,158.71,557.76,163.4z"/>
	<path class="st0" d="M393.62,505.95c1.54,4.52-0.1,7.09-4.94,7.89c-6.39,1.06-8.68,0.25-11.11-3.89
		c-3.04-5.17-2.82-8.83,0.82-13.55c0.08-0.11,0.14-0.3,0.24-0.32c4.28-0.88,8.57-1.76,12.87-2.55c0.22-0.04,0.91,0.83,0.85,1.17
		c-0.6,3.14,1.68,4.55,3.49,6.4C398.99,504.31,395.73,504.98,393.62,505.95z"/>
</g>
</svg>
