<?xml version="1.0" encoding="utf-8"?>
<!-- Generator: Adobe Illustrator 24.1.2, SVG Export Plug-In . SVG Version: 6.00 Build 0)  -->
<svg version="1.1" id="Injetor" xmlns="http://www.w3.org/2000/svg" xmlns:xlink="http://www.w3.org/1999/xlink" x="0px" y="0px"
	 viewBox="0 0 812 812" style="enable-background:new 0 0 812 812;" xml:space="preserve">
<style type="text/css">
	.st0{fill:#111825;}
</style>
<g>
	<path class="st0" d="M547.96,523.72c-0.7,1.15-1.11,2.75-2.13,3.38c-17.93,11.02-33.22,24.83-45.02,42.34
		c-1.28,1.9-2.47,3.86-3.56,5.87c-1.09,2.01-2,4.11-3.16,6.53c-2.4-1.66-7.82,4.1-7.56-4.31c-5.11,2.8-7.63-0.78-10.59-3.69
		c-7.25-7.14-14.61-14.16-21.99-21.15c-0.74-0.7-1.99-1.26-2.98-1.22c-4.55,0.16-7.7-2.1-10.85-5.12
		c-25.25-24.18-50.67-48.19-75.93-72.35c-13.56-12.97-25.91-27.46-40.64-38.9c-18.61-14.46-34.04-32.09-51.68-47.43
		c-1.62-1.41-3.27-2.84-4.62-4.49c-1.79-2.19-3.65-2.14-6.35-1.82c-7.06,0.84-14.26,1.58-21.31,1.06c-3.63-0.27-7.4-2.84-10.51-5.16
		c-7-5.21-13.41-11.2-20.47-16.33c-7.71-5.6-16.59-8.23-26.2-8.22c-9.86,0.01-18.5-2.96-25.59-10.16
		c-4.82-4.89-9.88-9.59-15.16-13.98c-4.7-3.91-5.85-8.63-4.55-14.21c0.65-2.77,1.93-5.4,2.53-8.19c0.33-1.56-0.17-3.3-0.26-4.96
		c-0.06-1.18-0.41-3.28-0.04-3.42c3.07-1.17,2.19-3.84,2.7-6.03c0.58-2.49,1.05-5.13,2.24-7.35c9.27-17.21,22.37-31.37,36.12-45.39
		c28.95,20.14,55.9,42.26,81.58,65.7c-5.07,7.63-9.99,15.02-14.9,22.4c0.33,0.24,0.66,0.48,0.99,0.72
		c15.26-18.68,31.96-35.83,51.79-49.14c-25.45-25.88-50.88-51.74-77.38-78.68c11.28-6.82,21.27-12.86,31.91-19.29
		c-2.06,0-4.41-0.7-5.94,0.12c-9.32,4.97-19.06,9.46-27.55,15.64c-27.12,19.76-51.44,42.51-70.63,70.31c-1.96,2.84-3.73,5.83-6,8.43
		c12.33-29.51,34.37-50.97,59.03-70.24c-0.22-0.28-0.45-0.57-0.67-0.85c-1.64,1.12-3.31,2.19-4.92,3.36
		c-1.62,1.17-3.17,2.43-5.7,4.38c-0.82-1.38-1.68-2.84-2.79-4.73c-2.43,1.87-4.54,3.25-6.35,4.94
		c-18.72,17.42-33.69,37.45-42.06,61.84c-1.61,4.68-1.41,9.95-2.42,14.88c-0.25,1.22-1.79,2.68-3.05,3.1
		c-5.02,1.68-9.37,0.59-13.33-3.24c-8.65-8.37-17.57-16.45-26.38-24.65c-6.34-5.9-5.34-17.41,2.36-22.68
		c5.97,5.54,11.55,11.82,18.19,16.63c9.05,6.56,12.23,14.74,10.26,25.38c-0.49,2.63,0.18,4.54,2.74,4.73c0-6.43-0.15-12.9,0.1-19.36
		c0.07-1.72,1.14-3.52,2.11-5.06c7.6-12.13,15.25-24.23,23-36.27c1.05-1.63,2.54-3.17,4.17-4.21c13.49-8.61,24.29-19.93,33.75-32.68
		c0.79-1.07,2.08-1.89,3.3-2.49c2.15-1.07,4.43-1.88,6.93-2.91c-0.5-0.24-0.72-0.43-0.81-0.38c-7.04,4.08-12.18,1.5-17.35-3.98
		c-6.37-6.74-13.5-12.77-21.32-20.05c6.58-2.37,12.3-4.26,17.88-6.5c4.29-1.72,7.35-0.72,10.65,2.49
		c6.66,6.5,13.81,12.49,20.69,18.77c1.08,0.99,1.8,2.37,2.99,3.98c2.85-0.62,6.68-1.46,10.85-2.37c-0.65-0.7-1.17-1.33-1.77-1.88
		c-7.07-6.49-14.62-12.54-21.08-19.6c-5.27-5.76-10.76-6.29-17.64-4.51c-12.24,3.16-23.63,7.84-32.96,16.65
		c-11.24,10.62-23.04,20.73-33.47,32.1c-10.06,10.97-18.27,23.49-23.04,37.9c-1.06,3.19-5.34,4.1-9.39,1.91
		c-1.61-0.87-3.03-2.16-4.39-3.41c-17.79-16.43-35.42-33.03-53.39-49.25c-5.53-4.99-7.37-10.72-5.12-17.31
		c2.71-7.93,6.38-15.54,9.68-23.26c0.55-1.29,1.36-2.46,2.18-3.92c-2.78-2.49-5.38-4.93-8.1-7.23c-3.2-2.71-4.21-6.05-3.06-10
		c3.55-12.21,11.08-21.24,22.39-26.88c5.94-2.96,11.86-2.99,16.94,2.33c2.06,2.16,4.46,4,6.68,5.97c4.24-1.78,8.49-3.44,12.6-5.38
		c1.12-0.53,2.19-1.77,2.7-2.94c10.13-23.2,20.34-46.37,30.12-69.72c2.75-6.56,6.76-10.84,13.37-13.46
		c10.76-4.28,21.34-9.04,31.89-13.84c4.9-2.23,8.92-1.7,13,1.85c13.82,12.04,27.81,23.9,41.68,35.89c5.67,4.9,6.35,9.12,3.12,15.96
		c-13.14,27.81-26.23,55.64-39.33,83.46c-0.54,1.15-0.99,2.33-1.58,3.71c-7.42-1.72-13.93,1.12-20.02,4.58
		c-30.42,17.29-54.78,40.33-68.15,73.43c-1.31,3.25-1.82,6.87-2.4,10.37c-0.56,3.36,1.29,4.99,4.49,5.3
		c9.8-34.21,32.6-57.95,61.38-76.69c6.77-4.41,14.37-7.79,21.98-10.56c6.07-2.21,12.71-3.06,19.18-3.87
		c2.19-0.27,5.16,0.81,6.85,2.31c9.75,8.65,19.37,17.45,28.68,26.58c2.3,2.25,3.24,5.88,4.98,9.23c3.08-1.7,7.07-4.07,11.22-6.13
		c5.71-2.84,7.95-2.4,12.71,1.97c1.16,1.06,2.43,2.07,3.36,3.32c2.27,3.05,4.82,3.21,8.19,1.78c4.89-2.09,9.31-0.19,13.53,3.13
		c-2.63,0.19-5.26,0.37-8.87,0.63c22.7,5.17,44.38,10.1,66.05,15.03c0.15-0.2,0.3-0.41,0.45-0.61c-3.3-1.7-6.43-3.98-9.93-4.98
		c-11.68-3.34-23.49-6.18-35.24-9.27c-3.98-1.05-7.91-2.26-12.14-3.47c0.33-1.59,0.6-2.93,0.94-4.58
		c-5.61-2.86-7.14-7.26-4.93-13.39c1.54-4.28,2.31-8.85,3.37-13.3c1.3-5.48,4.05-7.28,10.23-6.34c-1.55,1.39-2.95,2.64-4.68,4.18
		c5.23-0.66,9.88-1.37,14.56-1.76c1.64-0.14,3.39,0.35,5.02,0.82c7.5,2.14,8.19,3.36,6.52,10.92c-0.19,0.84-0.46,1.65-0.66,2.49
		c-1.79,7.6-2.99,8.94-10.88,8.63c-5.17-0.2-10.29-1.7-16.27-2.77c3.33,1.98,6.12,3.64,9.09,5.4c-2.81,0.7-5.47,1.36-8.12,2.02
		c0.03,0.37,0.06,0.74,0.09,1.11c4.28,0,8.56,0,13.32,0c-0.42,2.48-0.72,4.25-1.09,6.43c5.97,1.28,11.91,2.56,17.99,3.87
		c0.69-2.14,1.28-3.99,2.12-6.6c5.03,1.98,9.92,3.53,14.45,5.8c3.75,1.88,7.12,4.5,5.7,9.79c-0.2,0.74,0.91,2.19,1.78,2.76
		c1.66,1.09,3.62,1.69,5.38,2.65c4.66,2.53,6.4,5.87,5.32,10.99c-3.77,17.76-7.72,35.49-11.44,53.26c-0.44,2.11-0.43,4.56,0.17,6.62
		c3.01,10.32,1.83,20.04-3.78,29.89c-4.32-5.14-8.8-2.65-13.18-0.35c-3.65,1.91-7.17,4.06-10.35,6.92c3.28-1.35,6.54-2.76,9.85-4.03
		c7.28-2.8,13.22-2.16,19.37,3.96c15.43,15.36,31.7,29.86,47.51,44.85c1.79,1.69,2.77,4.24,4.38,6.81
		c-15.27-0.73-24.89,8.25-34.94,16.05c-3.46,2.69-6.16,6.36-9.38,9.78c39.84,38,79.93,76.23,119.45,113.93
		c-8.68,11.67-17.09,22.99-25.77,34.66c-38.58-36.77-77.92-74.27-117.37-111.87c-2.26,3.77-1.7,6.44,1.45,9.43
		c31.18,29.58,62.22,59.31,93.29,89.02c7.25,6.93,14.42,13.94,21.7,20.83c1.48,1.4,3.27,2.46,4.58,3.42
		c13.64-29.32,33.49-51.23,63.69-63.12c-0.84-5.72-1.24-6.05-7.13-3.82c-3.47,1.31-7,2.68-10.11,4.65
		c-3.11,1.97-5.06,1.61-7.65-0.92c-12.72-12.4-25.65-24.59-38.45-36.91c-1.85-1.78-3.37-3.9-5.23-6.08
		c6.73-3.98,14-8.27,21.65-12.78c7.6,7.32,15.63,15.05,23.67,22.77c8.37,8.04,16.77,16.05,25.11,24.12
		c1.11,1.07,2.66,2.35,2.78,3.64c0.45,4.81,3.75,7.49,6.84,10.44c7.05,6.72,13.92,13.65,21.14,20.19c3.04,2.75,4,5.33,2.12,8.11
		c1.57,1.39,3.76,2.4,4.02,3.77c0.39,2.12-1.25,3.61-3.79,3.24c-1.97-0.24-4.23-1.21-5.84-0.56c-3.53,1.43-6.71,3.7-10.07,5.58
		c-1.07,0.6-2.19,1.13-3.36,1.51c-1.72,0.56-3.81,0.5-5.18,1.49c-9.33,6.76-17.48,14.81-24.03,24.28
		c-3.88,5.61-7.15,11.65-10.44,17.63c-1.36,2.48-1.3,5,2.23,5.77c2.09-4.38,3.78-8.79,6.17-12.79c6.52-10.9,14.95-20.3,24.77-28.27
		C529.87,532.18,538.03,526.33,547.96,523.72z M65.99,212.87c1.09,1.47,2.18,2.93,3.23,4.35c4.37-10.01,8.48-19.42,12.57-28.83
		c0.11-0.25,0.07-0.56,0.1-0.84l-0.15,0.14c2.31-3.67-0.17-5.47-2.85-7.08c-1.63-0.98-3.42-1.7-5.85-2.89
		c3.14-1.67,5.52-2.94,7.9-4.21c-5.32,0.94-10.22,2.78-15.13,4.61c-5.24,1.96-5.54,1.73-5.52-3.91c0.02-7.09,0.01-14.18,0.01-21.48
		c-4.86,2.11-1.92,8.08-5.07,11.29c-0.59-0.69-1.08-1.26-1.46-1.71c0,5.36,0,10.83,0,17.18c-3.8-3.44-7.08-6.42-10.41-9.44
		c-0.89,1.31-1.67,2.44-2.56,3.76c-2.08-1.71-4.07-3.13-5.76-4.86c-0.73-0.75-1.42-2.34-1.12-3.18
		c4.35-12.07,10.88-22.86,19.5-32.82c18.21,16.61,36.12,32.95,53.24,48.57c7.68-7.52,14.78-14.47,20.65-20.22
		c-6.43,0.41-14.46,1.2-22.52,1.36c-5.23,0.1-9.99-1.51-13.87-5.62c-4.61-4.88-9.76-9.25-14.6-13.92c-6.52-6.3-6.6-8.96-0.87-16.29
		c0.73-0.93,1.39-2.14,1.51-3.28c0.52-4.83,0.82-9.69,1.19-14.4c-10.03,4.64-19.38,11.41-27,20.53
		c-9.46,11.32-16.89,23.83-21.28,37.92c-3.02,9.71-1.27,13.37,7.15,17.99c0.8-2.81,1.61-5.67,2.71-9.55
		c3.95,3.59,6.95,6.32,10.38,9.44c-3.44,1.65-6.27,3.01-10.42,5.01c3.25,1.73,5.3,3.64,7.43,3.73c2.3,0.1,4.68-1.49,7.39-2.48
		c0.8,3.78,1.59,6.96,2.13,10.18c0.94,5.66,4.93,8.6,9.52,11.07L65.99,212.87z M308.9,312.6c-6.34,5.72-12.51,11.3-18.81,16.99
		c18.69,17.69,36.75,34.77,54.91,51.95c-10.28,11.13-18.81,22.81-25.08,36.38c-18.14-17.31-36.08-34.44-54.09-51.64
		c-2.29,3.62-2.06,6.15,1.29,9.29c17.45,16.36,34.59,33.05,51.86,49.61c0.66,0.63,1.49,1.08,1.98,1.43
		c13.36-31.64,34.42-55.58,65.7-70.23c-8.79-1.26-15.05,4.95-22.39,8.38C345.95,347.49,327.71,330.32,308.9,312.6z M167.54,72.33
		c5.29-1.34,9.47-1.89,13.22-3.45c10.16-4.24,20.16-8.86,30.16-13.46c1.3-0.6,2.57-1.8,3.28-3.05c2.43-4.29,1.7-6.65-2.96-10.65
		c-13.58-11.64-27.21-23.23-40.73-34.95c-2.28-1.98-4.22-2.22-6.94-0.98c-10.94,4.96-21.95,9.75-32.95,14.57
		c-10.07,4.41-13.28,14.32-6.75,23.16c6.58,8.91,14.72,16.57,24.53,21.77C154.58,68.55,161.62,70.2,167.54,72.33z M117.64,41.22
		c-0.81,1.64-1.59,3.09-2.25,4.59c-10.09,22.73-19.81,45.63-30.42,68.11c-3.91,8.28-2.04,14.82,3.05,20.85
		c4.39,5.2,9.82,9.54,14.83,14.21c5.43,5.06,12.15,5.81,19.17,5.76c3.29-0.02,5.04-1.28,6.44-4.33
		c9.25-20.29,18.71-40.48,28.12-60.7c2.2-4.72,4.5-9.39,6.79-14.16c-6.77-1.74-6.76-1.74-9.47,4.12
		c-10.82,23.34-21.72,46.65-32.37,70.07c-1.48,3.26-3.03,3.83-6.14,2.73c-10.59-3.75-18.84-10.61-26.02-19.01
		c-3.15-3.68-3.88-7.17-1.66-12c10.61-23.12,20.66-46.5,31.27-69.62C120.85,47.74,120.43,44.78,117.64,41.22z M496.55,496.39
		c-5.96,5.14-11.82,10.19-17.69,15.24c8.94,8.46,17.23,16.31,25.36,24c-4.65,6.13-9.31,11.74-13.37,17.75
		c-7.22,10.7-9.19,15.66-8.62,19.38c13.21-27.15,31.76-48.84,61.08-59.11c-3.36-2.44-7.89-0.99-21.05,7.32
		C513.96,513.02,505.6,505.03,496.55,496.39z M340.19,287.82c-0.71-3.9-2.58-5.83-5.66-5.6c-3.65,0.27-7.6,0.46-10.83,1.96
		c-35.62,16.54-59.2,44-72.23,80.75c-0.97,2.74-1.04,5.91-1.03,8.87c0.01,2.55,1.43,4.37,3.24,4.62c0.76-4.8,0.76-9.42,2.25-13.5
		c7.15-19.57,19.27-35.93,33.93-50.51c10.1-10.05,21.04-19,34.14-24.91C328.92,287.28,334.05,285.35,340.19,287.82z M48.16,103.19
		c-8.89,3.69-14.98,11.98-18.64,22.3c-0.51,1.44-0.06,3.88,0.92,5.05c2.16,2.58,4.95,4.65,6.91,6.41
		c7.4-8.15,14.64-16.12,22.49-24.76C56.54,109.66,52.75,106.73,48.16,103.19z M325.97,239.1c-7.8,6.08-14.04,6.48-22.85-2.12
		c-12.4-12.09-20.52-27.39-28.91-42.33c-2.35-4.19-4.92-6.52-10.81-6.19c10.48,16.31,20.35,32.37,31.05,47.86
		c3.09,4.48,8.16,8.12,13.08,10.7C315.91,251.4,323.43,247.97,325.97,239.1z M85.95,136.3c-5.25,7.01-5.22,7.89,0.46,12.64
		c1.78-1.95,3.56-3.9,5.27-5.78C89.72,140.81,87.94,138.68,85.95,136.3z M63.32,111.05c0.91-0.58,1.84-1.17,3.2-2.04
		c-4.57-2.77-6.71-8.96-13.56-7.12C56.34,104.87,59.59,107.75,63.32,111.05z"/>
	<path class="st0" d="M536.18,536.99c7.14-4.12,13.53-7.83,19.93-11.51c2.21-1.27,3.92-0.6,5.7,1.14
		c28.34,27.56,56.74,55.06,85.11,82.58c4.05,3.93,4.32,6.69,1.3,12.36c0.65,1.01,1.34,2.08,2.07,3.2
		c-21.75,14.04-41.29,30.19-52.54,52.76c-3.38,0-6.07,0.34-8.63-0.09c-2.8-0.47-6.24-0.85-8.12-2.62
		c-28.5-26.98-56.76-54.21-85.17-81.28c-2.53-2.41-2.18-4.52-0.93-7.21c6.07-13.02,14.61-24.21,25.54-34.57
		c29.02,27.96,58.04,55.91,86.18,83.02c-6.83,9.77-13.35,18.93-19.67,28.23c-1.25,1.84-1.98,4.15-2.46,6.35
		c-0.25,1.17,0.56,2.56,1.13,4.77c10.48-24.13,26.46-41.45,48.11-53.52c3.71-2.07,8.12-2.9,12.37-4.37
		c-0.49-2.92-1.53-3.95-4.96-2.58c-5.66,2.27-11.09,5.1-17.23,7.98C595.34,594.07,566.22,565.97,536.18,536.99z M646.93,621.24
		c-14.52,3.19-24.44,11.89-34.04,21.51c1.31,1.4,2.26,2.41,2.87,3.06C626.03,637.72,636.07,629.8,646.93,621.24z M610.29,650.25
		c-1.82,0.31-3.65,0.09-4.15,0.8c-4.39,6.3-8.65,12.7-12.72,19.21c-1.36,2.17-0.18,3.61,1.48,3.97
		C599.95,666.36,604.71,658.95,610.29,650.25z"/>
	<path class="st0" d="M620.26,651.24c15.88,15.34,31.41,30.34,47.07,45.47c-8.25,9.27-15.96,18.58-20.1,30.63
		c1.02,0.21,1.68,0.36,2.35,0.47c0.53,0.09,1.06,0.14,1.27,0.17c11.4-23.16,28.37-40.16,51.92-52.03c-1.32-0.3-2.9-1.22-3.92-0.8
		c-4.74,1.95-9.32,4.27-14.69,6.81c-15.31-14.82-31.1-30.11-47.42-45.91c3.7-2.2,6.99-4.06,10.19-6.08
		c2.42-1.52,5.39-1.66,7.38-4.59c1.44-2.13,4.44-1.03,6.63,1.16c12.96,12.96,26.07,25.78,39.13,38.64c2.14,2.11,4.43,4.09,6.41,6.34
		c1.08,1.22,2.29,2.88,2.32,4.36c0.09,4.15,2.4,6.72,5.14,9.34c7.96,7.64,16,15.21,23.56,23.22c5.02,5.32,9.16,11.41,14.71,16.38
		c1.56,1.4,0.8,5.38,0.99,7.14c-3.86,0.66-6.92,0.47-9.22,1.69c-15.15,8.04-27.22,19.4-35.16,34.73c-1.33,2.57-1.39,5.8-2.18,9.39
		c-5.14,2.31-6.06,2.09-10.85-2.44c-1.26-1.19-3.19-1.67-4.44-2.86c-1.81-1.71-3.28-3.76-4.5-5.89c-1.8-1.24-3.8-2.27-5.37-3.76
		c-8.6-8.2-17.06-16.56-25.68-24.73c-1.12-1.07-2.92-1.42-4.41-2.1c-3.15-1.45-6.93-2.23-9.35-4.47
		c-14.6-13.52-28.83-27.46-43.34-41.07c-2.95-2.77-3.3-5.36-1.58-8.71C602.94,670.42,610.78,660.67,620.26,651.24z M719.56,721.24
		c-9.49-10.15-18.86-20.18-28.71-30.71c-5.65,5.01-10.69,9.49-14.92,13.24c10.03,10.69,19.61,20.89,29.11,31.01
		C710.4,729.78,715.21,725.3,719.56,721.24z M702.55,774.34c2.69-5.11,5.29-9.82,7.67-14.63c1.34-2.71,2.32-5.59,3.47-8.42
		c1.33-0.77,3.14-1.56,4.66-2.73c7.18-5.55,12.41-13.71,21.93-16.14c2.91-0.74,5.72-1.89,8.96-2.98c-0.19-0.82-0.5-2.12-0.89-3.79
		c-3.38,1.34-6.25,2.53-9.16,3.63c-5.19,1.97-12.61-3.7-12.29-10.31c-2.04,1.75-3.61,3.1-5.17,4.45
		c-7.23,6.22-14.52,12.38-21.68,18.7c-5.02,4.43-9.57,9.26-10.81,16.36c3.94-4.66,7.87-9.32,11.97-14.17
		c2.24,2.11,3.7,3.69,5.37,5.01c2.85,2.26,3.18,4.67,1.16,7.69c-2.53,3.8-4.88,7.72-7.44,11.81c-3.06-2.45-5.97-4.78-9.18-7.35
		C690.83,765.09,698.08,772.59,702.55,774.34z"/>
	<path class="st0" d="M433.27,441.34c-1.61-0.95-3.67-1.71-5.13-3.1c-18.68-17.74-37.28-35.57-55.88-53.4
		c-4.54-4.35-4.31-6.35,1.2-9.78c5.46-3.4,10.91-6.83,16.51-9.98c4.44-2.5,8.4-2.02,12.36,1.83c18.46,17.97,37.16,35.7,55.74,53.55
		c3.6,3.46,3.36,5.33-0.97,7.95c-6,3.62-12.03,7.19-18.12,10.66C437.38,439.98,435.55,440.45,433.27,441.34z"/>
	<path class="st0" d="M307.61,124.22c15.71,4.67,31.76,7.53,46.25,15.54c2.84,1.57,3.03,3.06,0.79,5.22
		c-5.42,5.24-5.41,5.25-7.28,10.27c-6.15-2.52-12.32-5.04-19.06-7.79c0.41-2.13,0.62-4.83,1.47-7.32c1.06-3.06-0.26-4.07-2.9-4.79
		c-11.86-3.22-11.85-3.26-15.02,9.17c-5.35,0-10.76,0-16.5,0c0.42-1.78,0.98-3.4,1.15-5.06c0.11-1.13,0.01-2.54-0.59-3.43
		c-4.7-6.96-4.65-7.3,2.14-10.29c-1.25-1.5-3.57-3.08-3.67-4.78c-0.08-1.36,2.54-2.89,3.98-4.36c-3.56-3.78-3.52-4,1.73-7.66
		c-3.31-4.91-2.45-6.16,3.59-7.4c13.39-2.76,25.74,1.77,38.17,5.23c5.98,1.67,11.64,4.65,17.24,7.45c1.28,0.64,1.72,2.97,2.55,4.52
		c-1.95,0.08-4.31,0.91-5.77,0.1c-9.44-5.2-18.99-10.04-29.86-11.31c-3.57-0.42-7.22-0.07-10.84-0.07c-0.03,0.37-0.07,0.74-0.1,1.12
		c7.36,1.91,14.64,4.22,22.09,5.63c7.44,1.41,14.39,3.65,20.48,8.15c1.13,0.84,1.65,2.5,2.45,3.78c-1.84,0.48-4.04,1.85-5.45,1.28
		c-6.74-2.74-13.17-6.22-19.89-9.02c-6.65-2.77-13.59-4.05-21.78-1.72c11.22,2.88,21.55,5.29,31.72,8.27
		c4.04,1.18,7.86,3.39,11.47,5.62c1.05,0.65,1.05,3.01,1.54,4.59c-1.89,0.3-4.09,1.38-5.61,0.77c-8.03-3.25-15.64-7.83-23.9-10.17
		C321.71,123.91,314.5,124.63,307.61,124.22z"/>
	<path class="st0" d="M125.18,198.37c9.03,8.29,17.9,16.37,26.64,24.58c0.63,0.59,0.86,2.46,0.41,3.22
		c-6.76,11.41-13.67,22.74-20.89,34.66c-5.69-5.1-10.79-9.61-15.84-14.19c-4.23-3.84-8.49-7.66-12.53-11.7
		c-0.86-0.86-1.58-3.04-1.1-3.9c6.18-11.09,11.99-22.46,21.49-31.27C123.77,199.38,124.25,199.08,125.18,198.37z"/>
	<path class="st0" d="M730.23,769.12c8.24,7.86,16.3,15.55,24.36,23.24c4.14,3.96,8.54,7.69,12.33,11.96
		c3.4,3.84,7.14,3.11,11.9,2.27c-4.69-3.7-9.12-6.72-12.99-10.34c-12.74-11.94-25.27-24.09-37.99-36.27
		c-2.7,2.15-3.5,4.84-1.83,8.05c1.45,2.77,0.44,4.6-1.96,6.05c-2.56,1.55-4.99,3.39-7.7,4.6c-4.2,1.88-6.42,0.32-5.42-4.03
		c0.84-3.67,2.27-7.43,4.33-10.57c7-10.71,16.23-19.21,27.47-25.38c2.09-1.15,4.48-2,6.83-2.36c4.04-0.62,5.8,1.64,4.1,5.36
		c-1.77,3.88-4.07,7.52-6.4,11.74c12.25,11.75,24.76,23.87,37.44,35.81c2.23,2.1,3.21,4.05,2.58,7.07
		c-0.67,3.22-0.83,6.34,1.47,9.38c0.74,0.98,0.11,4.03-0.94,5.07c-1.06,1.05-3.97,1.64-5.12,0.92c-2.88-1.82-5.45-1.79-8.5-0.89
		c-3.67,1.07-6.66,0.15-9.61-2.79c-11.27-11.2-22.82-22.12-34.36-33.05C728.21,773.05,727.23,771.53,730.23,769.12z M781.52,802.45
		c0.91-3.09,1.82-6.18,2.72-9.27c-0.53,0.1-1.05,0.2-1.58,0.3c-1.64-1.08-3.49-1.93-4.9-3.26c-13.65-12.84-27.22-25.76-41.1-38.94
		c-2.18,1.91-4.15,3.63-6.38,5.58c17.39,15.37,31.9,33.04,50.62,46.15c1.27,1.93,2.54,3.85,3.8,5.78c0.48-0.35,0.96-0.69,1.43-1.04
		C785.98,805.01,784.84,802.95,781.52,802.45z M745.67,754.82c0.39-0.47,0.78-0.95,1.17-1.42c-1.41-1.68-2.81-3.36-4.37-5.23
		c-0.96,0.8-1.78,1.5-2.99,2.51C741.75,752.2,743.71,753.51,745.67,754.82z"/>
	<path class="st0" d="M341.16,180.89c-8.01-0.35-14.33-3.63-20.25-7.73c-0.85-0.59-1.34-2.38-1.22-3.54c0.23-2.4,0.99-4.75,1.5-7.12
		c1.77-8.28,4.82-10.26,12.96-8.05c5.63,1.53,10.58,4.31,14.4,8.86c1.57,1.87-1.45,16.53-3.71,17.27
		C343.52,181.01,342,180.83,341.16,180.89z"/>
	<path class="st0" d="M358.74,111.78c-16.78-12.91-35.39-14.41-55.03-11.75c1.01-4.63,4.58-5.64,7.59-5.77
		c6.78-0.29,13.8-0.65,20.36,0.73c7.44,1.58,14.58,4.82,21.66,7.77C356.48,104.08,358.85,106.69,358.74,111.78z"/>
	<path class="st0" d="M344.01,192.95c-2.17-3.02-4.19-5.85-6.54-9.12c3.33-0.16,6.71-0.32,10.72-0.52
		c1.14-4.97,2.83-10.68,3.58-16.52c0.28-2.15-1.67-4.59-2.6-6.88c4.45,1,7.16,4.85,6.25,9.08c-1.08,5.02-2.52,9.97-3.33,15.03
		C351.28,189.15,348.1,191.6,344.01,192.95z"/>
	<path class="st0" d="M326.43,181.08c-7.67-1.52-15.34-3.04-23.51-4.66C312.83,171.08,316.84,171.81,326.43,181.08z"/>
	<path class="st0" d="M311.72,145.52c6.55,1.39,13.09,2.79,19.64,4.18c-0.09,0.42-0.18,0.85-0.27,1.27
		c-7.16,1.83-13.6-0.09-19.64-4.05C311.54,146.46,311.63,145.99,311.72,145.52z"/>
	<path class="st0" d="M66.13,213.02c-1.9-5.68-3.79-11.35-5.69-17.03c0.49-0.26,0.98-0.51,1.47-0.77c2.79,2.56,6.49,4.67,8.07,7.84
		c1.14,2.27-0.44,5.99-1.12,8.99c-0.11,0.47-1.88,0.55-2.88,0.82C65.99,212.87,66.13,213.02,66.13,213.02z"/>
	<path class="st0" d="M81.88,187.54c-2.33,3.12-4.67,6.24-7.44,9.95c-3.57-3.13-7.32-6.41-12.02-10.52
		c5.6-1.79,10.15-3.71,14.9-4.63c3.59-0.69,4.25,2.45,4.4,5.34C81.73,187.69,81.88,187.54,81.88,187.54z"/>
	<path class="st0" d="M161.98,12.56c7.54,0.86,14.24,3.13,19.92,7.89c5.71,4.79,11.37,9.65,16.75,14.79
		c1.98,1.89,3.55,4.52,4.5,7.11c2,5.46-0.26,10.3-5.49,12.68c-4.95,2.25-10.1,4.11-14.9,6.63c-11.88,6.24-23.24,4.36-33.68-2.72
		c-6.81-4.63-13.02-10.34-18.78-16.27c-6.35-6.54-4.06-15.9,4.2-19.65c6-2.72,11.99-5.46,18.1-7.9
		C155.59,13.93,158.84,13.39,161.98,12.56z"/>
</g>
</svg>
