<?xml version="1.0" encoding="utf-8"?>
<!-- Generator: Adobe Illustrator 24.1.2, SVG Export Plug-In . SVG Version: 6.00 Build 0)  -->
<svg version="1.1" id="Injetor" xmlns="http://www.w3.org/2000/svg" xmlns:xlink="http://www.w3.org/1999/xlink" x="0px" y="0px"
	 viewBox="0 0 812 812" style="enable-background:new 0 0 812 812;" xml:space="preserve">
<style type="text/css">
	.st0{fill:#111825;}
</style>
<g>
	<path class="st0" d="M639.89,598.05c2.32,2.84,4.39,5.37,6.45,7.92c1.7,2.11,3.19,4.21,2.67,7.27c-0.16,0.94,0.97,2.23,1.74,3.16
		c3.11,3.71,6.31,7.35,9.47,11.01c-0.22,0.19-0.44,0.38-0.65,0.57c0.21,0.06,0.5,0.23,0.63,0.15c4.28-2.5,7.51-1.17,9.94,2.79
		c2.97,4.83,6.76,5.95,11.98,3.39c5.04-2.47,9.36-1.33,12.9,3.32c2.47,3.24,5.35,6.22,8.35,8.98c2.82,2.59,3.52,5.47,2.21,8.83
		c-1.58,4.05-0.92,7.08,2.6,9.99c3.58,2.96,6.55,6.66,9.78,10.04c2.14,2.24,4.05,4.22,7.63,4.87c2.47,0.45,4.54,3.71,6.54,5.93
		c3.77,4.19,3.7,4.27,9,1.93c12.29-5.43,24.58-10.88,36.87-16.3c4.23-1.86,7.4-1.5,10.49,1.97c6.69,7.51,13.2,15.18,19.61,22.93
		c2.49,3.01,2.42,8.33,0.07,11.52c-6.67,9.03-13.36,18.05-20.24,26.91c-1.29,1.66-3.31,3.04-5.29,3.81
		c-12.74,4.96-25.57,9.68-38.34,14.57c-1.11,0.42-2.23,1.27-2.92,2.22c-10.91,14.89-24.83,26.36-40.84,35.26
		c-8.82,4.9-13.44,3.9-20.55-3.37c-8.67-8.86-17.22-17.84-25.82-26.78c-0.49-0.51-1.15-0.97-1.37-1.58
		c-3.3-9.08-11.6-14.08-17.3-21.19c-1.45-1.81-3.14-3.44-4.81-5.25c-1.25,0.47-2.42,0.97-3.62,1.35c-3.61,1.14-6.81,0.84-9.53-2.25
		c-3.25-3.68-6.55-7.35-10.12-10.71c-3.11-2.93-4.43-6.35-2.7-10.08c2.94-6.33,2-11.16-3.34-15.84c-1.5-1.32-0.93-4.95-1.42-7.49
		c-0.24-1.24-0.41-2.78-1.21-3.59c-27.97-28.27-56.02-56.47-84.06-84.68c-1.98-1.99-3.97-3.97-5.93-5.98
		c-3.31-3.41-6.44-6.77-11.5-8.01c-2.87-0.7-5.58-2.95-7.83-5.07c-6.29-5.95-12.38-12.1-18.34-18.37c-1.43-1.51-2.65-3.71-2.91-5.73
		c-0.33-2.58-1.53-4.18-3.26-5.85c-5.98-5.77-12-11.51-17.63-17.6c-1.86-2.01-2.59-5.07-3.84-7.64c-1.24-2.55-1.92-5.64-3.8-7.55
		c-50.49-51.42-101.11-102.7-151.67-154.03c-18.64-18.92-37.18-37.92-55.85-56.81c-1.01-1.02-2.77-1.76-4.21-1.81
		c-5.31-0.19-10.19-1.27-14.09-5.19c-0.16-0.17-0.3-0.44-0.5-0.48c-8.67-1.94-12.12-10.12-18.17-15.2c-1.07-0.9-1.85-2.13-2.92-3.03
		c-4.71-3.97-8.11-8.56-8.58-15.05c-0.12-1.64-1.47-3.46-2.73-4.72c-10.65-10.68-21.38-21.28-32.18-31.81
		c-0.6-0.58-2.11-0.75-2.96-0.45c-4.73,1.7-9.48,3.39-14.04,5.47c-16.15,7.38-29.94-4.22-33.91-15.99
		c-4.46-13.26-0.18-23.13,13.95-30.99c-5.74-6.06-11.4-12.07-17.09-18.04c-3.23-3.39-6.67-6.59-9.71-10.13
		c-1.76-2.04-3.6-2.29-6.1-2.29c-3.67,0.01-7.48-0.26-10.98-1.27c-2.28-0.66-4.48-2.53-6.09-4.4c-6.46-7.52-12.29-15.6-19.07-22.8
		c-6.98-7.43-9.25-15.37-5.94-25.03c0.36-1.05-0.23-2.95-1.05-3.79c-8.41-8.62-17.02-17.06-25.43-25.68
		c-1.39-1.42-2.5-3.36-3.12-5.26c-2.4-7.33-4.59-14.73-6.74-22.14c-0.4-1.38-0.72-3.13-0.22-4.37c4.58-11.59,12.64-19.78,24.46-24
		c4.34-1.55,7.95-0.51,11.4,2.93c13.01,12.96,26.31,25.63,39.44,38.47c1.53,1.5,2.83,2.03,4.88,1.04c7.97-3.86,15.9-2.79,23.68,0.62
		c1.34,0.59,2.55,1.62,3.63,2.65c7.39,7,14.53,14.27,22.15,21.01c6.39,5.64,7.73,12.24,5.16,19.89c-0.72,2.14-0.34,3.34,1.2,4.82
		c10.4,9.94,20.68,19.98,31.09,29.91c0.78,0.74,2.38,1.42,3.26,1.12c4.32-1.45,7.95,0.3,11.79,1.79c1.69,0.66,3.84,0.97,5.57,0.56
		c19.86-4.76,39.62-9.92,59.52-14.51c16.8-3.88,34.63,4.18,41.93,18.33c2.23,4.32,2.87,8.86,1.92,13.62
		c-1.34,6.76-5.63,16.32-9.82,21.82c3.25,1.38,6.42,2.76,9.6,4.08c3.9,1.62,6.61,4.23,7.7,8.46c1.02,3.96,2.54,7.8,3.35,11.8
		c1.14,5.62,0.33,10.89-3.88,15.31c-4.44,4.66-8.63,9.55-13.09,14.18c-1.28,1.33-3.11,2.13-5.2,2.59c-0.26,0.98-0.29,2.12-0.84,2.9
		c-1.22,1.71-0.84,2.95,0.62,4.21c2.58,2.22,3.34,4.74,1.85,8.07c-1.11,2.47-0.62,4.78,1.56,6.94c9.72,9.64,19.34,19.37,28.84,29.22
		c3.51,3.64,7.19,5.76,12.41,4.21c1-0.3,2.78,0.13,3.44,0.89c2.67,3.07,5.49,3.21,7.66,1.71c1.69-2.71,2.57-4.75,4-6.28
		c4.8-5.12,9.7-10.15,14.73-15.04c4.51-4.4,10.01-5.97,16.12-4.3c4.27,1.17,8.52,2.57,12.54,4.41c2.21,1.01,4.96,2.77,5.67,4.82
		c2.32,6.66,4.15,13.55,5.52,20.48c0.79,4.02-0.99,7.83-3.76,10.94c-4.67,5.24-9.31,10.51-14.14,15.6
		c-1.18,1.24-3.05,1.84-5.38,3.18c-1.5,2.01-0.94,4.38,1.71,6.51c1.89,1.51,2.12,3.4,1.18,5.63c-1.57,3.7-0.91,6.58,2.31,9.55
		c7.3,6.74,14.15,13.97,21.11,21.07c3.32,3.39,6.8,5.55,11.83,3.67c1.14-0.43,2.93,0.25,4.19,0.88c1.65,0.82,3.07,2.11,4.53,3.15
		c1.89-0.82,3.66-1.59,5.89-2.56c-0.68-4.24,2.65-6.69,5.44-9.48c4.3-4.3,8.57-8.64,12.88-12.92c3.66-3.64,8.26-5.2,13.18-4.2
		c5.24,1.06,10.4,2.74,15.39,4.68c3.82,1.48,6.45,4.45,7.52,8.67c1.18,4.64,2.87,9.15,3.97,13.8c1.39,5.9-0.3,11.05-4.51,15.44
		c-4.37,4.56-8.61,9.25-12.95,13.83c-1.8,1.91-3.27,4.11-6.51,4.27c-1.04,0.05-1.96,2.49-3.01,3.93c0.98,1.19,1.76,2.21,2.61,3.15
		c1.45,1.59,2.01,3.15,1.18,5.4c-1.24,3.4-0.66,6.3,2.25,9.11c10.5,10.17,20.78,20.57,31.02,31.01c3.27,3.34,6.72,4.7,11.35,3.3
		c1.26-0.38,3.45,0.07,4.32,0.98c3.21,3.39,6.3,5.52,10.65,0.91c-0.97-3.43,1.72-5.67,4.13-8.1c4.69-4.74,9.3-9.55,14.01-14.28
		c4.92-4.94,10.68-6.96,17.57-4.83c1.78,0.55,3.61,0.96,5.36,1.62c4.89,1.84,10.84,2.79,13.05,8.05c3.22,7.68,6.96,15.58,4.89,24.29
		c-0.72,3.05-2.38,6.15-4.42,8.55c-4.84,5.7-10.16,10.99-15.29,16.44c-0.32,0.34-0.67,0.88-1.04,0.9c-4.4,0.26-5.07,4.32-7.46,7.28
		c2.55,2.85,5.15,5.75,7.98,8.92c6.41-5.92,12.52-11.51,18.54-17.2c0.99-0.93,1.67-2.26,2.28-3.51c4.2-8.73,10.23-15.86,18.16-21.44
		c2.96-2.08,5.74-4.43,8.51-6.77c8.41-7.12,17.7-8.43,27.79-4.22c12.52,5.23,20.64,19.55,18.55,32.65
		c-0.98,6.11-4.45,11.01-8.13,15.71c-6.77,8.65-13.68,17.2-20.56,25.76c-2.27,2.82-3.59,5.92-3.69,9.6
		c-0.11,4.06-1.57,7.47-5.16,9.8c-1.35,0.88-2.47,2.11-3.92,3.37c3.7,3.93,7.27,7.72,10.86,11.53c3.16-2.06,6.2-3.86,5.64-8.43
		c-0.14-1.16,1.18-2.72,2.17-3.78c4.21-4.53,8.54-8.95,12.84-13.4c0.4-0.42,0.83-0.96,1.34-1.11c5.73-1.67,8.1-6.71,11.2-11.03
		c0.74-1.03,1.71-1.91,2.67-2.75c4.17-3.67,9.07-6.77,12.42-11.08c5.85-7.52,14.48-6.57,20.83-3.19c7.02,3.73,11.28,12.4,9.3,19.78
		c-0.71,2.65-2.7,5.03-4.4,7.31c-3.31,4.46-6.75,8.83-10.29,13.11c-1.68,2.03-3.71,3.78-5.61,5.63c-2.78,2.7-5.61,5.34-8.35,8.08
		c-0.81,0.81-1.31,1.94-2.12,2.75c-4.02,4-7.99,8.06-12.23,11.82c-1.44,1.28-3.67,2.55-5.44,2.41c-3.23-0.24-5.24,0.94-7.05,3.28
		C642.28,595.61,641.09,596.74,639.89,598.05z M662.38,539.02c0.47,3.29,2.15,1.6,3.19,0.6c4.07-3.91,8.01-7.95,12.06-12.01
		c4.33,5.35,8.19,12.11,17.25,11.99c0.78-5.43-0.71-9.91-4.39-13.55c-3.72-3.68-8.31-5.24-13.45-3.86c-1.14,0.31-1.94,2.09-2.75,3.3
		c-0.49,0.72-0.49,1.82-1.06,2.42c-3.59,3.79-7.28,7.49-10.94,11.22c-0.44-1.37-0.89-3.05-2.74-1.73c-0.83,0.59-1.19,1.94-1.56,3.02
		c-0.35,1.01-0.06,2.45-0.67,3.12c-2.45,2.66-4.99,5.28-7.82,7.5c-1.04,0.82-3.53-0.04-4.36,0.82c-1.04,1.09-0.54,3.7-1.6,4.72
		c-4.35,4.17-9.05,7.99-13.61,11.93c0.27,0.39,0.55,0.78,0.82,1.17c0.81,1.47,1.62,2.95,2.55,4.64c1.77-1.4,4.15-1.88,2.64-4.7
		c-0.21-0.38,0.22-1.37,0.64-1.78c3.13-3.08,6.33-6.08,9.58-9.17c2.33,1.64,2.47,6.04,7.47,5.55c-1.35-1.99-2.58-3.36-3.28-4.95
		c-0.51-1.16-0.96-3.19-0.36-3.87c3.09-3.47,6.53-6.63,9.91-9.97c1.39,1.27,2.69,2.61,4.18,3.71c0.47,0.34,1.43,0.01,2.17-0.02
		c-0.09-0.64,0.03-1.43-0.3-1.89c-1.15-1.62-2.67-3.01-3.6-4.73C661.88,541.6,662.34,540.19,662.38,539.02z M612.47,681.45
		c-4.25-1.06-8.79,3.52-8.18,9.28c3.02-3.43,5.63-6.42,8.25-9.4c-1.18,4.91-2.15,9.96-8.52,11.69c2.82,3.01,5.09,5.67,7.66,8
		c0.65,0.59,2.59,0.65,3.33,0.11c5.37-3.9,10.61-7.98,15.82-12.09c2.57-2.02,5.01-4.22,7.51-6.34c0.24,0.28,0.47,0.55,0.71,0.83
		c-6.75,6.54-13.51,13.07-20.25,19.62c-2.25,2.19-4.63,3.09-7.7,0.74c-0.9,2.84-1.66,5.4-2.53,7.92c-0.9,2.61-0.29,4.62,1.71,6.59
		c3.34,3.27,6.54,6.7,9.58,10.25c2.02,2.36,4.32,2.87,6.81,1.48c4.87-2.72,9.57-5.73,14.36-8.59c1.05-0.62,2.19-1.09,3.28-1.64
		c0.28,0.41,0.56,0.82,0.84,1.23c-3.55,3.05-7.11,6.1-10.79,9.26c0.24,0.42,0.46,0.95,0.8,1.39c6.79,8.91,15.28,16.22,21.89,25.51
		c7.99,11.22,18.84,20.41,28.48,30.45c2.08,2.16,4.62,2.53,6.69,2.04c-2.28-1.59-5.06-2.98-7.12-5.07
		c-8.13-8.24-16.04-16.7-24.01-25.1c-0.75-0.79-1.34-1.74-2.16-2.82c17.4-6.82,30.09-19.41,42.88-31.61
		c0.92,4.59,1.36,8.81,2.63,12.77c3.05,9.51,8.98,16.59,18.66,20c4.89,1.72,11.91,0.11,14.02-3.07c-1.02-0.36-2.04-0.73-4.04-1.43
		c14.59-5.5,28.3-10.67,42.01-15.85c-0.09-0.33-0.17-0.67-0.26-1c-0.91,0.15-1.88,0.15-2.72,0.48
		c-13.59,5.34-27.15,10.77-40.76,16.05c-1.53,0.59-3.48,0.9-5.04,0.52c-10.5-2.58-19.63-17-17.77-28.07
		c15.42-6.41,30.95-12.87,46-19.13c1.51,3.69,2.12,7,3.95,9.35c4.66,5.99,9.66,11.74,14.92,17.22c4.23,4.41,8.44,3.83,12.08-1.06
		c6.3-8.43,12.56-16.89,18.85-25.34c1.9-2.56,1.84-6.17-0.27-8.64c-5.7-6.67-11.42-13.32-17.17-19.95
		c-3.66-4.22-7.12-4.11-10.74,0.19c-6.02,7.16-12.06,14.31-18.13,21.43c-0.57,0.67-1.35,1.29-2.16,1.63
		c-14.35,5.95-28.73,11.87-43.1,17.76c-1.18,0.49-2.44,0.81-3.66,1.2c4.4-6.73,8.99-12.93,13.91-18.86c2.65-3.19,5.87-5.9,8.57-8.57
		c-1.57,0.42-4.01,1.08-7.38,1.99c1.07-2.76,1.7-4.37,2.31-5.99c0.8-2.12-0.57-4.83-2.66-4.53c-2.9,0.41-4.28-1.29-5.88-2.96
		c-4.2-4.4-8.38-8.82-12.6-13.2c-1.25-1.29-2.63-2.45-3.85-3.58c-2.41,2.75-4.51,5.15-6.61,7.55c-0.35-0.28-0.7-0.55-1.05-0.83
		c0.81-1.61,1.61-3.23,2.42-4.84c-0.34-0.32-0.69-0.65-1.03-0.97c-1.86,1.54-3.9,2.92-5.56,4.66c-6.68,7.02-13.18,14.2-19.88,21.19
		c-1.33,1.39-3.27,2.2-4.94,3.27c-1.61,1.04-2.77,0.77-4.21-0.69c-3.75-3.8-7.77-7.33-11.34-10.67
		c3.56-10.26,18.74-24.87,31.16-32.01c3.57,3.74,7.15,7.57,10.82,11.31c2.78,2.83,7.48,1.73,8.94-2.03
		c2.04-5.26,3.12-10.34-2.63-14.18c-0.57-0.38-1.06-0.95-1.43-1.53c-4.54-7.22-10.61-9.03-18.29-5.22c-0.2,0.1-0.39,0.24-0.59,0.36
		c-0.58,4.08-4.35,9.2-8,9.96c1.28-2.07,2.21-3.76,3.32-5.31c1.46-2.03,1.48-3.8-0.38-5.59c-1.85-1.78-3.64-3.64-5.39-5.52
		c-2.66-2.86-6.76-2.45-9.03,0.75c-8.21,11.54-17.06,22.57-27.51,32.16C624.59,671.64,618.44,676.44,612.47,681.45z M254.15,270.58
		c13.64,13.45,27.09,26.7,40.34,39.77c6.61-4.1,13.32-8.26,20.06-12.43c-0.76-0.66-1.76-1.42-2.63-2.3
		c-10.3-10.37-20.47-20.89-30.94-31.09c-3.64-3.55-4.84-7.2-3.26-11.95c0.3-0.89,0.5-2.33,0.02-2.86c-2.54-2.8-5.32-5.38-8.01-8.04
		c-0.33,0.03-0.67,0.06-1,0.09c2.65,5.16,2.34,9.72-2.26,13.47c2.05-0.14,3.74-0.59,5.46-0.73c2.89-0.24,2.42,1.55,1.99,3.52
		c-10.6-0.78-18.23,5.97-26.9,10.24c0.7-1.59,1.61-2.76,2.72-3.68c5.12-4.26,10.47-8.24,15.38-12.72c3.87-3.53,3.67-5.68,0.08-9.47
		c-4.34-4.59-8.71-9.15-13.09-13.7c-5.08-5.29-10.18-10.55-15.38-15.94c1.01-0.83,1.64-1.35,2.44-2c-1.42-1.31-2.67-2.36-3.79-3.54
		c-4.5-4.74-9.01-9.47-13.38-14.32c-0.71-0.78-0.77-2.14-1.13-3.23c0.35-0.15,0.7-0.29,1.05-0.44c4.73,4.7,9.45,9.4,14.18,14.11
		c0.32-0.33,0.65-0.65,0.97-0.98c-3.31-3.69-6.61-7.38-9.91-11.06c6.71-6.58,13.53-5.97,17.48,1.33c0.06,0.11,0.33,0.1,1.62,0.46
		c-1.86-3.32-3.32-5.92-4.91-8.76c3.98-1.34,7.83-2.62,11.66-3.96c1.24-0.44,2.83-0.72,3.57-1.64c2.86-3.53,5.97-6.16,10.68-7.28
		c5.53-1.32,10.87-3.56,16.15-5.74c1.39-0.57,2.7-2.21,3.31-3.67c2.99-7.12,0.21-13.2-4.52-18.27
		c-9.71-10.4-21.71-14.15-35.68-10.87c-6.13,1.44-12.21,3.13-18.32,4.64c-13.6,3.36-27.26,6.49-40.78,10.15
		c-2.72,0.74-4.51,0.66-6.66-0.91c-3.1-2.28-6.62-3.02-10.26-1.46c-7.38,3.17-14.82,6.22-21.99,9.81c-4.19,2.1-4.34,5.32-1.01,8.79
		c8.43,8.77,16.87,17.54,25.49,26.12c1.17,1.17,3.68,2.09,5.16,1.67c9.39-2.68,17.97-7.16,25.68-13.13
		c2.52-1.95,2.36-6.35,0.09-8.87c-3.21-3.56-6.57-6.99-9.88-10.45c-2.14-2.23-4.32-4.41-6.47-6.61c1.89-1.95,3.13-1.86,4.68-0.17
		c4.6,4.99,9.55,9.66,13.99,14.78c2.35,2.7,3.93,6.06,5.86,9.12c-0.22,0.16-0.43,0.32-0.65,0.47c-0.89-0.45-1.78-0.9-2.13-1.07
		c-1.86,2.44-3.07,5.32-5.22,6.59c-7.42,4.4-14.93,8.84-22.89,12.09c-5.52,2.25-11.22,1.83-15.99-3.76
		c-6.82-7.99-14.56-15.2-21.86-22.78c-1.35-1.4-2.49-2.99-3.39-4.09c-8.75,4.04-15.15,10.49-18.6,20.83
		c1.84-0.96,3.03-1.37,3.95-2.11c4.2-3.39,8.81-4.02,13.81-2.22c10.28,3.72,18.92,16.72,19.17,28.76
		c0.12,5.93-1.87,11.08-5.83,15.67c2.26-0.21,4.24-0.94,6.28-1.1c3.9-0.32,6.05-2.51,8.08-5.68c6.92-10.78,16.49-18.75,27.76-24.65
		c5.92-3.1,12.13-5.81,19.07-4.85c1.75,0.24,3.33,1.64,4.99,2.5c-0.15,0.32-0.31,0.63-0.46,0.95c-11.74-1.01-21.64,3.25-31.09,10.56
		c19.92,20.14,39.51,39.96,59.27,59.93c-1.73,1.42-3.04,2.51-3.95,3.26c-20.44-19.84-40.63-39.42-60.99-59.19
		c-0.89,0.93-2.06,2.17-3.32,3.49c0.93,0.98,1.64,1.75,2.37,2.49c18.13,18.43,36.22,36.89,54.44,55.24
		c2.53,2.54,4.23,4.84,2.03,8.34c-0.08,0.13,0.1,0.43,0.34,1.37c1.75-0.49,3.49-0.98,5.24-1.48c14.61,14.21,29.4,28.59,44.28,43.06
		c0.85-1,1.89-2.22,3.23-3.81c-13.66-13.8-27.18-27.47-40.9-41.33C250.89,272.7,252.33,271.76,254.15,270.58z M602.78,565.21
		c6.95-6.32,14.53-12.08,12.41-23.27c-8.8,4.21-17.79,8.51-26.84,12.84c-4.64-4.52-9.58-9.29-14.47-14.11
		c-2.59-2.55-6.18-4.67-3.91-9.92c-5.77,4.24-8.38,0.08-11.32-3.1c-0.87-0.94-1.69-1.94-2.6-2.85c-3.22-3.21-6.26-6.65-9.77-9.5
		c-4.67-3.79-10.12-6.68-14.53-10.72c-8.17-7.51-15.84-15.58-23.69-23.44c-0.66-0.66-1.16-1.49-1.73-2.24
		c0.23-0.31,0.46-0.63,0.69-0.94c1.46,0.7,3.21,1.08,4.33,2.14c5.71,5.36,11.2,10.95,16.87,16.36c4.65,4.43,9.43,8.74,14.2,13.05
		c1.89,1.71,3.27,1.34,3.96-1.06c-9.42-9.27-18.75-18.44-28.08-27.61c-0.74-0.73-1.68-2.15-2.25-2.02
		c-4.52,0.99-6.42-2.73-9.13-4.87c-1.85-1.46-3.25-1.39-4.85,0.25c-1.37,1.41-2.72,2.97-4.39,3.95
		c-10.99,6.44-20.28,14.91-29.19,23.88c-1.9,1.91-1.82,3.26,0.1,5.19c9.83,9.86,19.51,19.86,29.28,29.78
		c37.2,37.74,74.42,75.46,111.62,113.2c3.89,3.95,3.84,3.97,0.04,8c-1.05,1.11-1.98,2.33-2.96,3.5c0.4,0.35,0.8,0.69,1.2,1.04
		c14.24-12.17,26.34-26.6,40.28-39.69c2.44,2.67,4.69,5.15,6.95,7.63c0.28-0.08,0.55-0.16,0.83-0.25c-0.49-1.44-0.61-3.2-1.53-4.26
		c-2.2-2.56-4.81-4.76-7.19-7.17c-0.77-0.78-1.99-1.93-1.84-2.65c0.55-2.5-0.94-3.66-2.45-4.98c-2.12-1.84-4.35-3.58-6.26-5.62
		c-1.26-1.36-2.03-3.17-3.27-5.17c-1.14-0.56-3.19-1.16-4.71-2.4c-2.71-2.21-5.33-4.61-7.56-7.29c-2.73-3.27-4.69-7.21-7.57-10.32
		c-5.48-5.91-11.4-11.42-17.08-17.15c-1.76-1.77-3.34-3.71-5.01-5.57c0.36-0.42,0.71-0.84,1.07-1.26
		C596.95,557.76,598.93,562.58,602.78,565.21z M406.03,382.67c1.23,0.5,2.02,0.81,2.8,1.14c2.07,0.87,4.62,1.24,6.12,2.69
		c10.69,10.46,21.23,21.09,31.68,31.8c3.41,3.49,3.11,9.11-0.77,12.05c-8.15,6.19-14.83,14.86-24.08,15.72
		c-15.05-14.48-29.24-28.14-43.63-41.99c1.67-1.18,3.07-2.16,4.46-3.15c-0.2,0.33-0.41,0.66-0.61,0.98
		c14.34,13.73,28.67,27.45,42.87,41.04c5.59-4.42,11.59-9.08,17.49-13.86c4.21-3.41,4.44-5.92,0.77-9.99
		c-3.13-3.47-6.51-6.72-9.84-10.01c-7.39-7.32-14.8-14.63-22.26-21.89c-0.88-0.85-2.19-2.07-3.11-1.93
		c-3.94,0.64-8.24,0.95-11.62,2.82c-5.59,3.09-10.71,7.12-15.75,11.09c-2.85,2.25-5.15,5.19-7.9,8.03
		c30.88,31.5,61.23,62.46,91.79,93.63c1.5-1.78,2.67-3.16,3.98-4.72c-14.64-14.84-29.05-29.44-43.53-44.11
		c5.08-3.27,5.1-3.29,8.96,0.64c11.64,11.85,23.25,23.73,34.89,35.58c1.37,1.39,2.89,2.65,4.2,3.84
		c8.49-6.45,16.7-12.69,24.14-18.34c-2.65-1.93-5.91-3.74-8.48-6.26c-10.45-10.23-20.6-20.76-31.06-30.98
		c-3.34-3.26-3.96-6.83-3.32-11.14c0.2-1.35-0.25-3.15-1.08-4.21c-2.23-2.84-4.81-5.41-7.29-8.05
		c-10.15-10.8-19.93-21.98-32.36-30.39C410.97,381.03,408.99,381.03,406.03,382.67z M345.22,363.46c0.31-0.28,0.61-0.56,0.92-0.84
		c0.84,1.28,1.51,2.73,2.56,3.81c8.72,8.98,17.59,17.81,26.23,26.86c2.5,2.61,4.26,2.78,7.23,0.51c5.99-4.59,12.38-8.64,18.14-12.6
		c-1.54-1.23-3.88-2.76-5.84-4.69c-7.18-7.05-14.03-14.44-21.4-21.27c-4-3.7-4.95-7.56-3.53-12.56c0.3-1.05-0.11-2.8-0.86-3.59
		c-10.06-10.59-20.26-21.06-30.39-31.59c-1-1.04-1.83-2.24-2.7-3.33c2.19-2.43,3.45-0.72,4.6,0.48
		c7.72,7.99,15.38,16.04,23.07,24.05c0.92,0.96,1.92,1.83,2.93,2.79c2.01-2.56,1.42-4.53-0.3-6.33
		c-8.16-8.51-16.34-16.99-24.35-25.31c-3.12,1.26-5.61,2.36-8.17,3.24c-0.62,0.21-1.78-0.04-2.2-0.51c-3.66-4.2-7.14-3.85-12.4-1.89
		c-12,4.47-21.65,11.58-30.8,21.92c1.48,1,2.92,1.68,3.97,2.75c10.86,10.98,21.74,21.93,32.42,33.08c2.97,3.11,7.98,5.35,5.76,11.59
		c1.98-0.7,3.36-1.2,3.88-1.38c12.6,11.82,24.81,23.28,37.1,34.8c0.39-0.47,1.41-1.71,2.92-3.55
		c-11.67-10.96-23.24-21.82-34.81-32.69c0.37-0.42,0.75-0.84,1.12-1.26C341.97,365.12,343.59,364.29,345.22,363.46z M598.26,489.07
		c3.92,4.23,4.06,6.07,0.95,9.69c-6.02,7.01-12.09,13.96-18.14,20.94c-3.06,3.53-6.2,6.99-9.07,10.67
		c-0.58,0.75-0.59,2.82,0.01,3.46c4.66,4.92,9.64,9.53,14.28,14.47c1.99,2.13,3.68,2.19,6.1,0.95c6.54-3.35,13.13-6.63,19.82-9.68
		c1.59-0.73,3.62-0.48,5.45-0.69c0.13,0.38,0.25,0.75,0.38,1.13c7.83-10.03,15.87-19.9,23.43-30.13c8.84-11.95,8.02-22.6-1.97-33.52
		c-10.72-11.71-26.76-11.02-36.35,1.6c-1.58,2.08-2.93,4.32-4.58,6.79c-0.74-1.2-1.25-2.04-1.77-2.91
		c-5.35,4.05-10.04,8.55-12.87,14.67c-2.69,5.84-6.8,10.49-11.61,14.66c-4.54,3.94-8.91,8.09-13.37,12.15
		c6.71,6.79,6.63,7.9,13.61,0.71c6.43-6.61,12.31-13.76,18.42-20.68C594.54,499.33,599.05,495.8,598.26,489.07z M595.33,673.9
		c-0.59-1.76-0.64-3.12-1.35-3.84c-27.48-27.78-55.01-55.5-82.54-83.23c-18.95-19.1-37.88-38.22-56.9-57.25
		c-2.05-2.05-3.49-4.09-4.17-7c-0.56-2.39-1.75-4.98-3.45-6.71c-25.1-25.52-50.37-50.87-75.51-76.34
		c-36.41-36.88-72.74-73.83-109.12-110.73c-10.43-10.57-20.97-21.03-31.32-31.67c-0.77-0.79-0.81-2.75-0.54-4.02
		c0.72-3.29,0.36-3.75-2.9-3.22c-2.29,0.37-4.57,1.67-6.84-0.69c-12.14-12.67-24.4-25.22-36.62-37.82c-1.37-1.41-2.7-2.86-3.8-4.03
		c-0.13,2.27-0.25,4.32-0.38,6.56c2.28,3.24,5.14,6.79,7.38,10.68c1.25,2.18,1.99,4.25,4.07,6.23c8.03,7.64,15.36,16.01,22.99,24.07
		c3.36,3.54,7.09,6.83,12.34,6.19c4.15-0.51,6.76,1.26,9.43,3.99c32.09,32.76,64.22,65.48,96.39,98.16
		c36.19,36.77,72.4,73.51,108.68,110.19c3.16,3.19,5.33,6.61,6.3,11.05c0.5,2.27,1.73,4.68,3.32,6.37
		c7.36,7.84,14.8,15.62,22.51,23.12c11.05,10.75,21.42,22.1,33.12,32.3c16.45,14.34,30.98,30.85,46.5,46.27
		C566.65,646.13,580.56,659.5,595.33,673.9z M59.25,142.15c1.24-14.64,8.77-25.02,17.5-33.64c-2.11-1.15-4.37-1.88-5.98-3.34
		c-3.72-3.37-7.11-7.1-10.65-10.67c-3.47-3.51-3.49-3.88-0.66-8.18c4.92-7.48,12.7-11.62,19.72-16.58c3.2-2.26,7.79-0.99,10.54,1.81
		c3.6,3.67,6.91,7.73,10.94,10.85c2.53,1.96,6.11,3.36,9.28,3.51c4.15,0.19,8.37-1.12,12.94-1.84c-5.56-5.32-10.87-10.55-16.37-15.6
		c-5.79-5.31-12.46-7.21-20.31-5.27C70.25,67.15,58.38,76.99,47.88,89c-5.94,6.8-7.63,15.12-8.53,23.61
		c-0.29,2.7,0.48,6.19,2.09,8.3C46.88,128.04,52.92,134.7,59.25,142.15z M165.43,143.08c-1.1-0.83-1.79-1.25-2.36-1.8
		c-9.11-8.73-18.55-17.16-27.19-26.34c-5.32-5.65-10.88-6.09-17.41-3.75c-7.02,2.53-12.85,6.72-17.69,12.68
		c11.26,11.63,22.19,22.93,33.16,34.26c-3.45,3.62-7.02,6.73-9.81,10.43c-3.33,4.43-6.09,9.3-8.85,14.12
		c-0.46,0.81,0.34,2.34,0.56,3.53c0.88-0.82,2-1.5,2.57-2.49c0.92-1.6,1.49-3.41,2.19-5.13c3.71-9.07,11.61-14.5,18.41-20.78
		C146.31,151.09,155.44,147.24,165.43,143.08z M130.72,106.46c0.49-2.09,1.04-3.87,1.32-5.69c1.1-7.19-2.93-12.33-10.15-12.45
		c-3.45-0.06-7.18,0.09-10.33,1.31c-5.39,2.09-10.59,4.81-15.56,7.8c-9.39,5.66-17.54,12.85-24,21.77
		c-4.99,6.89-9.05,14.24-8.82,23.14c0.18,6.75,2.7,9.85,9.32,11.03c2.57,0.46,5.29,0.07,7.93,0.07c0.25-5.63-1.02-6.92-6.38-6.67
		c-4.01,0.18-6.74-2.06-5.88-5.85c1.2-5.28,2.67-10.71,5.22-15.42c6.59-12.17,17.13-20.55,28.87-27.39c5-2.91,10.25-5.6,16.35-5.59
		c5.32,0,8.81,3.86,8.03,9.1c-0.21,1.44-0.71,2.84-1.13,4.49C127.26,106.22,128.75,106.32,130.72,106.46z M476.24,373.29
		c-1.93-0.32-3.32-0.13-3.99-0.74c-4.68-4.22-9.44-8.39-13.7-13.02c-3.03-3.3-6.17-4.29-10.16-1.91c5.15,1.97,5.48,3.53,1.52,7.25
		c-5.61,5.28-11.23,10.56-16.9,15.9c1.38,1.82,2.12,2.79,2.82,3.72c6.27-6.23,12.04-11.69,17.46-17.48c2.64-2.82,5.1-2.53,7.6-0.54
		c2.82,2.25,5.36,4.86,7.95,7.38c3.59,3.5,3.68,5.85,0.2,9.58c-4.31,4.61-8.6,9.25-13.18,13.58c-2.22,2.1-1.55,3.56,0.09,5.2
		c1.67,1.68,3.4,2.35,5.38,0.22c3.58-3.85,7.21-7.66,10.93-11.38c2.9-2.89,5.03-5.91,2.72-10.9c1.39,0.82,2.06,1.22,3.38,2.01
		C477.51,378.57,476.81,375.67,476.24,373.29z M571.94,463.77c-2.21-0.15-3.85,0.24-4.56-0.4c-4.8-4.27-9.61-8.56-13.99-13.25
		c-3.22-3.45-5.18-4.11-9.81-1.47c0.55,0.21,0.92,0.36,1.3,0.5c3.92,1.35,4.4,3.35,1.46,6.24c-1.16,1.15-2.43,2.19-3.61,3.33
		c-4.83,4.7-9.64,9.41-14.68,14.34c1.4,1.14,2.26,1.84,2.52,2.05c6.06-5.71,11.88-11.11,17.6-16.63c3.3-3.19,5.52-3.46,8.98-0.39
		c2.71,2.4,5.14,5.12,7.83,7.53c2.51,2.25,2.33,4.71,0.79,7.22c-0.9,1.48-2.17,2.74-3.37,4.02c-4.32,4.57-8.69,9.11-14,14.66
		c1.68,1.72,3.23,3.32,5.06,5.2c4.9-4.95,8.68-8.91,12.6-12.71c3.73-3.62,7.33-7.18,4.7-13.23c0.92,0.76,1.85,1.53,3.6,2.97
		C573.32,469.5,572.52,466.17,571.94,463.77z M361.01,276.35c5.74,2.22,5.86,3.03,1.77,7.08c-5.21,5.16-10.35,10.39-15.72,15.79
		c1.07,0.9,1.92,1.62,2.81,2.37c5.5-5.47,10.8-10.72,16.07-16c2.67-2.67,5.23-2.81,8.07-0.18c2.31,2.14,4.49,4.43,6.75,6.65
		c4.29,4.22,4.35,5.76,0.2,10.17c-4.47,4.75-8.98,9.48-13.76,14.53c1.75,1.83,3.28,3.44,5.07,5.31c4-4.24,7.48-8.18,11.22-11.84
		c3.09-3.03,5.53-6.11,3.53-11.12c1.3,0.44,2.05,0.69,3.37,1.13c-0.72-3.11-1.33-5.69-1.88-8.07c-1.37-0.09-2.78,0.25-3.38-0.3
		c-4.68-4.22-9.52-8.35-13.7-13.04C368.12,275.1,366.18,274.13,361.01,276.35z M280.71,231.68c5.09-5.39,9.62-10.1,14.05-14.9
		c1.84-2,2.11-4.35,0.84-6.83c-0.11-0.21,0.07-0.56,0.16-1.06c0.82,0.43,1.48,0.77,2.74,1.44c-0.59-3.03-1.07-5.49-1.53-7.88
		c-1.3-0.14-2.61,0.12-3.19-0.41c-4.74-4.33-9.62-8.56-13.88-13.33c-2.46-2.75-5.59-3.98-9.28-1.93c5.08,2.16,5.09,4.17,1.23,6.94
		c-1.51,1.08-2.82,2.47-4.1,3.82c-3.59,3.79-7.13,7.64-10.82,11.61c0.59,0.53,1.4,1.26,2.58,2.32c5.26-5.4,10.44-10.46,15.31-15.81
		c2.54-2.79,4.91-2.3,7.27-0.36c2.61,2.15,4.96,4.62,7.36,7c3.86,3.83,3.92,5.31,0.26,9.4c-2.18,2.44-4.56,4.7-6.8,7.09
		c-2.29,2.44-4.53,4.92-7.3,7.94C277.35,228.41,278.83,229.85,280.71,231.68z M633.72,599.11c3.59-3.88,6.56-7.1,9.11-9.86
		c-5.14-5.09-9.99-9.9-15.08-14.93c-3.03,2.38-6.45,5.07-10.9,8.57C622.65,588.45,628.08,593.68,633.72,599.11z M101.36,201.68
		c0.24,0.16,0.48,0.32,0.72,0.48c5.38-4.85,8.71-5.2,16-0.4c6.04,3.97,8.87,10.02,9.28,17.26c0.05,0.91,1.12,1.77,1.71,2.65
		c0.6-0.92,1.6-1.8,1.7-2.78c0.17-1.71-0.41-3.49-0.28-5.22c0.08-1.03,0.64-2.35,1.43-2.93c4.29-3.19,8.78-6.1,13.04-9.33
		c0.77-0.58,0.77-2.17,1.12-3.29c-0.37-0.2-0.74-0.39-1.11-0.59c-5.37,3.15-10.74,6.3-16.06,9.42c-5.85-8.3-7.59-9.45-15.84-12.67
		c-2.67-1.04-4.66-0.29-6.36,1.22C104.69,197.3,103.12,199.6,101.36,201.68z M119.87,106.09c-2.97-1.83-5.69-2.45-9.09-1.08
		c-14.94,6.03-26.54,15.52-31.6,31.51c-0.87,2.74-0.1,4.97,2.15,7.42c5.75-16.13,18.68-25.17,31.6-34.28
		c-0.3-0.1-0.54-0.28-0.72-0.23c-0.67,0.18-1.34,0.38-1.97,0.66c-9.49,4.11-16.9,10.7-22.89,19.04c-0.91,1.26-2.29,2.18-3.45,3.25
		c-0.3-0.4-0.61-0.8-0.91-1.2C91.64,117.84,102,106.93,119.87,106.09z M422.5,384.22c10.28,9.77,20.38,19.37,30.51,29
		c0.96-1.12,1.12-3.27-0.89-5.39c-8.36-8.77-16.74-17.51-25.01-26.16C425.26,382.69,423.85,383.47,422.5,384.22z M595.87,673.48
		c-0.58,0.6-1.15,1.19-1.73,1.79c2.5,2.05,4.97,4.16,7.55,6.11c0.52,0.39,1.66,0.45,2.26,0.14c5.38-2.77,11.61-4.69,15.86-8.69
		c9.75-9.18,18.62-19.31,27.63-29.24c3.05-3.36,5.48-7.3,8.19-10.98c-0.26-0.2-0.51-0.39-0.77-0.59c-0.48,0.44-1,0.84-1.44,1.32
		c-6.04,6.66-11.87,13.54-18.16,19.96c-8.09,8.24-16.45,16.24-24.92,24.1c-4.43,4.1-6.75,3.7-10.87-0.62
		C598.35,675.6,597.07,674.58,595.87,673.48z M247.8,211.64c9.11,10.02,17.91,19.69,26.84,29.51c2.11-2.77,1.23-5.1-0.5-7.13
		c-3.1-3.64-6.29-7.21-9.61-10.65c-4.59-4.74-9.33-9.33-14.04-14.02C249.34,210.33,248.57,210.99,247.8,211.64z M116.37,101.33
		c-4.71-3.78-8.98-2.47-12.87-0.23c-8.86,5.08-17.03,11.22-23.15,19.46c-2.7,3.64-4.27,8.17-5.98,12.45
		c-0.5,1.26,0.26,3.02,0.44,4.55C81.75,118.34,100.32,101.56,116.37,101.33z M670.38,552.69c-0.29,0.2-0.57,0.41-0.86,0.61
		c0.7,1.32,1.21,2.8,2.14,3.93c1.45,1.74,0.99,2.67-0.67,3.92c-3.4,2.57-6.61,5.39-10.08,8.26c-1.24-0.83-2.83-1.89-4.42-2.95
		c-0.34,0.22-0.67,0.45-1.01,0.67c0.58,1.27,0.83,3.13,1.81,3.69c2.15,1.21,4.66,1.77,7.05,2.52c0.12,0.04,0.69-0.67,0.7-1.04
		c0.12-3.99,3.51-5.52,5.8-7.89c1.46-1.51,2.78-3.14,4.16-4.72c1.25-1,3.58,2.4,4.74-1.39c0.56-1.82,1.38-3.69,2.56-5.15
		c2.83-3.5,5.95-6.76,8.95-10.12c-0.16-0.34-0.32-0.67-0.48-1.01c-1,0.34-2.29,0.39-2.94,1.07c-4.1,4.23-8.07,8.59-12.18,13.02
		C673.97,555.03,672.18,553.86,670.38,552.69z M519.34,475.68c9.5,9.54,19.09,19.16,28.66,28.78c1.27-1.58,0.8-3.21-0.81-4.87
		c-8.29-8.54-16.53-17.12-24.79-25.69C520.87,474.79,519.69,475.48,519.34,475.68z M39.68,86.16c0.38-0.16,0.77-0.32,1.15-0.48
		c-0.73-1.63-1.13-3.54-2.24-4.84c-2.26-2.64-5.83-4.52-7.22-7.48c-3.89-8.27-11.49-12.49-17.61-18.64
		c-2.18,3.05-0.22,4.71,1.19,6.19c2.57,2.7,5.6,4.98,8.09,7.76c2.27,2.53,4.08,5.48,6.41,8.7C34.08,77.93,35.15,84.26,39.68,86.16z
		 M71.8,64.43C60.01,64.34,44.05,78.1,43.26,89.21c4.16-4.42,8.21-9.44,13-13.59C61.14,71.38,66.77,68,71.8,64.43z M120.79,227.79
		c-5.68,0.95-9.94-1.55-12.68-5.54c-2.56-3.74-3.82-8.38-5.68-12.68c-3.19,2.42-1.31,5.81-0.15,8.9c3.13,8.31,10.79,14,18.09,13.6
		C120.49,230.85,120.61,229.61,120.79,227.79z M255.38,194.23c-8.01,0.44-11.13,7.02-16.14,11.56c1.12,1.05,2.03,1.9,2.95,2.76
		c1.73-0.7,3.3-1.33,5.03-2.03C246.43,200.2,252.39,198.32,255.38,194.23z M241.22,213.63c9.52,8.84,18.49,17.17,26.89,24.97
		c-7.5-8.17-15.56-16.94-23.85-25.97C243.91,212.75,243.05,213.03,241.22,213.63z M650.61,585.79c3.3-3.82,6.29-7.28,9.28-10.74
		c-0.08-0.32-0.16-0.64-0.24-0.96c-1.1,0.19-2.47,0.03-3.24,0.63c-1.64,1.27-3.08,2.85-4.4,4.47c-1.8,2.2-3.42,4.51-6.85,2.98
		C645.38,584.85,645.38,584.85,650.61,585.79z M136.98,184.39c8.47,4.97,13.22,12.11,16.24,20.58
		C153.45,196.47,145.07,185.66,136.98,184.39z M113.03,96.85c5.66-1.05,6.18,4.99,10.23,6.58c0.05-2.21,0.19-4.81-1.04-5.99
		C119.75,95.07,116.41,95,113.03,96.85z M569.53,460.06c-0.86-5.43-6.18-10-11.82-10.56C561.5,452.89,565.35,456.34,569.53,460.06z
		 M163.28,229.39c2.51,3.05,7.32,8.9,12.13,14.75c0.5-0.51,1.01-1.02,1.51-1.54C171.52,237.37,166.12,232.14,163.28,229.39z
		 M473.83,369.19c-0.61-5.43-5-9.38-10.3-9.65C466.86,362.67,470.27,365.86,473.83,369.19z M84.48,150.2
		c1.23-3.42,2.37-7.7,4.29-11.59c1.9-3.85,4.59-7.32,6.93-10.96C89.69,134.37,83.97,141.25,84.48,150.2z M375.35,278.34
		c3.57,3.19,7.13,6.38,10.7,9.56C384.19,282.72,380.44,279.74,375.35,278.34z M294.18,197.77c-1.15-4.5-5.76-8.41-10.47-8.86
		C287.22,191.88,290.68,194.81,294.18,197.77z M605.52,567.09c0.44-0.22,0.88-0.43,1.32-0.65c2.77,3.67,5.55,7.33,8.32,11
		c0.26-0.24,0.51-0.47,0.77-0.71c-2.77-3.32-5.51-6.66-8.37-9.89C607.3,566.55,606.22,566.99,605.52,567.09z M76.08,143.3
		c-1.72-1.63-3.12-2.97-4.9-4.66C70.68,143.33,71.78,144.39,76.08,143.3z M168.34,241.77c-0.03,0.02-0.06,0.04-0.09,0.07
		c2.57,2.93,5.14,5.87,7.71,8.8c0.19-0.19,0.37-0.38,0.56-0.57C173.79,247.3,171.07,244.53,168.34,241.77z"/>
	<path class="st0" d="M262.06,136.99c6.25,0.86,11.82,3.18,15.68,8.59c2.49,3.49,2.83,7.53,1.01,10.13
		c-1.89,2.69-6.56,3.98-10.41,3.02c-5.24-1.31-9.82-3.78-13.28-7.92c-2.23-2.66-3.73-5.8-1.99-9.34
		C254.85,137.82,258.32,137.22,262.06,136.99z"/>
	<path class="st0" d="M250.98,169.41c0.72,2.62,1.49,5.4,2.26,8.17c-0.37,0.2-0.74,0.39-1.11,0.59c-0.86-0.94-2.13-1.74-2.48-2.84
		c-0.71-2.23-1.77-2.58-3.88-1.89c-9.64,3.15-19.32,6.17-28.98,9.22c-0.41,0.13-0.86,0.11-2.6,0.3c1.34-1.91,1.92-3.75,2.96-4.07
		c10.9-3.4,21.88-6.56,32.85-9.76C250.17,169.09,250.42,169.25,250.98,169.41z"/>
	<path class="st0" d="M472.72,501.7c1.67-1.44,2.98-2.57,4.48-3.87c48.08,48.67,96.05,97.21,144.27,146.03
		c-1.36,1.46-2.59,2.77-4.07,4.36C569.1,599.3,520.98,550.58,472.72,501.7z"/>
	<path class="st0" d="M637.14,730.6c19.06-10.24,34.04-24.41,47.56-40.2c5.53-6.46,10.37-13.52,15.39-20.4
		c1.39-1.91,2.5-1.29,3.67-0.07c5.27,5.47,10.57,10.92,15.68,16.54c0.74,0.81,1.04,2.68,0.65,3.73c-1.02,2.71-2.23,5.45-3.9,7.79
		c-13.08,18.31-28.5,34.36-46.9,47.41c-11.14,7.91-11.48,7.76-20.6-2.03c-3.03-3.25-6.12-6.45-9.14-9.71
		C638.71,732.75,638.01,731.71,637.14,730.6z"/>
	<path class="st0" d="M799.63,703.36c-0.84,1.72-1.47,3.7-2.64,5.28c-4.3,5.83-8.77,11.54-13.18,17.29
		c-2.75,3.58-6.75,3.8-9.78,0.45c-3.44-3.82-6.86-7.67-10.16-11.62c-3.57-4.27-3.69-9.83-0.27-14.12
		c4.45-5.57,9.01-11.06,13.62-16.51c2.71-3.2,5.84-3.44,8.74-0.35c4.08,4.34,7.96,8.89,11.62,13.58
		C798.71,698.8,798.86,700.99,799.63,703.36z"/>
	<path class="st0" d="M621.01,706.52c5.81-7.86,12.52-14.67,21.02-19.6c1.63-0.95,2.71-1.06,4.13,0.62
		c3.3,3.92,6.83,7.66,10.43,11.32c1.3,1.32,1.35,2.3,0.6,3.91c-3.5,7.51-9.83,12.37-16.18,17.1c-2.24,1.67-5.13,1.68-7.44-1.13
		c-2.65-3.24-5.69-6.18-8.64-9.16C623.91,708.53,622.62,707.75,621.01,706.52z"/>
	<path class="st0" d="M642.83,675.28c-9.03,8.14-17.32,15.61-26.82,24.17c-1.76-2.32-3.67-4.43-5.03-6.84
		c-0.56-1-0.51-3.27,0.21-3.94c7.07-6.61,14.33-13.01,21.56-19.44c1.39-1.23,2.62-0.89,3.91,0.44
		C638.45,671.49,640.44,673.12,642.83,675.28z"/>
	<path class="st0" d="M664.58,634.4c-0.5,5.25,4.45,5.67,5.64,8.28c-7.6,8.16-15.07,16.18-22.78,24.47
		c-1.81-0.05-0.09-5.17-4.55-3.43c1.15,1.38,2.26,2.47,3.06,3.75c0.7,1.11,1.06,2.42,1.57,3.65c-0.48,0.3-0.95,0.59-1.43,0.89
		c-2.14-2.32-4.4-4.55-6.32-7.03c-0.37-0.48,0.28-2.22,0.93-2.96c6.84-7.78,13.8-15.46,20.68-23.21
		C662.43,637.63,663.24,636.26,664.58,634.4z"/>
	<path class="st0" d="M293.52,318.97c1.91-1.45,3.27-2.5,4.64-3.54c-0.26,0.32-0.52,0.63-0.77,0.95
		c13.77,13.03,27.55,26.07,41.48,39.25c-1.83,1.96-2.98,3.2-3.63,3.9C321.36,346.04,307.67,332.73,293.52,318.97z"/>
	<path class="st0" d="M322.93,300.56c1.92,0.54,3.75,0.55,4.85,1.46c5.28,4.38,10.58,8.78,15.46,13.6
		c5.99,5.91,11.41,12.39,17.38,18.32c3.58,3.56,2.05,7.58,1.94,11.52c-0.01,0.43-0.66,0.91-1.1,1.24
		c-6.24,4.53-12.49,9.05-18.77,13.54c-0.59,0.42-1.35,0.59-2.62,0.27c0.61-0.85,1.09-1.85,1.86-2.51c4.78-4.1,9.47-8.33,14.51-12.1
		c4.46-3.34,5.24-6.49,1.08-10.62c-11.26-11.18-21.03-23.91-34.15-33.18C323.22,301.99,323.23,301.67,322.93,300.56z"/>
	<path class="st0" d="M640.51,491.76c-0.05,7.02-5.71,11.23-12.57,9.42c-6.76-1.78-11.24-5.92-13.2-12.64
		c-1.99-6.82,2.49-12.84,9.56-12.96C632.46,475.46,640.57,483.55,640.51,491.76z"/>
	<path class="st0" d="M679.46,523.08c6.28,1.46,10.97,3.71,13.14,9.28c0.4,1.02,0,2.36-0.03,3.55c-1.07-0.12-2.32,0.07-3.19-0.42
		C684.67,532.85,681.18,529.17,679.46,523.08z"/>
</g>
<path class="st0" d="M341.54,299.86l13.71,9.1c0,0,17.36-4.6,17.36-5.28s10.55-6.81,10.55-6.81l3.85,2.22l4.15,3.82v-6.89l-5.12-16
	l-19.7-7.49c0,0-14.34,7.32-14.34,7.83C352.02,280.87,341.54,299.86,341.54,299.86z"/>
<polygon class="st0" points="429.26,378.83 438.09,390.32 468.68,377.3 474.98,380.14 478.36,385.72 479.43,380.04 475.6,365.81 
	469.98,359.54 454.34,354.06 446.23,355.09 "/>
<polygon class="st0" points="275.87,213.64 291.09,207.51 295.6,209.94 300.79,214.83 299.77,205.3 295.51,192.36 282.06,185.75 
	272.19,182.97 266.1,192.53 253.24,207 259.77,214.83 "/>
<polygon class="st0" points="560.36,469.13 570.76,470.8 574.35,477.64 576.19,470.83 570.91,452.96 548.74,444.79 541.64,446.32 
	525.3,466.23 526.66,475.59 536.02,480.87 "/>
<path class="st0" d="M598.55,484.77l-0.29,4.3l0.29,6.95l-16.23,19.91l-11.4,13.55c0,0-7.45,1.43-7.3,1.26
	c0.15-0.17-8.02-9.06-8.02-9.06l9.19-7.11l12.28-11.23l3.89-5.51l4.09-9.24l12.6-10.78l2.21,2.21L598.55,484.77z"/>
</svg>
