<?xml version="1.0" encoding="utf-8"?>
<!-- Generator: Adobe Illustrator 24.1.2, SVG Export Plug-In . SVG Version: 6.00 Build 0)  -->
<svg version="1.1" id="Injetor" xmlns="http://www.w3.org/2000/svg" xmlns:xlink="http://www.w3.org/1999/xlink" x="0px" y="0px"
	 viewBox="0 0 812 812" style="enable-background:new 0 0 812 812;" xml:space="preserve">
<style type="text/css">
	.st0{fill:#111825;}
</style>
<g>
	<path class="st0" d="M395.68,463.98c0.01-7.01-2.85-11.88-8.71-14.77c-5.09-2.51-10.57-4.31-16.02-5.98
		c-4.09-1.25-8.39-1.8-12.68-2.68c0,2.32,0,3.83,0,5.28c3.63,0.77,6.97,1.4,10.28,2.19c3.11,0.74,6.19,1.64,9.28,2.47
		c-0.06,0.18-0.11,0.36-0.17,0.54c-6.36-1.45-12.73-2.9-18.89-4.3c-2.67,5.11,2.44,11.96-4.84,15.89c-0.08-1.66-0.17-2.71-0.17-3.75
		c-0.04-20.24-0.04-40.47-0.11-60.71c-0.02-5.71-2.2-9.42-7.74-10.38c-5.26-0.92-10.9-0.92-16.18-0.09
		c-5.96,0.94-8.17,4.61-8.16,10.75c0.01,16.45,0.05,32.9,0.01,49.35c0,1.24-0.23,3.36-0.84,3.56c-3.2,1.04-6.72,2.59-9.82,2.08
		c-5.04-0.83-9.85-3.11-15.12-4.9c6.5-0.96,12.61-1.98,18.76-2.73c3.36-0.41,4.21-1.76,4.01-5.23c-0.2-3.55-2.19-3.13-4.31-3.28
		c-54.07-3.8-108.16-3.7-162.25-0.51c-2.88,0.17-5.75,0.43-8.58,0.64c0,1.87,0,3.36,0,4.9c9.48-0.51,18.65-1,27.81-1.48
		c0,0.15,0.01,0.31,0.01,0.46c-9.29,0.8-18.58,1.6-27.43,2.37c-2.37,5.63,2.34,12.52-4.9,16.85c0-1.71,0-2.79,0-3.86
		c0-19.63,0-39.25-0.02-58.88c-0.01-5.48-2.05-8.36-7.22-10.06c-5.24-1.71-10.57-1.67-15.86-0.2c-6.01,1.67-8.42,4.88-8.43,11.12
		c-0.02,14.75-0.06,29.5,0.04,44.25c0.02,2.49-0.49,3.66-3.24,4.06c-4.44,0.64-8.85,1.7-13.18,2.91c-3.14,0.88-6.32,1.98-9.16,3.56
		c-4.84,2.69-5.22,6.6-1.17,10.33c1.59,1.46,3.43,2.91,5.42,3.64c8.2,3.04,16.36,6.41,24.81,8.55c23.23,5.87,47.02,8.12,70.88,9.79
		c54.99,3.85,109.62,1.35,163.8-9.03c12.45-2.38,24.75-5.53,35.9-11.97c3.25-1.88,5.87-4.19,6.26-8.58
		c1.24,2.12,2.44,4.31,2.45,6.49c0.09,62.78,0.05,125.56,0.04,188.34c0,21.09,0,42.18,0,63.27c0,5.02-2.24,8.53-6.86,10.27
		c0-84.68,0-169.2,0-253.53c-6.37,2.35-12.31,4.9-18.46,6.76c-25.7,7.78-52.23,10.82-78.86,12.87
		c-35.78,2.76-71.61,2.96-107.43,0.64c-23.12-1.5-46.17-3.95-68.74-9.41c-9.29-2.25-18.35-5.41-27.87-8.27
		c0,84.25,0,168.65,0,254.14c-5.95-4.39-12.13-6.67-12.12-14.66c0.09-83.38,0.07-166.76,0.02-250.14c0-3.58,1.5-6.22,4.33-7.92
		c2.9-1.74,6-3.34,9.23-4.3c6.62-1.98,13.38-3.49,20.32-5.26c0-1.28,0-2.91,0-4.92c-11.07,2-21.94,3.54-31.57,9.33
		c-5.07,3.05-7.66,7.43-7.65,13.58c0.09,83.02,0.13,166.03,0.01,249.05c-0.01,6.4,2.31,11.11,7.25,14.67c2.95,2.13,6,4.32,9.34,5.67
		c8.45,3.43,17.06,6.51,25.68,9.48c2.13,0.74,2.81,1.65,2.78,3.83c-0.12,8.04-0.03,16.09-0.08,24.14c-0.02,4.12,1.88,6.97,5.52,8.69
		c6.25,2.95,12.58,2.58,18.79,0c3.77-1.57,5.38-4.78,5.41-8.78c0.05-5.85,0.03-11.7,0.08-17.55c0.01-0.9,0.23-1.79,0.35-2.67
		c62.1,8.61,123.89,8.85,186.03,0.16c0,6.79-0.02,13.11,0.01,19.42c0.02,5.3,1.96,8.24,6.87,10.02c5.34,1.94,10.78,1.95,16.12,0
		c4.68-1.72,6.61-4.69,6.62-9.79c0.03-7.56,0.14-15.12-0.04-22.67c-0.07-3.03,0.96-4.24,3.88-5.35c8.85-3.37,17.76-6.8,26.13-11.18
		c6.93-3.63,10.41-9.68,10.39-18.24C395.5,629.52,395.54,546.75,395.68,463.98z M112.74,400.94c2.9,0.83,5.21,1.49,7.58,2.16
		c0,19.54,0,38.99,0,58.99c-1.99-0.34-3.84-0.36-5.42-1.02c-0.94-0.39-2.06-1.79-2.07-2.75
		C112.71,439.34,112.74,420.36,112.74,400.94z M106.48,462.79c-2.82-1.52-2.58-3.21,0.42-5.78c0.91,6.16,5.86,6.94,10.44,7.43
		c4.85,0.52,9.8,0.12,14.71,0.12C123.26,467.52,114.65,467.2,106.48,462.79z M114.39,394.68c4.2-3.67,13.45-3.75,18.09-0.15
		C129.13,398.92,118.52,399,114.39,394.68z M326.97,400.98c2.85,0.75,5.17,1.36,7.55,1.98c0,19.64,0,39.19,0,59.17
		c-2.08-0.48-3.92-0.66-5.53-1.36c-0.87-0.38-1.93-1.64-1.93-2.51C326.95,439.27,326.97,420.28,326.97,400.98z M313.74,471.72
		c-2.62,1.9-5.67,3.36-8.74,4.44c-15.33,5.41-31.38,6.91-47.44,7.84c-9.47,0.55-18.99,0.1-28.49,0.1
		c-20.01,0.72-39.98,0.02-59.68-3.79c-6.06-1.17-11.94-3.32-17.85-5.17c-1.6-0.5-3.08-1.46-4.52-2.37
		c-6.24-3.97-6.52-9.24-0.02-12.6c6.1-3.16,12.67-5.79,19.33-7.4c24.22-5.85,48.93-6.65,73.74-6.13c20.16,0.43,40.18,2,59.62,7.69
		c4.84,1.42,9.6,3.62,13.89,6.28C318.75,463.82,318.69,468.13,313.74,471.72z M323.55,463.96c-3.57-1.56-4.44-4.28-2.42-6.59
		c1.68,6.1,6.89,6.68,11.7,7.23c4.53,0.52,9.17,0.11,13.77,0.11C338.74,467.41,331.01,467.22,323.55,463.96z M328.42,394.79
		c4.24-3.98,14.3-4.04,18.6-0.11C343.19,398.78,333.36,398.84,328.42,394.79z M106.45,520.73c0.01,43.38,0.01,86.75,0.01,130.13
		c0,27.29,0,54.58-0.01,81.88c0,1.09,0,2.18,0,3.5c-2.95-0.17-4.82-0.63-4.81-4.25c0.09-81.27,0.08-162.54,0.09-243.8
		c0-1.3,0-2.59,0-4.23c6.56,1.43,12.6,2.7,18.6,4.14c0.67,0.16,1.4,1.2,1.61,1.96c0.28,1.02,0,2.18,0.08,3.27
		c0.31,4.6,0.08,7.96-5.67,10.11C109.13,506.14,106.45,513.03,106.45,520.73z M114.95,768.32c-0.02-6.79-0.01-13.58,0.01-20.37
		c0-0.92,0.14-1.84,0.22-2.77c6.33,0.65,6.35,0.65,6.36,6.56c0.02,7.38,0,14.75,0,22.12C116.36,773.96,114.96,772.74,114.95,768.32z
		 M337.41,773.97c-5.48-0.53-6.35-1.44-6.35-6.41c-0.01-6.07,0-12.14,0-18.56c2.34-0.4,4.23-0.72,6.35-1.09
		C337.41,756.83,337.41,765.39,337.41,773.97z M339.56,715.18c-21.21,4.89-42.77,7.07-64.46,8.11
		c-34.36,1.65-68.71,1.66-102.94-2.23c-11.49-1.3-22.88-3.42-34.32-5.12c-2.15-0.32-3.52-1.04-2.63-3.66
		c68.49,11.55,138.9,11.72,207.48-0.82C344.1,714.33,341.83,714.65,339.56,715.18z M341.94,690.23c0,0-34.01,8.9-102.91,8.9
		c-43.52,0-111.2-9.9-111.2-9.9c-7.57,0-13.81-5.62-14.82-12.91c-0.03-0.01-0.07-0.01-0.11-0.02c0-0.34,0-0.68,0-1.02
		c-0.02-0.34-0.05-0.68-0.05-1.03c0,0,0.12-110.87,0.15-152.37c0.01-11.32,6.1-16.09,17.31-13.82c27.71,5.61,55.8,7.3,83.98,7.75
		c35.5,0.57,70.94-0.43,106.16-5.37c7.23-1.01,14.4-2.51,21.59-3.82c6.83-1.25,12.44,2.3,13.98,9.06c0.43,1.88,0.53,3.86,0.53,5.8
		c0.01,41.06,0.38,152.78,0.38,152.78C356.92,682.52,350.21,690.23,341.94,690.23z"/>
	<path class="st0" d="M553.06,278.92c8.39,17.08,17.5,35.96,26.97,54.64c2.32,4.57,2.97,8.82,0.45,13.13
		c-4.96,8.48-3.65,15.92,0.71,24.68c25.81,51.79,51,103.9,76.3,155.95c21.25,43.72,42.37,87.5,63.55,131.26
		c8.28,17.11,16.49,34.26,24.83,51.34c2.61,5.34,1.5,10.47-0.35,15.58c-3.51,9.69-8.29,18.77-14.75,26.79
		c-2.72,3.37-3.05,6.25-1.66,10.24c3.06,8.79,5.1,17.86,3.68,27.27c-2.62,17.39-17.88,26.38-34.43,20.31
		c-10.18-3.73-17.6-10.98-23.17-19.89c-2.88-4.6-5.92-5.86-11.27-6.08c-9.18-0.36-18.37-1.97-27.41-3.78
		c-7.72-1.54-13-5.98-16.7-13.66c-16.98-35.24-34.55-70.19-52.08-105.16c-36.75-73.3-73.6-146.54-110.41-219.81
		c-2.35-4.68-4.78-9.33-6.92-14.11c-0.94-2.1-2.25-2.7-4.4-2.99c-5.79-0.78-11.54-1.81-17.28-2.89c-3.33-0.63-5.36-2.72-6.91-5.85
		c-9.67-19.55-19.55-38.99-29.36-58.47c-0.21-0.42-0.52-0.8-0.82-1.24c-4.54,1.07-8.97,2.4-13.49,3.12
		c-8.76,1.39-17.29,0.43-25.17-3.94c-4.88-2.7-8.69-6.41-11.27-11.57c-36.08-72.01-72.19-144.01-108.5-215.91
		c-3.35-6.64-2.79-12.63,0.16-18.83c4.64-9.77,12.57-16.71,20.86-23.15c27.01-20.97,56.79-37.3,87.63-51.79
		c27.07-12.72,54.78-23.81,83.95-30.72c8.34-1.98,17.02-3.05,25.59-3.38c7.59-0.29,13.38,3.16,17.01,10.76
		c29.18,60.98,58.64,121.83,88.02,182.72c5.3,10.98,10.57,21.96,15.9,32.92c6.07,12.48,4.51,24.15-4,34.85
		C563.74,267.08,558.64,272.51,553.06,278.92z M549.77,271.76c5.24-5.52,10.59-10.25,14.81-15.84c6-7.95,7.09-16.84,2.52-26.13
		c-5-10.17-9.77-20.44-14.7-30.65c-29.77-61.64-59.65-123.24-89.19-184.99c-2.85-5.96-7.03-7.87-12.76-8.27
		c-1.93-0.14-3.94-0.14-5.83,0.26c-10.12,2.11-20.41,3.72-30.29,6.68C364.36,27.79,317.87,50.26,274.41,79
		c-11.47,7.58-22.87,15.43-31.51,26.45c-5.58,7.12-7.13,13.93-2.51,23.02c35.91,70.71,71.31,141.68,106.8,212.61
		c2.77,5.54,7.32,8.64,12.82,10.71c8.82,3.32,17.53,1.54,26.21-0.72c0.67-0.18,1.27-0.64,1.91-0.97c-0.79-0.46-1.36-0.25-1.92-0.3
		c-1.46-0.12-2.9-0.36-4.35-0.56c0.66-1.23,1.03-2.81,2.03-3.61c3.7-2.97,7.45-5.92,11.45-8.46
		c45.62-29.04,94.08-52.25,145.02-70.33c4.94-1.75,5.18-1.64,7.94,2.71C548.54,269.95,548.81,270.33,549.77,271.76z M569.22,360.29
		c-5.49,1.96-10.7,3.64-15.77,5.66c-24.39,9.7-47.82,21.42-70.4,34.75c-9.1,5.38-17.68,11.64-26.47,17.54
		c-2.33,1.56-2.77,3.26-1.33,6.08c9.14,17.91,18,35.96,27.01,53.92c27.37,54.55,54.85,109.05,82.14,163.64
		c20.38,40.76,40.63,81.6,60.73,122.5c2.55,5.18,6.06,8.18,11.47,9.7c11.37,3.19,22.92,4.68,34.7,3.95c2.3-0.14,3.33,0.66,4.61,2.47
		c3.78,5.37,7.6,10.75,11.97,15.63c4.65,5.18,10.63,8.48,17.66,9.59c9.37,1.48,18.14-3.92,20.37-13.1c0.9-3.72,1.42-7.8,0.9-11.55
		c-0.89-6.48-2.28-12.97-4.31-19.18c-1.48-4.5-1.26-7.64,1.96-11.41c7.18-8.4,12.25-18.13,15.77-28.66
		c1.33-3.99,1.31-7.62-0.63-11.59c-12.16-24.84-24.07-49.81-36.13-74.7c-18.55-38.25-37.12-76.5-55.76-114.71
		c-19.33-39.65-38.75-79.25-58.13-118.87C582.88,388.26,576.2,374.58,569.22,360.29z M575.53,338.95
		c-10.62-21.66-21.16-43.14-31.78-64.78c-3.03,1.04-5.61,1.92-8.49,2.9c10.09,20.69,19.95,40.88,29.85,61.19
		c-11.79,4.86-23.13,9.54-34.78,14.35c-10.13-20.54-20.27-41.11-30.55-61.97c-11.44,5.25-22.43,10.29-33.55,15.4
		c10.49,21.21,20.64,41.71,30.88,62.42c-11.94,6.38-23.68,12.65-35.59,19.02c-10.31-20.76-20.53-41.34-30.92-62.26
		c-3.86,2.22-7.48,4.3-11.17,6.41c10.46,21.17,20.69,41.88,30.95,62.66c-5.34,3.43-10.42,6.69-15.61,10.03
		c-10.59-21.1-21.05-41.96-31.7-63.18c-3.16,2.19-5.91,4.1-8.84,6.15c11.49,22.75,22.83,45.19,34.47,68.24
		c3.75-7.11,9.82-10.61,15.49-14.53c3.1-2.15,6.3-4.17,9.53-6.12c28.21-17.04,57.73-31.5,87.94-44.57
		C552.48,345.61,563.26,340.7,575.53,338.95z M447.95,415.55c5.6-3.94,10.34-7.52,15.32-10.72c21.27-13.62,43.6-25.29,66.63-35.58
		c11.76-5.25,23.88-9.75,35.98-14.2c5.3-1.94,6.57-2.82,7.25-9.11c-2.91,0.82-5.74,1.46-8.47,2.41
		c-28.37,9.89-55.36,22.9-81.62,37.35c-14.48,7.96-28.26,17.19-42.29,25.95c-1.86,1.16-3.34,2.94-5.58,4.96
		c5.92,0.9,10.82,1.64,15.73,2.39c0.26-0.48,0.52-0.96,0.77-1.44C450.75,417.06,449.83,416.56,447.95,415.55z"/>
	<path class="st0" d="M342.69,673.01c1.41,2.85-0.86,3.18-3.13,3.71c-21.21,4.89-42.77,7.07-64.46,8.11
		c-34.36,1.65-68.71,1.66-102.94-2.23c-11.49-1.3-22.88-3.42-34.32-5.12c-2.15-0.32-3.52-1.04-2.63-3.66
		C203.7,685.38,274.1,685.55,342.69,673.01z"/>
	<g>
		<path class="st0" d="M264.63,567.01c-0.03,2.82-0.07,5.64-0.09,8.46c0,0.38,0.1,0.76,0.21,1.53c5.09,0,10.22,0,15.89,0
			c0-5.21,0.28-10.19-0.09-15.12c-0.27-3.64,0.75-5.3,4.88-4.76c1.18,0.15,2.42-0.09,3.9-0.17c0-3.08,0-5.95,0-9.14
			c-2.78,0-5.36,0-8.31,0c0-3.4,0-6.49,0-9.85c2.78,0,5.47,0,8.8,0c0,2.01,0.14,4.02-0.04,6.01c-0.24,2.61,0.67,3.83,3.68,3.59
			c1.76-0.14,3.56,0.14,5.35,0.24l-0.06-0.06c0.18,3.05,0.37,6.1,0.57,9.51c2.96,0,5.67,0,8.66,0c0,3.39,0,6.39,0,9.94
			c-5.89,0-11.64,0-17.71,0c0,3.28,0,6.03,0,9.13c5.77,0.31,11.49,0.62,17.59,0.95c0,2.9,0,5.77,0,9.13
			c-2.78,0.16-5.73,0.32-8.79,0.49c0,3.17,0,5.96,0,9.22c2.97,0,5.8,0,8.91,0c0,3.35,0,6.22,0,9.54c-2.87,0-5.57,0-8.15,0
			c-1.32,5.61-0.96,5.9,4.77,6.24c1.24,0.07,2.4,1.31,3.6,2.01c-1.17,0.68-2.25,1.7-3.52,1.95c-1.68,0.34-3.51,0.08-5.15,0.08
			c-1.94,8.01-2.86,8.84-9.86,8.88c0-1.52,0.03-3.04-0.01-4.56c-0.04-1.39-0.16-2.78-0.27-4.48c-2.81,0-5.39,0-8.43,0
			c-0.18-3.06-0.35-5.81-0.54-9.01c-2.81-0.13-5.51-0.25-8.36-0.37c0-5.5-0.01-10.81,0.01-16.12c0.01-1.97,0.35-4.07-3.01-3.7
			c-2.66,0.29-5.9-0.34-5.42,3.83c0.19,1.62,0.03,3.28,0.03,5.14c-2.93,0-5.36,0-7.74,0c-0.19-0.31-0.42-0.51-0.44-0.73
			c-0.61-8.11-0.61-8.11-9.52-8.1c-3.02,0-6.04,0-9.52,0c0-6.67,0-12.9,0-19.45c-6.2,0-11.94,0-18.14,0c0,3,0,6.02,0,9.47
			c-3.21,0.15-6.01,0.28-9.05,0.42c0,3.06,0,5.83,0,9.1c5.81,0,11.57,0,17.77,0c0.17,3.46,0.31,6.46,0.47,9.78
			c5.98,0,11.75,0,18.24,0c0,2.45,0.14,4.58-0.04,6.69c-0.2,2.52,0.85,3.46,3.56,3.39c4.68-0.13,9.36-0.04,14.55-0.04
			c0,3.1,0,5.99,0,9.22c2.93,0,5.35,0,8.15,0c0,3.37,0,6.39,0,9.83c3.07,0,5.75,0,8.69,0c0,3.2,0,5.96,0,9.41
			c-8.09,0-16.08,0.05-24.05-0.09c-0.65-0.01-1.48-1.16-1.85-1.93c-0.31-0.65-0.07-1.52-0.07-2.29c0.01-5.89-0.33-5.2,5.55-5.28
			c0.8-0.01,1.6-0.13,2.64-0.21c0-2.85,0-5.5,0-8.41c-1.25-0.11-2.48-0.39-3.67-0.29c-3.88,0.33-6.06-0.64-5.62-4.83
			c0.1-0.92-2.02-2.98-2.57-2.82c-1.53,0.43-3.96,1.78-3.93,2.7c0.18,4.63-2.63,4.81-6.36,4.64c-4.25-0.2-8.52-0.05-13.07-0.05
			c0,3.46,0,6.22,0,9.5c5.82,0,11.69,0,17.75,0c0,3.29,0,6.07,0,9.18c-2.96,0.22-5.79,0.43-8.84,0.65c0,2.88,0,5.51,0,8.48
			c2.97,0.14,5.8,0.27,9.08,0.42c0,1.8-0.01,3.3,0,4.81c0.04,4.45,3.32,6.44,7.7,4.5c0.72-0.32,1.28-1.56,1.36-2.42
			c0.19-2.15,0.06-4.33,0.06-6.81c5.77,0,11.21,0,16.91,0c0,2.88,0,5.65,0,8.78c-2.62,0.19-5.17,0.37-8.01,0.57
			c0,2.91,0,5.66,0,8.67c5.49,0,10.94,0,16.64,0c0.12-0.97,0.27-1.7,0.3-2.44c0.25-7.37,0.24-7.37,8.97-6.43c0,2.69,0,5.45,0,8.59
			c6.31,0,12.18,0,18.35,0c0,3.13,0,5.87,0,8.59c-9.78,2.53-130.78,1.93-141.23-0.68c0-44.06,0-88.14,0-132.11
			c0.48-0.26,0.7-0.48,0.94-0.49c7.33-0.45,7.33-0.45,7.31,6.24c-0.01,3.47-0.16,6.95,0.01,10.42c0.04,0.85,1.1,2.37,1.72,2.38
			c7.72,0.16,15.44,0.11,23.54,0.11c0-6.09,0-12.1,0-18.38c3.05,0,5.71,0,8.65,0c0,6.34,0,12.45,0,19c-2.73,0-5.28,0-8.25,0
			c0,3.29,0,6.16,0,9.42c5.37,0,10.81,0,16.98,0c0-9.36,0-18.78,0-28.38c3.55,0,6.38,0,9.65,0c0,6.33,0,12.45,0,18.97
			c3.21,0.17,6.03,0.32,9.19,0.49c0,3.11,0,6.02,0,8.63c0.58,0.46,0.78,0.75,1,0.77c2.74,0.24,6.2-0.4,7.99,0.93
			c1.4,1.03,0.54,4.52,1.06,6.84c0.18,0.78,1.41,1.74,2.33,1.92c1.57,0.32,3.26,0.09,5.61,0.09c0-2.32,0.18-4.35-0.05-6.33
			c-0.27-2.43,0.79-3.27,3.27-3.15c2.34,0.11,4.7,0.07,7.04,0.09L264.63,567.01z M289.68,587.2c-2.68-0.18-5.35-0.37-8.26-0.57
			c0,3.47,0,6.41,0,9.38c2.77,0,5.17,0,8.17,0c0-3.12,0-6.01,0-8.91c9.91,0.63,10.19-0.47,8.45-7.74c-2.43,0.25-4.83,0.49-7.66,0.78
			C290.15,582.44,289.91,584.82,289.68,587.2z M201.67,596.68c-1.77-0.21-3.54-0.54-5.32-0.59c-1.2-0.03-3.36,0.11-3.47,0.54
			c-0.63,2.41-1.05,4.94-0.87,7.39c0.04,0.62,2.48,1.3,3.9,1.58c3.5,0.67,5.1-0.68,4.9-4.11c-0.09-1.62,0.49-3.27,0.75-4.92
			c3.56-0.68,7.63-0.29,7.29-5.81c-0.22-3.42-1.64-3.92-4.66-4.09c-3.57-0.2-3.28,1.89-3.15,3.94
			C201.16,592.64,201.45,594.66,201.67,596.68z M209.08,633.97c-3.48,0-7.28,1.04-8.69-0.22c-2.65-2.37-4.74-0.96-6.66-0.27
			c-3.91,1.41-1.79,4.85-1.91,7.39c-0.03,0.65,2.13,1.83,3.41,2c4.44,0.58,8.93,0.83,13.7,1.22c-0.07,1.24-0.13,2.32-0.19,3.4
			c-7.48-0.22-7.71-0.07-7.8,5.09c2.53,0.23,5.09,0.45,8.15,0.73c0,3.01,0,5.76,0,8.77c6.14,0,11.75,0,17.83,0c0-3.06,0-5.96,0-9.23
			c3.16,0,5.86,0,8.7,0c0-2.98,0-5.58,0-8.76c-6.18,0-12.04,0-18.21,0c0-9.6,0-18.63,0-27.85c-3.08,0-5.51,0-8.32,0
			C209.08,622.13,209.08,627.85,209.08,633.97z M175.23,566.43c0,6.3,0,12.5,0,18.91c1.26,0.1,2.36,0.37,3.39,0.24
			c3.66-0.46,5.08,0.86,4.57,4.29c-0.25,1.71-0.04,3.48-0.04,5.44c2.99,0,5.39,0,8.05,0c0-6.2,0-12.17,0-18.53
			c-2.71-0.24-5.37-0.47-8.38-0.73c0-3.37,0-6.39,0-9.62C180.12,566.43,177.82,566.43,175.23,566.43z M192.02,566.78
			c0,3.46,0,6.45,0,9.63c2.8,0,5.24,0,7.88,0c0-3.28,0-6.37,0-9.63C197.12,566.78,194.67,566.78,192.02,566.78z M217.43,605.49
			c0-3.05,0-5.99,0-8.9c-2.92,0-5.47,0-8.28,0c0,3.06,0,5.89,0,8.9C211.88,605.49,214.31,605.49,217.43,605.49z M190.82,614.44
			c1.19-9.04,0.43-9.91-7.38-8.44c0,2.7,0,5.44,0,8.44C185.99,614.44,188.29,614.44,190.82,614.44z M175.28,633.94
			c-0.81,9.37,0.03,10.28,7.37,8.3c0-2.69,0-5.41,0-8.3C180.07,633.94,177.8,633.94,175.28,633.94z M226.64,606.47
			c-2.97,0-5.49,0-8.09,0c0,2.97,0,5.7,0,8.46c2.87,0,5.4,0,8.09,0C226.64,612.08,226.64,609.55,226.64,606.47z M192.02,615.79
			c0,2.96,0,5.6,0,8.19c7.79,1.31,8.95-0.01,7.2-8.19C196.98,615.79,194.68,615.79,192.02,615.79z M183.33,624.93
			c0,2.98,0,5.71,0,8.56c2.81,0,5.33,0,7.81,0C192.31,624.5,192.25,624.43,183.33,624.93z M183.18,651.68
			c2.88,0.14,5.27,0.25,7.59,0.37c1.53-8.42,0.74-9.26-7.36-8.02c-0.07,0.54-0.21,1.15-0.22,1.76
			C183.16,647.56,183.18,649.35,183.18,651.68z M255.78,577.66c-1.67,7.95-0.48,9.24,7.38,7.79c0.17-2.47,0.35-5.04,0.54-7.79
			C260.56,577.66,258.14,577.66,255.78,577.66z M192.82,653.15c-1.21,7.88-0.03,9.2,6.64,7.59c0-2.45,0-4.92,0-7.59
			C197.03,653.15,194.91,653.15,192.82,653.15z M236.79,653.36c0,3.29,0,5.68,0,8.95c2.62-0.8,5.53-0.91,6.76-2.3
			c1.06-1.2,1.08-4.67-0.01-5.66C242.28,653.2,239.32,653.65,236.79,653.36z M289.41,605.58c-0.46-2.42-0.54-4.68-1.48-6.57
			c-0.27-0.55-3.98-0.58-4.5,0.15c-1.22,1.7-1.45,4-2.19,6.42C284.31,605.58,286.45,605.58,289.41,605.58z M189.72,661.24
			c0.08-4.24-1.9-6-6.25-5.76c0,1.98,0,3.82,0,5.76C185.67,661.24,187.56,661.24,189.72,661.24z M280.38,598.11
			c0.05-0.34,0.1-0.69,0.15-1.03c-2.59,0-5.18,0-7.77,0c-0.02,0.34-0.04,0.69-0.06,1.03C275.26,598.11,277.82,598.11,280.38,598.11z
			"/>
		<path class="st0" d="M298.81,643.48c-2.86,0-5.73,0-8.88,0c0-2.99,0-5.87,0-9.07c2.81-0.15,5.5-0.29,8.64-0.46
			c0-2.93,0-5.69,0-8.64c3.29,0,6.12,0,9.3,0c0,2.94,0,5.78,0,8.58c-3.07,0.57-6.96,0.25-8.46,1.86c-1.48,1.6-0.56,5.13-0.69,7.81
			L298.81,643.48z"/>
		<path class="st0" d="M236.63,547.51c0-3.42,0-6.33,0-9.5c3.11,0,6.03,0,9.19,0c0,3.22,0,6.22,0,9.5
			C242.75,547.51,239.84,547.51,236.63,547.51z"/>
		<path class="st0" d="M255.59,547.59c0-3.34,0-6.33,0-9.6c3.1,0,6.04,0,9.3,0c0,3.18,0,6.29,0,9.6
			C261.82,547.59,258.98,547.59,255.59,547.59z"/>
		<path class="st0" d="M298.81,547.79c0-3.19,0-6.38,0-9.9c3.2,0,6.01,0,9.42,0c0,2.63,0.17,5.29-0.11,7.92
			c-0.08,0.71-1.45,1.75-2.33,1.85c-2.32,0.26-4.69,0.08-7.05,0.07C298.74,547.73,298.81,547.79,298.81,547.79z"/>
		<path class="st0" d="M298.73,643.56c2.99,0,5.98,0,8.93,0c1.11,10.94,1.18,9.43-8.85,8.9c0-2.97,0-5.97,0-8.98
			C298.81,643.48,298.73,643.56,298.73,643.56z"/>
		<path class="st0" d="M183.29,537.48c2.9,0,5.34,0,8.09,0c0,3.23,0,6.2,0,9.43c-2.73,0-5.27,0-8.09,0
			C183.29,543.72,183.29,540.73,183.29,537.48z"/>
		<path class="st0" d="M264.71,567.09c0.14-2.93,0.28-5.86,0.44-9.17c2.23-0.09,4.23-0.18,6.51-0.27c0,3.16,0,6.04,0,9.36
			c-2.47,0-4.75,0-7.03,0C264.63,567.01,264.71,567.09,264.71,567.09z"/>
	</g>
	<path class="st0" d="M228.77,470.4c-5.37-0.94-9.8-1.59-14.15-2.59c-1.05-0.24-1.83-1.65-2.73-2.52c0.86-0.78,1.59-1.96,2.59-2.27
		c10.49-3.23,21.04-3.08,31.55-0.11c1.09,0.31,1.89,1.62,2.82,2.47c-0.99,0.81-1.88,2.15-2.98,2.35
		C239.94,468.81,233.95,469.62,228.77,470.4z"/>
	<path class="st0" d="M219.24,452.77c4.49-3.78,17.53-3.84,22.13-0.3C238.17,456.35,224.36,456.63,219.24,452.77z"/>
	<path class="st0" d="M242.09,478.86c-8.03,2.65-15.37,2.71-23.01,0.28C222.25,474.75,237.25,474.41,242.09,478.86z"/>
	<path class="st0" d="M195.87,471.8c-5.27,3.8-17.89,3.83-22.05,0.2C177.44,468.44,190.73,468.19,195.87,471.8z"/>
	<path class="st0" d="M195.06,459.32c-3.85,3.56-16.76,3.72-21.54,0.26C176.8,455.85,190.98,455.67,195.06,459.32z"/>
	<path class="st0" d="M265.05,472.02c3.64-3.8,17.74-3.87,21.53-0.1C282.43,475.52,269.57,475.58,265.05,472.02z"/>
	<path class="st0" d="M265.78,459.4c4-3.48,17.22-3.6,21.54-0.2C283.72,463.05,270.1,463.18,265.78,459.4z"/>
	<path class="st0" d="M380.06,313.76c-7.25,4.78-14.05,9.26-21.27,14.02c-0.52-0.96-1.11-1.94-1.61-2.96
		c-34.9-70.15-69.8-140.31-104.7-210.47c-2.97-5.98-3.01-5.97,1.93-10.36c19.12-17.01,41.33-29.24,63.82-40.98
		c11.53-6.02,23.32-11.54,35.35-17.46c36.68,74.85,73.13,149.22,109.57,223.58c-21.04,10.89-41.77,21.62-62.87,32.55
		c-35.82-72.35-71.73-144.89-107.9-217.94c-6.89,4.45-13.39,8.65-20.15,13.02C308.28,169.3,344.1,241.4,380.06,313.76z"/>
	<path class="st0" d="M491.54,256.52c-36.15-74.1-72.35-148.28-108.81-223c9.4-3.29,18.23-6.85,27.32-9.43
		c12.99-3.69,26.19-6.63,39.29-9.95c2.24-0.57,3.49-0.08,4.56,2.15c24.76,51.36,49.61,102.67,74.42,154.01
		c9.22,19.08,18.39,38.2,27.57,57.3c0.62,1.3,1.18,2.62,1.69,3.75C535.62,239.72,513.82,248.03,491.54,256.52z"/>
	<path class="st0" d="M564.85,237.46c-3.46,6.52-6.56,12.43-9.77,18.28c-0.48,0.88-1.38,1.91-2.26,2.12
		c-20.13,4.85-38.72,13.8-57.8,21.47c-1.12,0.45-2.23,0.91-3.79,1.54c0.7-4.68,1.35-9.02,2.15-14.37
		c-30.88,12.74-59.8,27.25-88.81,44.11c4.26,2.83,7.98,5.31,11.83,7.87c-6.89,4.14-13.96,8.31-20.95,12.62
		c-7.98,4.92-16.12,9.65-22.09,17.18c-0.43,0.54-1.75,0.75-2.54,0.58c-5.76-1.24-11.48-2.62-17.34-3.98
		c1.09-5.16,3.5-8.51,6.94-10.92c8.68-6.07,17.26-12.34,26.34-17.76c31.73-18.92,64.43-36.08,98.49-50.42
		c21.76-9.16,43.98-17.25,66.04-25.69c3.16-1.21,6.6-1.69,9.93-2.43C562.14,237.47,563.13,237.55,564.85,237.46z"/>
	<path class="st0" d="M685.86,732.93c-12.57,6.59-24.53,12.85-36.98,19.38C592.09,637.74,535.26,523.07,478.1,407.76
		c12.54-6.63,24.98-13.2,37.92-20.04C572.75,503.02,629.26,617.88,685.86,732.93z"/>
	<path class="st0" d="M543.23,375.29c5.52-2.24,10.7-4.36,15.88-6.44c1.33-0.53,2.7-0.94,4.32-1.5
		c56.43,115.51,112.74,230.75,169.25,346.42c-6.82,2.62-13.11,5.04-19.71,7.57C656.45,606.11,599.98,490.97,543.23,375.29z"/>
	<path class="st0" d="M641.52,757.44c-3.46,2.38-6.45,4.45-9.61,6.62c-57.21-114.63-114.36-229.14-171.74-344.11
		c3.18-2.2,6.34-4.38,10.12-6.98C527.42,527.89,584.42,642.56,641.52,757.44z"/>
	<path class="st0" d="M730.31,732.2c-3.68,6.12-7.31,12.27-11.1,18.32c-0.45,0.72-1.77,1.14-2.74,1.28
		c-16.71,2.3-30.7,9.69-42.05,22.15c-0.69,0.76-1.65,1.77-2.51,1.79c-8.16,0.21-16.18-0.69-24.83-3.82
		c24.7-20.37,52.58-32.28,82.09-40.93C729.54,731.4,729.92,731.8,730.31,732.2z"/>
	<path class="st0" d="M635.28,771.07c3.06-5.56,8.19-8.73,13.23-11.81c18.13-11.09,37.34-20.05,57.01-28
		c8.8-3.56,17.8-6.62,26.73-9.84c1.56-0.56,3.24-0.76,5.07-1.17c0.75,3.23,0.29,4.73-2.99,5.93c-12.46,4.54-25.04,8.93-37,14.6
		c-15.82,7.51-31.12,16.1-46.56,24.39c-3.19,1.72-6.19,3.94-8.91,6.35C639.51,773.59,637.69,773.54,635.28,771.07z"/>
	<path class="st0" d="M692.75,765.11c4.01,7.82,7.66,14.94,11.31,22.06c0.11,0.21,0.28,0.49,0.23,0.68
		c-1.72,5.49,1.8,9.12,5.45,13.79c-2.4-0.49-3.88-0.64-5.26-1.09c-10.03-3.28-16.74-10.46-22.22-19.07c-3.65-5.74-3.71-5.8,1.56-10
		C686.55,769.31,689.5,767.41,692.75,765.11z"/>
</g>
</svg>
