<?xml version="1.0" encoding="utf-8"?>
<!-- Generator: Adobe Illustrator 24.1.2, SVG Export Plug-In . SVG Version: 6.00 Build 0)  -->
<svg version="1.1" id="Injetor" xmlns="http://www.w3.org/2000/svg" xmlns:xlink="http://www.w3.org/1999/xlink" x="0px" y="0px"
	 viewBox="0 0 812 812" style="enable-background:new 0 0 812 812;" xml:space="preserve">
<style type="text/css">
	.st0{fill:#111825;}
</style>
<g>
	<path class="st0" d="M13.08,315.69c-1.64-1.66-2.98-3.19-4.48-4.52c-4.23-3.76-4.71-8.42-2.49-13.12
		c2.58-5.45,5.84-10.58,9.08-16.34c-2.08-2.11-4.45-4.53-6.83-6.94c-3.49-3.52-4.42-7.47-1.43-11.22
		c3.58-4.49,7.97-8.35,12.07-12.41c1.65-1.64,2.96-1.01,4.36,0.69c1.84,2.24,4.03,4.19,6.08,6.26c0.4-0.34,0.79-0.69,1.19-1.03
		c-1.86-2.46-3.71-4.92-5.57-7.37c0.29-0.34,0.59-0.69,0.88-1.03c6.57-0.02,8.34,7.32,12.74,9.46c5.54-2.66,10.51-5.99,15.97-7.42
		c6.85-1.79,9.68,5.23,14.23,8.57c5.43-3.28,10.65-6.84,16.24-9.69c4.7-2.4,9.7-4.4,14.78-5.81c6.95-1.94,13.03-0.19,18.3,5.21
		c22.27,22.83,44.7,45.52,67.18,68.15c1.43,1.44,3.79,1.96,5.73,2.9c1.99,0.96,4.39,1.48,5.91,2.93c5.69,5.4,11.29,10.93,16.5,16.79
		c1.76,1.98,2.79,5,3.17,7.69c0.59,4.14,4.92,8.18,9.16,8.71c2.81,0.35,6.13,1.38,8.06,3.28c14.33,14.13,28.38,28.54,42.49,42.9
		c1.37,1.39,2.36,3.15,3.77,4.49c3.45,3.27,7.31,3.24,11.87,2.1c24.18-6.04,48.45-11.74,72.68-17.57c1.31-0.32,2.58-0.79,4.48-1.38
		c-6.62-5.16-7.67-11.35-5.06-18.43c-17.42,2.68-27.98-10.13-22.09-28.43c-8.38,2.26-16.43,2.71-23.1-3.72
		c-6.7-6.47-7-14.47-4.77-23.24c-8.27,1.87-16.06,2.05-22.46-4.3c-6.33-6.28-6.81-14.01-5.11-22.51c-8.26,1.5-15.9,1.28-22.08-5
		c-5.99-6.1-6.88-13.51-5.4-21.97c-8.06,1.23-15.52,0.73-21.56-5.33c-6.03-6.06-6.98-13.43-5.75-21.72
		c-7.86,1.15-15.15,0.39-20.99-5.28c-5.81-5.65-7.36-12.75-6.21-20.88c-13.84,1.14-23.25-4.08-26.65-17.94
		c-11.98-2.95-16.69-9.8-14.9-22.23c1.64-11.31,7.16-21.03,13.4-30.3c15.15-22.51,34.13-41.08,58.27-53.75
		c6.6-3.46,14.07-5.93,21.42-7.12c11.45-1.85,18.46,3.72,20.87,14.72c14.13,5.41,18.15,11.31,17.81,26.79
		c7.59-0.87,14.65,0.56,20.09,6.27c5.45,5.71,6.69,12.79,5.6,20.38c20.67,1.14,27.22,7.81,26.58,26.82
		c20.04-1.91,28.85,11.96,25.56,27.53c8.01-1.44,15.54-0.78,21.42,5.44c5.87,6.21,6.68,13.62,4.19,22.18
		c8.76-2.08,16.73-1.82,22.88,5.24c6.13,7.04,5.67,15,2.65,23.77c8.07-3.13,15.66-4.18,22.42,1.64c6.77,5.82,7.71,13.26,5.05,21.71
		c2.22-0.57,4.01-1.14,5.84-1.48c7.68-1.41,14.09,2.57,16.5,9.99c0.31,0.94,1.36,2.03,2.3,2.32c8.88,2.78,12.66,9.6,10.29,18.44
		c-0.32,1.19-0.01,3.12,0.79,3.94c14.29,14.7,28.71,29.29,43.11,43.89c0.34,0.35,0.8,0.58,1.35,0.97c1.73-1.32,3.42-2.62,5.12-3.9
		c3.48-2.63,6.72-2.49,9.83,0.59c3.95,3.91,7.81,7.91,11.95,12.12c2.96-2.36,5.85-5.11,9.85-3.25c3.49,1.63,6.06,4.14,5.87,8.22
		c1.97,0.93,3.98,1.5,5.51,2.68c4.39,3.4,4.81,9.39,1.24,14.2c-4.12,5.54-3.59,12.11,1.13,17.13c2.24,2.38,4.14,4.13,7.99,2.92
		c1.75-0.55,4.87,0.79,6.36,2.28c20.58,20.6,40.99,41.36,61.41,62.11c3.37,3.42,2.96,7.43,1,11.24c-1.27,2.46-0.91,3.94,1.01,5.84
		c8.81,8.73,17.46,17.62,26.19,26.44c0.79,0.8,1.65,1.89,2.62,2.08c8.71,1.66,12.6,9.3,18.2,14.73c1.48,1.43,2.28,4.04,2.5,6.19
		c0.31,3.14,1.61,5.39,3.87,7.43c3.95,3.56,7.04,7.98,12.81,9.46c2,0.51,3.27,4.02,4.77,6.23c0.88,1.29,1.27,3.04,2.39,4.02
		c3.61,3.17,4.11,6.91,2.22,10.98c-1.85,3.99-4.09,7.81-6.37,12.12c5.4,5.49,10.98,11.15,16.56,16.81c2.04,2.07,4.37,3.93,6.07,6.26
		c1.25,1.71,2.49,4.08,2.32,6.03c-0.27,2.95,0.85,4.62,2.73,6.5c8.95,8.95,17.67,18.13,26.73,26.97c3.55,3.46,4.2,7.16,2.34,11.33
		c-1.49,3.32-3.33,6.55-5.45,9.51c-1.51,2.12-1.25,3.33,0.49,5.07c9.5,9.48,18.77,19.18,28.38,28.55c2.97,2.89,3.21,5.58,1.93,9.18
		c-0.61,1.72-0.76,3.91-0.27,5.65c1.24,4.44-1.44,6.84-4.12,9.42c-2.28,2.2-4.72,3.03-7.93,2.09c-1.61-0.47-3.67-0.44-5.22,0.16
		c-3.61,1.41-6.32,1.05-9.16-1.91c-9.97-10.41-20.17-20.6-30.42-31.01c-3.39,2.04-6.53,4.12-9.84,5.89
		c-6.63,3.56-9.87,2.93-15.1-2.4c-8.69-8.86-17.36-17.72-26.21-26.41c-1.24-1.22-3.44-1.45-5.19-2.15c-2.48-1-5.5-1.41-7.32-3.12
		c-6.65-6.23-13.07-12.72-19.2-19.45c-2.58-2.83-4.44-2.69-7.26-0.72c-2.36,1.65-5.04,2.94-7.72,4.01c-1.7,0.68-4.58,1.6-5.39,0.82
		c-5.41-5.2-16.22-4.22-17.01-14.71c-0.06-0.85-0.96-1.72-1.64-2.42c-2.21-2.27-4.31-4.69-6.8-6.61c-1.98-1.52-4.46-2.39-6.71-3.56
		c-2.64-1.36-5.58-2.34-7.84-4.16c-3.14-2.52-5.93-5.53-8.55-8.61c-1.58-1.86-2.55-4.23-3.79-6.38c-0.68-1.17-1.14-2.55-2.05-3.49
		c-9.14-9.3-18.39-18.49-27.51-27.81c-1.61-1.64-2.85-1.78-4.91-0.77c-5.81,2.83-8.61,2.16-13.17-2.44
		c-19.59-19.8-39.16-39.61-58.81-59.34c-2.95-2.97-4.46-6.06-2.88-10.19c0.21-0.55,0.4-1.27,0.23-1.79
		c-0.74-2.33-7.75-7.29-10.27-7.5c-4.22-0.35-7.87,0.1-11.62,2.92c-6.12,4.62-12.95,0.94-14.91-7.41c-8.68-1.8-11.11-7.6-6.19-14.81
		c-3.68-5.25-5.35-5.36-10.26-0.52c-37.61,37.04-75.17,74.13-112.84,111.11c-5.31,5.22-10.96,10.13-16.74,14.83
		c-4.14,3.37-7.72,3.2-10.87-1.02c-5.68-7.62-12.74-9.7-21.99-8.71c-10.29,1.09-20.73,0.7-31.1,1.01
		c-5.55,0.17-10.02-1.98-13.88-5.87c-21.55-21.76-42.15-44.6-65.04-64.86c-16.96-15.01-31.84-31.93-48.45-47.16
		c-2.73-2.51-3.88-5.46-3.85-9.09c0.04-3.91-4.73-8.61-8.7-8.63c-3.62-0.01-6.55-1.25-9.08-3.93c-4.95-5.25-10.26-10.17-15.05-15.55
		c-1.62-1.82-2.8-4.57-2.99-6.99c-0.21-2.62-0.99-4.39-2.79-6.21C50.66,404.5,28.9,382.22,6.85,360.23
		c-6.33-6.31-8.17-13.4-5.24-21.43c2.33-6.37,5.69-12.37,8.67-18.5C10.99,318.83,11.97,317.5,13.08,315.69z M130.33,354.49
		c-24.44-24.82-48.44-49.21-72.72-73.86c4.22-3.54,8-6.89,11.97-9.98c9.1-7.09,18.47-13.78,29.52-17.64
		c4.72-1.65,8.57-1.02,12.33,2.85c20.63,21.25,41.53,42.25,62.2,63.46c2.55,2.62,4.76,3.12,7.88,1.08
		c-0.35-0.49-0.58-0.92-0.91-1.25c-22.27-22.66-44.54-45.32-66.83-67.95c-2.84-2.89-6.44-4.37-10.38-3.34
		c-4.98,1.3-10.34,2.36-14.6,5.02C78.2,259.48,67.6,266.28,58,274.22c-18.61,15.4-35.12,32.92-47.17,54.08
		c-2.82,4.95-4.33,10.74-5.82,16.31c-1.07,4,0.56,7.59,3.57,10.64c21.73,21.95,43.38,43.98,65.06,65.97
		c0.65,0.66,1.42,1.18,2.08,1.72c2.63-4.1,1.07-6.72-1.89-9.68c-20.73-20.8-41.25-41.8-61.92-62.67c-1.87-1.89-3.08-3.84-2.21-6.36
		c1.51-4.34,3.32-8.59,5.5-14.11c24.22,24.6,47.5,48.24,70.44,71.55c12.41-13.89,24.26-27.14,36.42-40.74
		c-23.78-24.16-47.79-48.54-71.97-73.1c1.44-1.27,2.52-2.22,3.78-3.33c24.26,24.64,48.22,48.98,72.36,73.5
		C127.54,356.86,128.66,355.91,130.33,354.49z M623.46,446.02c-0.01,0.01-0.02,0.02-0.03,0.03c-9.85-10.01-19.73-19.99-29.54-30.04
		c-2.11-2.17-3.78-2.95-6.19-0.21c-28.24,32.19-58.47,62.38-90.99,90.25c-4.35,3.73-4.42,4.74-0.46,8.73
		c18.98,19.14,37.96,38.27,56.95,57.39c3.81,3.83,5.4,4.31,9.85,1.28c6.26-4.26,12.67-8.49,18.13-13.67
		c17.69-16.8,35.26-33.75,52.3-51.2c7.28-7.46,13.34-16.15,19.6-24.55c3.11-4.17,2.66-5.21-0.86-8.78
		C642.63,465.49,633.05,455.75,623.46,446.02z M210.93,466.22c8.52-8.39,16.3-16.93,25-24.41c13.36-11.48,26.76-23.14,44.22-28.62
		c-2.15-2.87-4.98-3.59-8.04-2.19c-4.35,1.98-8.8,3.94-12.75,6.59c-31.53,21.06-58.44,47.11-81.69,76.94
		c-4.32,5.54-7.65,11.87-11.12,18.02c-1.92,3.41-1.19,6.51,1.81,9.51c20.02,20.08,39.99,40.2,59.7,60.58
		c5.36,5.54,11.25,8.34,18.86,7.68c1.64-0.14,3.29-0.07,4.93-0.13c10.47-0.38,20.94-0.76,31.51-1.15c0.37-2.06,0.68-3.74,1.02-5.63
		c-13.61,0.15-26.77,0.21-39.92,0.51c-3.38,0.08-5.94-0.46-8.26-3.28c-3.04-3.7-6.69-6.9-10.07-10.32
		c-17.53-17.73-35.08-35.45-52.53-53.26c-0.91-0.93-1.71-3.17-1.22-4.04c2.94-5.24,6.28-10.25,9.79-15.83
		c1.62,1.65,2.67,2.72,3.73,3.78c19.46,19.74,38.92,39.48,58.39,59.21c2.32,2.35,5.5,4.41,1.7,8.54c1.6-0.49,2.52-0.87,3.36-1.36
		c19.04-11.09,37.69-22.78,54.82-36.69c7.16-5.82,13.91-12.15,20.73-18.39c3.07-2.81,5.4-6.14,4.98-11.62
		c-2.49,2.45-4.23,4.42-6.23,6.09c-12.21,10.22-24.5,20.36-36.71,30.57c-2.52,2.11-4.41,1.93-6.79-0.5
		c-22.39-22.89-44.89-45.68-67.35-68.51C212.09,467.63,211.48,466.85,210.93,466.22z M272.34,405.12c-1.18-1.2-1.97-2-2.75-2.8
		c-12.01-12.16-24.03-24.3-36.01-36.49c-5.74-5.84-8.09-6.42-15.71-3.34c-1.64,0.66-3.22,1.48-4.77,2.33
		c-13.5,7.42-25.47,16.94-36.96,27.11c-18.71,16.58-35.45,35.06-51.55,54.1c-3.5,4.14-6.07,9.32-8.05,14.41
		c-2.1,5.41-1.38,10.46,3.45,15.1c12.59,12.1,24.67,24.73,36.97,37.14c0.73,0.74,1.59,1.37,2.46,2.11
		c2.97-6.91,2.95-6.89-1.76-11.66c-11.56-11.71-23.14-23.4-34.59-35.22c-1.02-1.05-2.04-3.36-1.56-4.39
		c2.31-4.98,5.14-9.72,8.14-15.18c14.67,14.9,28.65,29.1,42.14,42.81c15.8-16.77,31.28-33.2,47.12-50.02
		c-13.92-14.13-28.15-28.59-42.62-43.29c13.87-12.27,27.64-23.73,43.88-31.84c2.32-1.16,3.63-0.33,5.21,1.29
		c11.86,12.13,23.81,24.17,35.67,36.29c1.23,1.26,2.1,2.88,3.28,4.53C266.54,407.28,269.11,406.32,272.34,405.12z M437.56,355.56
		c-0.22-0.18-0.43-0.36-0.65-0.54c-8.36,8.24-16.88,16.33-25.06,24.74c-8.9,9.16-16.47,19.87-29.48,24.07
		c0.45,2.69,63.61,67.64,68.21,70.04c1.68-1.65,3.34-3.29,5.3-5.21c-3.88-3.94-7.56-7.67-11.34-11.52c4.46-4.4,8.63-8.5,13.09-12.89
		c3.9,3.96,7.58,7.7,11.23,11.41c9.7-9.55,19.1-18.81,28.79-28.35c-3.97-4.03-7.65-7.77-11.35-11.53
		c17.35-17.08,34.39-33.86,51.74-50.94c4.02,4.08,7.61,7.73,11.21,11.38c1.97-1.94,3.64-3.59,5.6-5.51c-2.9-2.95-5.63-5.72-8.37-8.5
		c-5.16-5.24-5.17-5.24-10.85-0.75c-1.19,0.94-2.42,1.84-3.5,2.9c-28.28,27.72-56.54,55.45-84.8,83.19c-1.32,1.3-2.64,2.6-4.32,4.25
		c-4.04-4.11-7.84-7.96-11.64-11.82c-11.53-11.73-23.09-23.44-34.55-35.24c-0.85-0.87-1.74-3.05-1.31-3.6
		c3.24-4.13,6.8-8,10.58-12.32c15.75,15.99,31.06,31.54,46.36,47.09c8.72-8.59,17.13-16.86,25.9-25.5
		c-15.84-16.09-31.41-31.9-47.09-47.83C433.59,360,435.58,357.78,437.56,355.56z M631.57,587.33c-0.3,0.45-0.5,0.95-0.85,1.25
		c-8.15,6.78-16.17,13.73-24.57,20.2c-2.58,1.99-3.33,3.02-0.82,5.37c2.86,2.69,5.43,5.67,8.33,8.31c1.35,1.23,3.18,2.76,4.78,2.75
		c5.67-0.03,8.79,3.61,12.21,7.19c6.25,6.53,7.74,6.6,15.11,1.29c14.61-10.54,28.28-22.15,40.61-35.3c0.93-1,1.8-2.06,2.7-3.09
		c-0.26-0.23-0.52-0.46-0.78-0.69c-3.74,3.68-7.48,7.36-11.63,11.45c-3.46-3.51-6.58-6.69-9.6-9.75
		c-8.42,7.31-16.38,14.23-24.73,21.48c3.39,3.44,6.44,6.54,9.81,9.97c-3.31,2.2-6.05,4.24-9.02,5.87c-0.89,0.49-2.83,0.33-3.56-0.34
		c-3.33-3.03-6.41-6.35-9.13-9.12c6.88-5.95,13.75-11.53,20.17-17.58c4.18-3.94,6.49-9.29,3.86-14.82
		c-2.39-5.02-6.03-9.5-14.07-7.25c2.9-2.49,4.93-3.97,6.65-5.75c5.92-6.17,12.17-11.89,16.95-19.29
		c4.01-6.22,10.34-10.99,15.88-16.16c3.35-3.13,6.39-2.83,9.75,0.23c4.94,4.5,6.3,8.74,3.41,12.49c-3.94,5.09-8.16,9.99-12.53,14.71
		c-2.97,3.22-7.67,3.35-10.89,0.32c-2.11-1.99-3.61-4.63-5.35-6.92c-0.6,4.67,2.63,7.61,6.08,9.68c4.27,2.57,9.18,2.44,13.24-0.75
		c8.99-7.08,15.8-16.02,20.57-26.39c1.88-4.09,0.86-8.26-2.23-11.62c-2.74-2.97-5.72-5.73-8.57-8.61c-2.08-2.1-3.4-2.07-5.23,0.69
		c-3.53,5.32-7.62,10.27-11.47,15.38c-0.33-0.24-0.66-0.47-0.99-0.71c0.71-1.1,1.49-2.17,2.13-3.32c2.16-3.85,4.28-7.73,6.38-11.61
		c1.32-2.43,0.8-4.29-1.26-6.31c-7.23-7.09-14.25-14.39-21.35-21.61c-2.1-2.13-4.2-4.27-6.59-6.7c-1.35,2.1-2.42,3.74-3.49,5.4
		c0.71,0.8,1.19,1.38,1.72,1.92c8.81,8.91,17.67,17.78,26.38,26.78c0.89,0.92,1.72,3.13,1.23,3.94
		c-7.07,11.87-16.42,21.88-26.76,32.28c1.71-10.11-1.03-17.66-9.75-21.64c-10.02-4.58-18.16-0.61-25.14,7.67
		c-2.47-2.51-4.72-4.79-7-7.11c-8.55,7.65-16.7,14.95-25.13,22.5c10.31,10.47,20.31,20.63,30.69,31.17
		c-2.85,2.09-5.4,3.87-7.84,5.79c-2.26,1.79-3.86,1.69-6-0.56c-8.2-8.62-16.64-17.01-24.99-25.49c-0.95-0.96-1.89-1.92-2.81-2.86
		c-1.79,1.19-3.12,2.07-4.56,3.03c0.39,0.6,0.59,1.08,0.92,1.42c9.16,9.28,18.28,18.6,27.57,27.74c0.9,0.88,2.97,1.17,4.31,0.88
		c1.92-0.42,3.83-1.39,5.47-2.52C617.05,597.62,624.24,592.48,631.57,587.33z M97.47,401.48c5.33,5.42,10.41,10.32,15.17,15.52
		c2.3,2.51,4.29,2.77,6.73,0.58c8.18-7.33,16.93-14.13,24.42-22.11c14.4-15.34,30.69-28.25,48.18-39.71
		c6.14-4.03,12.94-7.05,19.73-10.69c-0.56-0.64-1.32-1.6-2.17-2.47c-4.33-4.43-9.04-8.56-12.94-13.34
		c-4.19-5.13-9.17-5.48-14.59-3.49c-4.48,1.65-8.9,3.71-12.96,6.21c-32.53,20.03-59.42,46.08-81.53,77.13
		c-4.76,6.68-8.33,13.97-7.85,22.47c0.11,1.94,1.05,4.21,2.35,5.65c4.32,4.78,8.97,9.27,13.5,13.86c2.76,2.79,3.86,2.89,5.58-0.75
		c2.67-5.68,4.74-11.65,6.99-17.53c0.97-2.54,0.08-4.47-1.89-6.37c-5.26-5.08-10.3-10.38-15.61-15.77
		C92.83,407.65,94.93,404.86,97.47,401.48z M334.12,500.75c-0.11,0.96-0.26,1.34-0.17,1.63c4.55,13.67,9,27.37,13.78,40.96
		c1.33,3.79,3.86,3.94,6.83,1.02c23.3-22.88,46.59-45.76,69.88-68.65c1.46-1.44,2.92-2.88,4.38-4.31c-0.26-0.32-0.51-0.65-0.77-0.97
		c-1.55,0.92-3.31,1.6-4.6,2.79c-13.57,12.53-27.07,25.14-40.59,37.72c-1.35,1.26-2.76,2.46-4.14,3.68
		c-30.05-30.52-59.8-60.74-90.05-91.47c30.07-7.46,59.53-14.77,89.29-22.16c-1.38-1.8-2.65-2.88-3.13-4.23
		c-0.89-2.53-2.4-2.31-4.46-1.81c-27.16,6.61-54.32,13.23-81.53,19.64c-3.28,0.77-4.9,2.33-5.95,5.35c-1.1,3.17,0.94,4.65,2.7,6.44
		c29.04,29.49,58.07,58.98,87.09,88.48c0.93,0.95,1.77,1.99,2.63,2.97c-4.23,4.17-8.16,8.03-12.38,12.18
		C353.31,520.25,343.89,510.67,334.12,500.75z M705.04,673.92c0.93,0.95,1.88,1.91,2.82,2.87c7.81,7.94,15.62,15.87,23.44,23.81
		c4.35,4.41,5.71,4.73,11.16,1.63c9.44-5.37,17.62-12.4,24.66-20.57c4.92-5.72,9.18-12.02,13.49-18.23
		c1.46-2.11,1.95-4.61-0.33-6.91c-9.38-9.41-18.68-18.9-28.03-28.34c-0.23-0.23-0.66-0.25-0.98-0.37c-2.55,2.53-2.57,4.54,0.16,7.2
		c8.43,8.21,16.54,16.75,24.87,25.06c1.7,1.69,2.3,3.06,0.64,5.13c-1.82,2.26-3.15,4.95-5.13,7.04c-4.56,4.8-9.39,9.34-14.38,14.26
		c-10.04-10.2-19.95-20.26-29.97-30.44c-3.82,3.39-7.35,6.53-11.14,9.9c10.14,10.3,19.96,20.28,30.01,30.48
		c-1.39,1.01-2.55,1.73-3.57,2.62c-2.86,2.48-4.93,1.94-7.54-0.84c-7.87-8.4-16.16-16.41-24.11-24.74
		C708.87,671.14,707.25,671.09,705.04,673.92z M672.17,647.74c1.05,1.07,1.91,1.95,2.78,2.82c5.43,5.49,10.89,10.94,16.27,16.48
		c4.98,5.12,6.49,5.42,12.63,1.53c13.61-8.62,24.85-19.89,35.11-32.15c3.47-4.14,6.35-8.8,9.29-13.35c1.79-2.77,1.34-5.3-1.21-7.77
		c-6.36-6.16-12.49-12.56-18.73-18.85c-0.66-0.66-1.45-1.19-2.07-1.68c-3.76,2.95-3.09,5.18-0.02,8.03
		c6.02,5.6,11.68,11.58,17.33,17.56c0.79,0.84,1.39,2.93,0.91,3.73c-6.06,9.88-14.16,17.97-23.01,26.16
		c-7.96-8.08-15.7-15.94-23.51-23.88c-4.72,4.22-9.03,8.07-13.69,12.23c7.93,8.06,15.61,15.86,23.49,23.86
		c-2.08,1.41-3.84,2.42-5.38,3.7c-2.18,1.82-3.75,1.63-5.71-0.54c-3.55-3.94-7.44-7.59-11.18-11.37c-3.08-3.11-6.15-6.24-9.24-9.38
		C674.75,645.91,673.65,646.69,672.17,647.74z M444.12,281.74c4.55-5.67,4.67-12.94,0.81-17.86c-3.56-4.53-10.18-5.96-16.64-3.17
		c-3.81,1.64-7.63,3.51-10.98,5.92c-20.01,14.36-38.47,30.42-53.38,50.22c-6.7,8.89-13.55,17.75-17.08,28.47
		c-1.18,3.59-1.66,7.73-1.2,11.47c0.77,6.35,7.31,10.72,12.8,9.39c-5.39-1.71-7.57-4.88-6.92-10.45c0.23-1.99,0.54-4.17,1.54-5.82
		c4.07-6.77,8.14-13.58,12.72-20.01c11.03-15.48,23.38-29.86,37.12-43.03c2-1.92,4.33-3.79,2.05-7.32
		c4.83-3.24,9.28-6.93,14.32-9.41c4.78-2.35,10.08-4.16,15.34-4.92c7.47-1.09,11.91,4.32,10.61,11.8
		C444.95,278.6,444.49,280.16,444.12,281.74z M419.49,253.68c2.04-5.67,2.6-11.15-1.01-16.27c-3.29-4.67-8.17-6.42-13.65-5.67
		c-3.32,0.45-6.7,1.51-9.71,2.99c-12.62,6.2-23.09,15.47-33.55,24.61c-15.44,13.5-28.58,29-38.26,47.21
		c-3.35,6.3-5.89,12.87-5.48,20.25c0.44,7.73,8.02,13.92,14.7,12.44c-7.36-2.54-9.77-6.74-8.15-14.52
		c1.01-4.84,3.21-9.01,6.27-13.04c7.84-10.36,14.71-21.49,22.85-31.6c6.56-8.14,14.4-15.24,21.68-22.79
		c1.89-1.96,4.31-3.78,1.53-6.88c1.79-1.32,3.37-2.59,5.05-3.7c7.1-4.7,14.34-9.14,23.15-9.71c6.69-0.44,11.47,1.8,13.14,6.73
		C419.09,246.74,419.03,250.12,419.49,253.68z M392.59,225.45c4.99-12.51-3.56-22.85-16.52-20.53c-4.14,0.74-8.29,2.46-11.95,4.57
		c-20.72,11.91-38.75,27.02-53.42,45.98c-7.61,9.84-14.92,19.95-18.38,32.06c-1.31,4.57-1.61,9.77-0.92,14.47
		c0.94,6.33,7.22,10.51,12.82,9.81c-6.32-3.24-8.12-6.55-7.26-13.74c0.69-5.74,3.05-10.71,6.53-15.4
		c7.46-10.03,14.09-20.71,21.96-30.39c6.76-8.3,14.77-15.57,22.25-23.28c1.89-1.95,3.83-3.82,1.66-6.67
		c7.67-7.33,20.87-12.87,30.23-12.76c8.39,0.1,13.44,5.25,13.32,13.64C392.9,223.96,392.7,224.7,392.59,225.45z M320.65,194.67
		c9.24-6.57,18.54-11.87,29.74-12.33c10.7-0.44,15.94,4.54,16.49,15.2c0.01,0.1,0.33,0.19,0.51,0.29
		c3.12-12.2-5.17-21.8-17.55-19.91c-4.18,0.64-8.44,1.97-12.21,3.89c-18.33,9.36-34.25,21.95-47.92,37.32
		c-10.05,11.3-19,23.36-24.27,37.76c-1.99,5.44-2.92,11-1.63,16.76c1.42,6.35,6.42,10.55,13.07,11.03c-7.02-4.57-9-8.91-6.68-17.31
		c1.21-4.37,3.5-8.5,5.72-12.51c9.91-17.83,22.52-33.59,37.3-47.62c2.57-2.44,5.33-4.68,7.87-7.14
		C322.76,198.48,323.73,196.62,320.65,194.67z M239.4,112.92c7.05-5.16,16.86-9.68,23.66-11c13.5-2.63,19.66,0.16,26.16,11.94
		c0.06-0.64,0.16-1.11,0.14-1.58c-0.46-8.98-8.37-15.92-18.51-14.79c-6.66,0.74-13.37,2.85-19.56,5.52
		c-12.19,5.26-22.59,13.45-32.39,22.29c-13.75,12.41-25.41,26.48-32.84,43.65c-2.8,6.46-4.45,13.16-3.75,20.31
		c0.75,7.62,7.84,14.21,14.65,14.34c-8.46-3.91-9.51-10.8-8.39-18.59c0.63-4.41,2.81-8.08,4.9-12
		c10.53-19.71,24.47-36.52,41.42-50.95c1.73-1.48,3.53-2.89,5.2-4.43C241.86,115.99,242.22,114.34,239.4,112.92z M341.05,171.31
		c2.91-10.12-2.29-18.43-12.51-20.1c-6.26-1.02-12.25,0.58-17.54,3.6c-9.07,5.18-18.04,10.63-26.58,16.65
		c-11.01,7.76-20.4,17.39-28.63,28.06c-7.73,10.03-15.31,20.27-18.37,32.83c-1.07,4.41-1.32,9.31-0.65,13.79
		c0.99,6.61,6.84,11.12,13.39,11.15c-8.17-3.73-9.16-10.25-7.27-17.39c1.06-4.02,2.93-7.99,5.21-11.48
		c6.76-10.34,13.29-20.94,21.09-30.47c7.33-8.95,16.16-16.67,24.33-24.93c2.93-2.97,2.85-3.97-0.82-6.37
		c10.42-6.61,21.09-11.91,33.65-11.25C335.81,155.88,340.54,161.38,341.05,171.31z M506.18,425.01c0,0-0.01-0.01-0.01-0.01
		c-15.14,14.91-30.31,29.78-45.4,44.74c-3.86,3.82-7.61,7.78-11.04,11.99c-0.85,1.05-0.24,3.29-0.31,4.98
		c1.53-0.26,3.61,0.01,4.48-0.89c2.01-2.09,3.07-5.1,5.14-7.1c11.48-11.03,23.42-21.6,34.68-32.84
		c21.92-21.89,43.46-44.16,65.27-66.15c2.48-2.5,5.85-4.11,8.56-6.43c0.73-0.62,1.08-3.08,0.66-3.38c-1.13-0.82-2.9-1.47-4.19-1.18
		c-1.31,0.3-2.42,1.73-3.49,2.78C542.4,389.34,524.3,407.18,506.18,425.01z M429.06,305.07c1.7-1.36,3.32-2.77,5.05-4.02
		c6.43-4.68,12.71-9.8,20.72-11.44c2.93-0.6,6.14,0.1,9.21,0.37c1.47,0.13,2.9,0.66,4.83,1.12c-1.78-5.8-4.81-8.25-9.44-7.58
		c-2.8,0.4-5.72,1.38-8.12,2.85c-4.73,2.9-9.28,6.12-13.64,9.55c-23.26,18.3-44.72,38.42-61.31,63.17
		c-3.47,5.18-6.27,10.97-8.39,16.83c-1.74,4.83,0.74,8.42,5.13,9.54c0.04-0.36,0.18-0.74,0.1-1.05c-1.82-6.88,1.22-12.61,4.34-18.3
		c0.28-0.52,0.86-1.32,1.21-1.28c4.21,0.47,5.48-3.11,7.5-5.48c6.16-7.21,11.96-14.73,18.29-21.77c8.11-9.03,16.61-17.7,24.93-26.54
		C432.34,308.03,432.27,307,429.06,305.07z M222.13,229.89c-6.04-3.25-8.08-8.59-6.92-14.74c0.89-4.7,2.71-9.36,4.86-13.66
		c9.8-19.57,23.64-36.05,39.71-50.75c2.14-1.96,4.61-3.61,6.51-5.76c0.97-1.1,1.02-3,1.49-4.54c-1.69-0.41-3.03-2.27-5.19-0.57
		c-4.26,3.35-8.96,6.15-13.1,9.63c-15.66,13.17-28.82,28.44-36.75,47.49c-2.32,5.57-3.52,11.93-3.7,17.97
		C208.82,223.11,214.55,228.93,222.13,229.89z M442.89,317.79c-0.29-0.21-0.59-0.42-0.88-0.63c1.74-1.46,3.34-3.16,5.26-4.33
		c6.97-4.26,13.98-8.48,21.15-12.38c1.56-0.85,3.87-0.43,5.84-0.42c1.87,0.01,3.73,0.26,6.46,0.47c-4.28-5.31-8.33-6.63-13.13-3.79
		c-6.93,4.09-13.74,8.51-20.07,13.47c-23.23,18.17-43.89,38.94-61.09,62.96c-3.34,4.66-5.96,9.98-8.1,15.33
		c-1.72,4.31,0.18,7.25,4.41,8.56c-1.81-7.58,1.38-13.68,5.47-19.47c0.59-0.83,1.58-1.43,2.47-2c1.59-1.01,3.61-1.59,4.83-2.91
		c14.5-15.69,28.87-31.49,43.29-47.25c1.11-1.21,2.56-2.2,3.35-3.58C442.78,320.69,442.67,319.15,442.89,317.79z M331.83,546.65
		c-0.34-0.33-0.67-0.66-1.01-0.99c-16,12.21-30.43,25.96-41.73,42.38c4.12,4.18,7.78,7.9,11.17,11.34
		c13.94-14.67,27.61-29.06,41.28-43.45c-0.16-0.17-0.31-0.34-0.47-0.51c-6.58,5.63-13.17,11.25-19.98,17.07
		c-1.03-0.96-2.05-1.86-3.02-2.82c-4.68-4.61-4.73-4.66-0.07-9.37C322.55,555.69,327.22,551.2,331.83,546.65z M153.62,392.97
		c-12.41,10.9-23.23,22.66-32.79,35.58c-3.53,4.78-3.37,4.75,0.91,8.89c2.35,2.27,3.83,2.27,6.09-0.24
		c10.38-11.54,20.96-22.9,31.46-34.32c0.65-0.71,1.25-1.48,1.89-2.24C158.63,398.06,156.26,395.65,153.62,392.97z M577.86,386.85
		c-0.12-0.09-0.24-0.18-0.36-0.27c-37.22,36.65-74.44,73.29-111.66,109.94c0.27,0.32,0.54,0.63,0.82,0.95
		c7.59-6.42,15.18-12.84,22.78-19.26c0.22,0.24,0.44,0.48,0.66,0.71c-4.13,4.07-8.26,8.14-12.4,12.2c0.3,0.3,0.6,0.59,0.9,0.89
		c17.76-17.49,35.52-34.97,53.28-52.46c-0.09-0.13-0.18-0.25-0.26-0.38c-3.56,3.07-7.13,6.13-10.69,9.2
		c0.47-1.15,1.19-2.01,1.98-2.81c15.98-16.23,32.03-32.39,47.87-48.74C573.58,393.92,575.52,390.19,577.86,386.85z M172.35,183.87
		c-2.05-8.78-3.66-16.77,1.53-24.26c2.11,1.88,2.87,0.34,3.9-1.39c3.43-5.75,6.76-11.6,10.61-17.07
		c8.55-12.15,18.5-23.08,29.79-32.8c1.11-0.96,1.11-3.2,1.63-4.85c-1.84,0.11-4.23-0.49-5.43,0.45
		c-16.95,13.25-31.11,29.03-40.9,48.26c-3.09,6.07-4.69,13.02-6.19,19.74C166.37,176.1,167.83,180.21,172.35,183.87z M792.33,727.83
		c-0.29,0.32-0.59,0.64-0.88,0.96c-1.1-0.87-2.29-1.64-3.28-2.62c-8.88-8.84-17.7-17.74-26.59-26.57c-0.91-0.9-2.15-1.48-3.24-2.21
		c-0.28,0.33-0.55,0.66-0.83,0.99c0.9,1.09,1.71,2.27,2.7,3.27c8.16,8.31,16.34,16.59,24.52,24.87c4.89,4.96,6.88,5.07,12.33,0.5
		c1.5-1.26,2.81-2.74,3.93-3.84c-1.5-1-2.92-1.66-3.96-2.7c-9.21-9.23-18.39-18.48-27.46-27.84c-1.8-1.86-3.16-2.18-4.94-0.25
		c-1.07,1.16-2.24,2.22-3.64,3.6C771.62,706.79,781.97,717.31,792.33,727.83z M389.8,230.54c-3.04-5.9-6.08-7.41-11.91-5.62
		c-2.64,0.81-5.27,1.86-7.66,3.24c-19.44,11.23-34.38,27.24-47.49,45.13c-0.56,0.76-0.72,2.61-0.2,3.21
		c2.44,2.84,5.19,5.43,8.02,8.31c5.97-6.96,11.6-13.52,17.49-20.39c-2.9-2.95-5.7-5.79-8.72-8.86
		c10.95-10.84,22.11-20.61,35.77-27.18c3.65-1.76,6.69-1.7,9.18,1.94C385.95,232.78,387.87,232.52,389.8,230.54z M362.57,202.88
		c-2.71-4.72-5.26-6.21-10.16-5.46c-2.34,0.36-4.69,1.1-6.86,2.07c-16.13,7.18-28.12,19.58-39.86,32.19
		c-3.78,4.06-7,8.64-10.29,13.12c-0.66,0.9-1.09,2.94-0.57,3.56c2.4,2.88,5.17,5.45,8,8.32c5.93-7.01,11.51-13.61,17.35-20.52
		c-2.92-2.96-5.63-5.71-8.44-8.58c2.91-2.86,5.37-5.59,8.14-7.95c8.68-7.41,17.64-14.42,28.39-18.68c3.23-1.28,6.34-1.9,8.71,1.69
		C358.67,205.21,360.62,204.6,362.57,202.88z M309.38,148.51c-2.29-4.21-5.81-5.84-10.18-5.32c-2.72,0.33-5.49,1.01-8.04,2.03
		c-9.49,3.79-17.66,9.7-25.41,16.27c-9.31,7.88-17.54,16.75-24.52,26.74c-0.87,1.24-1.81,3.7-1.23,4.47
		c2.24,2.95,5.08,5.44,7.78,8.17c5.99-6.92,11.58-13.38,17.47-20.2c-2.81-2.86-5.58-5.67-8.82-8.96c5.16-4.24,9.79-8.31,14.69-12.02
		c7.56-5.74,15.46-10.93,24.78-13.5c2.85-0.78,5.5-0.96,7.43,1.89C304.98,150.51,306.96,150.3,309.38,148.51z M335.84,175.57
		c-3.14-5.06-7.12-6.42-13.38-4.44c-7.92,2.51-14.85,6.83-21.37,11.9c-12.54,9.76-23.8,20.75-32.75,33.94
		c-0.69,1.01-1.15,3.16-0.58,3.87c2.15,2.72,4.77,5.06,7.33,7.66c5.9-6.95,11.48-13.54,17.29-20.39c-2.75-2.79-5.28-5.36-8.47-8.6
		c6.93-5.54,13.19-11.26,20.16-15.91c6.02-4.01,12.79-6.91,19.35-10.05c2.45-1.17,4.99-0.68,6.72,1.78
		C331.98,177.95,333.86,176.99,335.84,175.57z M482.17,306.73c-0.28-0.45-0.57-0.9-0.85-1.35c-2.41,1.17-5.15,1.93-7.17,3.58
		c-12.89,10.57-25.98,20.95-38.31,32.14c-13.96,12.67-26.87,26.44-37.56,42.09c-1.99,2.91-3.7,6.02-5.53,9.04
		c9.98-9.75,19.11-20.05,28.61-29.99c9.61-10.05,19.26-20.12,29.53-29.49C460.89,323.63,471.71,315.37,482.17,306.73z
		 M527.63,362.21c-15.57-15.82-30.86-31.35-46.35-47.07c-1.78,1.43-3.39,2.72-5.05,4.05c15.75,16,31.2,31.69,46.8,47.54
		C524.63,365.16,526.04,363.78,527.63,362.21z M502.02,480.85c2.22,2.26,4.34,4.23,6.24,6.4c1.42,1.61,2.55,1.6,4.07,0.18
		c4.89-4.57,9.87-9.02,14.76-13.59c2.73-2.55,5.35-5.24,8.09-7.94c-3.14-3.19-5.89-5.99-8.85-8.99
		C518.19,464.93,510.3,472.7,502.02,480.85z M384.7,338.92c5.73-6.4,11.5-12.83,17.33-19.34c-2.19-2.45-4.17-4.66-6.34-7.08
		c10.19-10.58,20.62-20.24,32.99-27.59c5.61-3.33,5.65-3.26,10.55,1.09c0.17,0.15,0.46,0.18,0.89,0.33c1.06-0.83,2.2-1.71,3.36-2.61
		c-5.15-5.52-7.09-5.89-13.27-2.52c-1.88,1.02-3.69,2.19-5.45,3.41c-16.34,11.35-29.92,25.63-42.42,40.92
		c-6.07,7.43-6.35,5.14,1.06,12.68C383.66,338.46,384.05,338.57,384.7,338.92z M649.09,652.18c2.1-0.01,3.84,0.47,5.09-0.11
		c3.52-1.65,6.99-3.51,10.21-5.68c18.9-12.79,34.88-28.77,49.41-46.21c5.95-7.15,11.01-15.05,16.34-22.7
		c1.25-1.8,2.16-3.97,0.29-6.09C709.79,604.52,681.98,630.01,649.09,652.18z M359.2,313.68c5.94-6.82,11.61-13.34,17.27-19.84
		c-3.7-3.75-7.17-7.29-11.23-11.4c-5.2,6.56-10.17,12.71-14.96,19.01c-0.51,0.68-0.41,2.55,0.16,3.2
		C353.19,307.75,356.18,310.62,359.2,313.68z M645.49,647.33c-3.84-3.73-0.37-4.34,0.98-5.39c5.19-4.01,10.83-7.49,15.81-11.73
		c21.81-18.57,42.05-38.67,58.7-62.13c0.55-0.78,1.36-1.37,2.83-2.82c-0.23,2.55-0.35,3.79-0.46,5.04c1.5-1.95,2.65-4.03,2.76-6.16
		c0.06-1.13-1.48-2.62-2.66-3.41c-0.46-0.31-2.25,0.59-2.85,1.38c-6.67,8.86-12.56,18.41-19.94,26.61
		c-17.92,19.92-36.45,39.32-60.15,52.73c-0.74,0.42-1.67,1.59-1.55,2.22c0.21,1.09,0.99,2.33,1.9,2.95
		C641.67,647.18,643,647,645.49,647.33z M16.03,311.47c3.45-4.27,6.72-8.41,10.1-12.46c6.77-8.09,6.94-5.46-0.86-13.64
		c-1.54-1.62-3.16-1.94-4.52-0.45c-3.09,3.37-6.46,6.68-8.68,10.6C7.6,303.42,8.38,305.65,16.03,311.47z M227.13,144.71
		c-4.85,6.3-9.52,12.31-14.1,18.41c-0.39,0.52-0.44,1.88-0.06,2.31c2.32,2.58,4.81,5,7.3,7.53c5.48-6.55,10.62-12.69,15.93-19.03
		C233.43,151.11,230.72,148.36,227.13,144.71z M516.24,436.64c-10.28,5.51-32.91,28.26-34.86,35.16
		C495.61,462.5,506.38,450.42,516.24,436.64z M19.46,257.53c-0.37-0.29-0.73-0.59-1.1-0.88c-2.71,3.25-5.56,6.4-8.04,9.82
		c-0.58,0.8-0.4,2.92,0.27,3.72c2.4,2.86,5.17,5.42,7.83,8.12c2.69-2.64,4.99-4.91,7.64-7.52c-3.22-3.27-6.27-6.37-9.31-9.46
		C17.84,259.81,18.65,258.67,19.46,257.53z M232.48,141.54c7.13-5.5,13.27-10.78,19.98-15.22c4.56-3.02,9.8-5.13,14.95-7.09
		c3.01-1.15,6.61-1.62,9.06,1.57c1.92,2.5,3.82,2.23,6.23,0.45c-2.21-3.6-5.53-5.14-9.31-4.45c-4.3,0.78-8.73,1.85-12.57,3.82
		c-6.38,3.28-12.53,7.09-18.39,11.24c-4.57,3.24-8.55,7.32-12.97,11.18c2.76,2.81,4.97,5.21,7.38,7.39
		c0.59,0.53,1.84,0.34,2.78,0.48c-0.24-0.95-0.2-2.13-0.77-2.8C237.08,146.04,235.07,144.17,232.48,141.54z M280.57,130.69
		c17.01-5.07,29.39-4.62,34.37,10.2c1.15-5.47-1.48-11.15-6.62-14.28C300.76,122.01,289.79,123.48,280.57,130.69z M806.83,715.02
		c0.49-3.67-25.86-31.84-31.49-33.99c0.18,1.27,0.56,2.52,1.37,3.35c6.49,6.7,13.07,13.32,19.62,19.97
		C799.67,707.75,803.01,711.14,806.83,715.02z M417.95,258.8c-5.03-7.27-7.89-8.66-13.64-6.73c-7,2.35-20.79,11.95-25.41,17.89
		c1.38-0.87,2.58-1.98,3.94-2.84c6.37-4.05,12.72-8.15,19.21-12.01c3.02-1.8,5.95-1.61,8.27,1.64c1.14,1.59,2.74,2.86,4.15,4.29
		C415.89,260.14,416.91,259.47,417.95,258.8z M688.66,608.29c-8.9,8.14-17.79,16.27-26.69,24.41c0.36,0.4,0.73,0.79,1.09,1.19
		C673.63,627.52,682.5,619.36,688.66,608.29z M25.28,280.38c9.52-8.12,19.03-16.24,28.55-24.36
		C41.99,261.42,31.9,268.86,25.28,280.38z M710.86,567.61c0.38,0.18,0.75,0.36,1.13,0.54c1.44-2.74,2.99-5.42,4.25-8.24
		c0.31-0.7,0.03-2.09-0.51-2.69c-2.61-2.88-5.41-5.59-8.16-8.39c-3.96,4.82-3.96,4.82-0.11,8.76c0.62,0.63,1.18,1.33,1.86,1.88
		C712.02,561.68,713.78,564.06,710.86,567.61z M165.13,397.12c1.24-1.22,2.33-2.29,3.48-3.43c-2.54-2.58-4.89-4.97-7.48-7.59
		c-1.25,1.12-2.4,2.15-3.64,3.27C160.18,392.1,162.6,394.55,165.13,397.12z M574.88,406.38c-1.13,1.68-1.97,2.91-2.89,4.27
		c2.45,2.49,4.8,4.87,7.43,7.55c1.12-1.58,2.08-2.94,2.97-4.19C579.8,411.38,577.53,409.08,574.88,406.38z M109.45,449.65
		c-3.29,4.35-1.49,6.48,3.41,9.88C115.75,455.03,115.75,455.03,109.45,449.65z M344.64,337.72c0.08-1.8,0.73-3.58,0.11-4.48
		c-2.09-3.06-4.63-5.81-6.78-8.41C336.54,330.62,337.71,333.28,344.64,337.72z M207.56,354.36c4.41,6.21,4.8,6.35,9.83,3.5
		C213.49,352.31,212.42,351.92,207.56,354.36z M577.77,380.62c-1.16-3.33-3.78-4.46-6.14-2.39c-2.71,2.37-5.18,5.03-8.08,7.89
		C568.82,384.08,573.3,382.34,577.77,380.62z M310.42,296.55c-1.48,5.73,0.01,9.47,5.45,12.55c1.45-1.75,1.77-3.07-0.22-5.05
		C313.48,301.89,312.05,298.96,310.42,296.55z M289.2,282.02c-0.01-1.88,0.48-3.56-0.12-4.62c-1.78-3.16-3.99-6.08-5.72-8.64
		C281.93,274.36,283.24,278.07,289.2,282.02z M261.81,254.27c-0.06-1.96,0.36-3.57-0.22-4.64c-1.66-3.07-3.73-5.92-5.3-8.32
		C254.86,246.59,256.03,250.14,261.81,254.27z M228.97,213.85c-1.41,4.9-0.22,8.4,4.67,12.22c1.75-1.97,1.44-3.44-0.43-5.41
		C231.34,218.67,230.23,215.95,228.97,213.85z M464.89,483.94c-1.96,1.93-4.44,4.21-6.72,6.66c-2.41,2.59-1.38,5.15,1.65,5.81
		C461.6,492.04,463.33,487.77,464.89,483.94z M202.25,186.69c-1.64,4.24-0.4,8.34,5,12.41c-0.21-2.1,0.02-3.69-0.56-4.87
		C205.33,191.46,203.58,188.89,202.25,186.69z M369.63,359.5c-1.46-3.03-2.64-5.48-3.68-7.64c-2.32,4.4-1.85,7.12,2.29,10.13
		C368.83,360.92,369.42,359.88,369.63,359.5z M259.26,81.96c2.11,5.67,5.76,4.47,8.9,4.67c0.14-0.38,0.29-0.77,0.43-1.15
		C265.8,84.43,263,83.38,259.26,81.96z"/>
	<path class="st0" d="M632.09,504.81c-6.84,6.73-13.55,13.34-20.49,20.17c-20.31-20.63-40.85-41.49-61.69-62.66
		c6.81-6.7,13.53-13.32,20.49-20.17C590.75,462.83,611.19,483.59,632.09,504.81z"/>
	<path class="st0" d="M572.92,438.79c4.93-5.44,9.73-10.74,14.8-16.33c1.12,1.04,2.06,1.84,2.92,2.71
		c18.66,18.92,37.3,37.88,56.02,56.74c1.81,1.83,1.98,3.08,0.3,5.05c-4.07,4.76-7.96,9.67-12.1,14.74
		C613.97,480.48,593.59,459.78,572.92,438.79z"/>
	<path class="st0" d="M574.28,560.88c-3.82,2.85-7.36,5.66-11.12,8.11c-0.67,0.44-2.62-0.23-3.41-0.99
		c-4.39-4.19-8.6-8.56-12.87-12.86c-14.7-14.8-29.4-29.6-44.1-44.39c-0.61-0.61-1.21-1.23-2.19-2.22c4.07-3.54,7.9-6.88,11.92-10.38
		C533.12,519.08,553.41,539.68,574.28,560.88z"/>
	<path class="st0" d="M544.01,468.51c0.89-0.87,1.65-1.63,2.61-2.57c20.58,20.91,41.03,41.68,61.8,62.77
		c-0.72,0.81-1.49,1.66-2.45,2.73C585.2,510.34,564.67,489.49,544.01,468.51z"/>
	<path class="st0" d="M645.74,566.85c-4.94,4.96-13.23,5.09-18.07,0.3c-5.38-5.34-5.35-13.58,0.08-18.95
		c5.2-5.15,13.36-5.19,18.31-0.09C651.1,553.3,650.96,561.61,645.74,566.85z"/>
	<path class="st0" d="M640.27,573.74c-9.48,3.36-19.02-1.75-21.4-11.07c-1.92-7.52,1.66-18.04,11.12-19.76
		c-6.89,5.83-11.74,12.25-7.81,21.19C625.55,571.74,632.2,574.25,640.27,573.74z"/>
	<path class="st0" d="M140.15,357.45c7.9-5.95,15.08-11.68,22.6-16.91c5.37-3.73,11.17-6.86,16.89-10.05
		c0.94-0.53,2.96-0.57,3.62,0.06c5.36,5.15,10.52,10.52,16.08,16.17c-4.74,3.1-9.32,5.89-13.68,8.99
		c-8.32,5.94-16.58,11.97-24.73,18.15c-2,1.51-3.11,1.74-4.95-0.23C151.09,368.37,145.94,363.34,140.15,357.45z"/>
</g>
</svg>
