<svg id="Injetor" xmlns="http://www.w3.org/2000/svg" viewBox="0 0 766.15 812"><defs><style>.cls-1{fill:#d49f4d;}</style></defs><path class="cls-1" d="M548,523.72c-.7,1.14-1.11,2.75-2.13,3.37-17.93,11-33.22,24.83-45,42.34-1.27,1.9-2.46,3.86-3.55,5.87s-2,4.12-3.16,6.54c-2.4-1.66-7.82,4.1-7.57-4.32-5.11,2.8-7.62-.77-10.59-3.69-7.24-7.14-14.6-14.16-22-21.15a4.58,4.58,0,0,0-3-1.22c-4.56.16-7.7-2.1-10.85-5.12-25.25-24.18-50.67-48.19-75.94-72.35-13.56-13-25.91-27.45-40.64-38.9-18.61-14.46-34-32.09-51.68-47.43a37.72,37.72,0,0,1-4.62-4.49c-1.78-2.19-3.65-2.14-6.35-1.82-7.06.84-14.26,1.58-21.31,1.06-3.63-.26-7.4-2.84-10.51-5.16-7-5.21-13.42-11.2-20.47-16.32a43.59,43.59,0,0,0-26.21-8.23c-9.86,0-18.49-2.95-25.59-10.15-4.82-4.9-9.88-9.6-15.16-14-4.7-3.9-5.85-8.63-4.55-14.21.65-2.77,1.94-5.4,2.53-8.18.34-1.56-.17-3.3-.25-5-.07-1.18-.41-3.27,0-3.42,3.07-1.17,2.19-3.84,2.7-6,.59-2.49,1-5.13,2.25-7.35,9.27-17.2,22.37-31.37,36.12-45.39A789.84,789.84,0,0,1,262,304.73l-14.9,22.4,1,.72c15.26-18.68,32-35.83,51.79-49.14L222.46,200l31.91-19.29c-2.06,0-4.41-.71-5.94.11-9.32,5-19.06,9.46-27.55,15.65-27.12,19.76-51.44,42.5-70.62,70.31a92.65,92.65,0,0,1-6,8.43c12.33-29.51,34.37-51,59-70.25l-.67-.85c-1.64,1.12-3.31,2.2-4.92,3.36s-3.17,2.43-5.7,4.38c-.82-1.38-1.68-2.84-2.79-4.73-2.43,1.87-4.54,3.25-6.36,4.94-18.71,17.41-33.68,37.45-42.06,61.84-1.6,4.68-1.4,9.95-2.41,14.88a5.16,5.16,0,0,1-3.05,3.1c-5,1.68-9.37.59-13.33-3.25-8.65-8.36-17.57-16.45-26.38-24.65-6.34-5.9-5.34-17.4,2.36-22.67,6,5.54,11.55,11.81,18.19,16.63,9,6.55,12.22,14.73,10.26,25.37-.49,2.64.18,4.54,2.74,4.73,0-6.43-.15-12.9.1-19.36.07-1.71,1.14-3.52,2.11-5.06q11.4-18.19,23-36.26a14.3,14.3,0,0,1,4.17-4.21c13.49-8.61,24.29-19.93,33.76-32.68a9.15,9.15,0,0,1,3.3-2.5c2.15-1.07,4.43-1.88,6.93-2.91-.5-.24-.72-.43-.81-.38-7,4.08-12.18,1.5-17.35-4-6.37-6.74-13.5-12.77-21.32-20,6.58-2.37,12.3-4.26,17.88-6.5,4.28-1.72,7.34-.72,10.64,2.5,6.66,6.5,13.81,12.49,20.69,18.77a28.45,28.45,0,0,1,3,4l10.84-2.37c-.65-.7-1.17-1.33-1.76-1.88-7.07-6.49-14.63-12.54-21.08-19.59-5.27-5.76-10.76-6.29-17.64-4.52-12.24,3.16-23.63,7.84-33,16.65-11.24,10.62-23,20.74-33.47,32.1-10.06,11-18.27,23.5-23,37.91-1.06,3.18-5.34,4.1-9.39,1.91a22.85,22.85,0,0,1-4.39-3.42C64.58,219.8,47,203.2,29,187c-5.53-5-7.37-10.72-5.12-17.3,2.71-7.94,6.38-15.54,9.68-23.27.55-1.28,1.36-2.46,2.18-3.92-2.78-2.49-5.38-4.93-8.09-7.23a8.9,8.9,0,0,1-3.07-10A42,42,0,0,1,47,98.37c5.94-3,11.86-3,16.94,2.33,2.07,2.16,4.46,4,6.68,6,4.25-1.78,8.49-3.44,12.61-5.38a6.17,6.17,0,0,0,2.69-2.94C96,75.15,106.21,52,116,28.63c2.75-6.55,6.76-10.83,13.37-13.46,10.77-4.27,21.34-9,31.89-13.83,4.9-2.23,8.92-1.71,13,1.84,13.82,12.05,27.81,23.9,41.68,35.89,5.67,4.91,6.35,9.13,3.12,16q-19.71,41.7-39.33,83.46c-.54,1.14-1,2.33-1.59,3.71-7.42-1.71-13.92,1.13-20,4.59C127.7,164.08,103.34,187.13,90,220.23a48.73,48.73,0,0,0-2.4,10.37c-.56,3.36,1.29,5,4.48,5.3,9.81-34.21,32.6-58,61.38-76.69a107.78,107.78,0,0,1,22-10.56c6.07-2.2,12.71-3.05,19.18-3.86a9.76,9.76,0,0,1,6.84,2.3c9.75,8.65,19.38,17.46,28.68,26.58,2.3,2.25,3.24,5.88,5,9.23,3.09-1.7,7.08-4.07,11.22-6.13,5.71-2.84,8-2.4,12.71,2a25.11,25.11,0,0,1,3.36,3.32c2.26,3.05,4.81,3.21,8.18,1.77,4.9-2.08,9.32-.19,13.54,3.13l-8.87.63,66.05,15,.45-.61c-3.3-1.7-6.44-4-9.94-5-11.67-3.34-23.49-6.19-35.24-9.28-4-1-7.9-2.25-12.13-3.47.32-1.59.6-2.93.93-4.58-5.61-2.86-7.14-7.26-4.93-13.39,1.54-4.28,2.31-8.85,3.37-13.3,1.3-5.48,4.05-7.29,10.23-6.34l-4.68,4.18c5.23-.66,9.88-1.37,14.56-1.76a14.4,14.4,0,0,1,5,.82c7.5,2.14,8.19,3.35,6.52,10.92-.18.83-.46,1.65-.66,2.49-1.79,7.6-3,8.93-10.88,8.62-5.17-.2-10.29-1.7-16.27-2.77l9.09,5.4-8.12,2,.09,1.11H302c-.42,2.47-.73,4.25-1.1,6.43l18,3.86c.68-2.14,1.28-4,2.11-6.59,5,2,9.92,3.52,14.45,5.79,3.75,1.88,7.12,4.5,5.7,9.8-.19.73.91,2.19,1.78,2.76,1.66,1.09,3.63,1.69,5.38,2.65,4.66,2.53,6.4,5.87,5.32,11-3.77,17.77-7.72,35.49-11.45,53.26a14.23,14.23,0,0,0,.17,6.62c3,10.32,1.84,20-3.77,29.89-4.32-5.14-8.8-2.65-13.18-.35a49.62,49.62,0,0,0-10.35,6.92c3.28-1.35,6.54-2.76,9.85-4,7.28-2.8,13.22-2.16,19.37,4,15.42,15.36,31.7,29.87,47.51,44.85,1.78,1.69,2.76,4.24,4.38,6.81-15.27-.74-24.89,8.24-34.94,16-3.46,2.69-6.16,6.37-9.38,9.78L471.33,501.05l-25.78,34.66C407,498.94,367.63,461.43,328.18,423.84c-2.26,3.77-1.7,6.43,1.46,9.43q46.77,44.37,93.28,89c7.25,6.93,14.42,13.94,21.7,20.84a44.4,44.4,0,0,0,4.58,3.42c13.64-29.32,33.5-51.23,63.69-63.12-.84-5.72-1.24-6.05-7.13-3.82a55.17,55.17,0,0,0-10.11,4.65c-3.11,2-5.06,1.61-7.65-.92-12.72-12.4-25.66-24.59-38.45-36.91-1.85-1.78-3.37-3.9-5.23-6.09L466,427.55c7.6,7.32,15.62,15.06,23.66,22.78,8.37,8,16.77,16.05,25.11,24.11,1.11,1.07,2.67,2.35,2.79,3.65.45,4.81,3.74,7.48,6.84,10.44,7,6.72,13.92,13.64,21.14,20.18,3,2.75,4,5.34,2.12,8.11,1.56,1.38,3.76,2.39,4,3.76.4,2.12-1.25,3.61-3.78,3.25-2-.24-4.24-1.22-5.84-.57-3.53,1.43-6.71,3.71-10.07,5.58a19,19,0,0,1-3.35,1.52c-1.72.56-3.82.5-5.18,1.49a100.88,100.88,0,0,0-24,24.27A199.84,199.84,0,0,0,489,573.76c-1.37,2.47-1.31,5,2.23,5.77,2.09-4.38,3.78-8.79,6.17-12.79a107.7,107.7,0,0,1,24.77-28.27C529.87,532.18,538,526.33,548,523.72ZM66,212.87l3.23,4.35c4.36-10,8.47-19.42,12.56-28.84a2.81,2.81,0,0,0,.1-.84l-.15.15c2.31-3.67-.17-5.48-2.85-7.08-1.63-1-3.42-1.7-5.84-2.88l7.9-4.21a86.18,86.18,0,0,0-15.14,4.61c-5.24,2-5.53,1.74-5.51-3.91,0-7.09,0-14.18,0-21.48-4.86,2.11-1.92,8.08-5.07,11.29-.58-.69-1.07-1.26-1.46-1.71V179.5l-10.41-9.44-2.56,3.76A73.38,73.38,0,0,1,35,169c-.73-.75-1.43-2.33-1.12-3.18A103.11,103.11,0,0,1,53.41,133l53.24,48.57,20.65-20.21c-6.43.41-14.47,1.2-22.52,1.36a17.73,17.73,0,0,1-13.87-5.63c-4.61-4.88-9.76-9.25-14.6-13.92-6.52-6.3-6.6-9-.87-16.29A6.86,6.86,0,0,0,77,123.57c.51-4.84.81-9.69,1.18-14.4a77.21,77.21,0,0,0-27,20.53C41.67,141,34.24,153.53,29.85,167.63c-3,9.7-1.27,13.37,7.15,18,.79-2.81,1.61-5.67,2.71-9.55l10.38,9.44-10.42,5c3.25,1.73,5.29,3.64,7.42,3.74,2.31.1,4.69-1.5,7.39-2.49.81,3.79,1.6,7,2.13,10.19.94,5.66,4.93,8.6,9.52,11.07ZM308.9,312.6l-18.81,17c18.7,17.68,36.75,34.77,54.91,52-10.27,11.13-18.81,22.81-25.08,36.38-18.13-17.32-36.08-34.45-54.09-51.64-2.29,3.62-2.06,6.15,1.29,9.29,17.45,16.36,34.59,33.05,51.86,49.61a15.49,15.49,0,0,0,2,1.43c13.36-31.64,34.41-55.59,65.7-70.23-8.79-1.26-15.05,4.95-22.39,8.38C346,347.49,327.71,330.32,308.9,312.6ZM167.54,72.33c5.29-1.35,9.47-1.89,13.22-3.46,10.16-4.24,20.16-8.86,30.16-13.46a7.78,7.78,0,0,0,3.28-3c2.43-4.29,1.7-6.66-3-10.65C197.66,30.07,184,18.48,170.52,6.76c-2.28-2-4.23-2.22-6.94-1-10.94,5-22,9.76-33,14.57-10.07,4.41-13.29,14.32-6.76,23.16s14.72,16.57,24.53,21.77C154.58,68.55,161.62,70.2,167.54,72.33Zm-49.9-31.11c-.81,1.65-1.59,3.1-2.26,4.6C105.3,68.55,95.58,91.45,85,113.93c-3.91,8.28-2,14.82,3.05,20.85,4.39,5.2,9.82,9.54,14.83,14.21,5.43,5.07,12.14,5.81,19.17,5.76,3.29,0,5-1.28,6.43-4.33,9.26-20.28,18.71-40.48,28.12-60.69,2.2-4.72,4.51-9.4,6.8-14.17-6.77-1.74-6.76-1.73-9.48,4.12-10.82,23.35-21.72,46.65-32.37,70.07-1.48,3.26-3,3.83-6.13,2.73-10.59-3.75-18.85-10.61-26-19-3.15-3.68-3.88-7.17-1.66-12C98.31,98.35,108.36,75,119,51.84,120.85,47.74,120.43,44.78,117.64,41.22ZM496.55,496.39l-17.68,15.24,25.36,24c-4.65,6.13-9.31,11.74-13.37,17.75-7.22,10.7-9.18,15.66-8.61,19.38,13.21-27.15,31.76-48.84,61.08-59.11-3.36-2.44-7.88-1-21.05,7.31ZM340.19,287.82c-.71-3.9-2.58-5.83-5.66-5.6-3.66.26-7.61.46-10.83,2-35.62,16.54-59.21,44-72.23,80.75a26.83,26.83,0,0,0-1,8.87c0,2.55,1.43,4.38,3.24,4.62.76-4.8.76-9.42,2.25-13.5,7.15-19.57,19.27-35.93,33.93-50.51,10.1-10.05,21-19,34.14-24.91C328.92,287.28,334.05,285.35,340.19,287.82Zm-292-184.63c-8.89,3.69-15,12-18.65,22.3a6.11,6.11,0,0,0,.92,5A63.47,63.47,0,0,0,37.34,137L59.83,112.2ZM326,239.1c-7.8,6.08-14,6.48-22.85-2.12-12.4-12.09-20.52-27.39-28.91-42.33-2.35-4.19-4.92-6.52-10.82-6.19,10.49,16.31,20.35,32.37,31.05,47.85,3.1,4.48,8.16,8.12,13.08,10.7C315.91,251.4,323.43,248,326,239.1ZM86,136.3c-5.24,7-5.21,7.88.46,12.63l5.27-5.77ZM63.32,111.05l3.2-2c-4.57-2.77-6.71-9-13.56-7.12Z" transform="translate(-22.92 0)"/><path class="cls-1" d="M536.18,537c7.14-4.12,13.53-7.83,19.93-11.51,2.21-1.27,3.92-.59,5.7,1.14Q604.32,568,646.92,609.2c4,3.93,4.32,6.69,1.29,12.36l2.07,3.2c-21.76,14-41.3,30.19-52.54,52.76-3.38,0-6.07.33-8.63-.09-2.81-.47-6.24-.85-8.12-2.62-28.5-27-56.76-54.21-85.17-81.28-2.53-2.41-2.18-4.52-.93-7.22,6.07-13,14.62-24.2,25.54-34.57l86.18,83c-6.83,9.77-13.35,18.93-19.66,28.23a18.16,18.16,0,0,0-2.46,6.36c-.25,1.16.56,2.56,1.13,4.76,10.48-24.12,26.46-41.45,48.11-53.51,3.72-2.07,8.12-2.91,12.37-4.37-.49-2.92-1.53-4-5-2.58-5.66,2.27-11.09,5.11-17.23,8Zm110.75,84.25c-14.52,3.2-24.44,11.9-34,21.51l2.87,3.06Zm-36.64,29c-1.81.32-3.65.09-4.15.8-4.39,6.3-8.65,12.7-12.72,19.21-1.35,2.17-.18,3.61,1.48,4Z" transform="translate(-22.92 0)"/><path class="cls-1" d="M620.26,651.24l47.07,45.47c-8.25,9.27-16,18.58-20.1,30.63,1,.2,1.68.35,2.35.47.52.09,1.06.14,1.26.17,11.4-23.16,28.38-40.16,51.93-52-1.32-.3-2.9-1.22-3.92-.8-4.74,2-9.32,4.27-14.69,6.81L636.74,636c3.7-2.2,7-4.06,10.19-6.08,2.42-1.52,5.39-1.66,7.37-4.59,1.45-2.12,4.45-1,6.64,1.16,13,13,26.07,25.78,39.13,38.64,2.14,2.11,4.43,4.09,6.41,6.34,1.08,1.22,2.29,2.87,2.33,4.36.08,4.15,2.39,6.71,5.13,9.34,8,7.64,16,15.21,23.56,23.22,5,5.33,9.16,11.42,14.71,16.38,1.56,1.39.8,5.38,1,7.13-3.87.66-6.92.47-9.23,1.7-15.15,8-27.21,19.4-35.15,34.73-1.33,2.57-1.39,5.8-2.18,9.39-5.14,2.31-6.07,2.09-10.85-2.44-1.26-1.19-3.19-1.67-4.44-2.86a25.16,25.16,0,0,1-4.5-5.89,41,41,0,0,1-5.37-3.77c-8.6-8.2-17.06-16.55-25.69-24.73-1.12-1.06-2.92-1.42-4.4-2.1-3.15-1.45-6.93-2.23-9.35-4.47-14.6-13.52-28.83-27.45-43.34-41.07-3-2.77-3.31-5.37-1.58-8.71C602.94,670.42,610.78,660.67,620.26,651.24Zm99.3,70-28.71-30.71-14.92,13.24,29.11,31Zm-17,53.1c2.7-5.11,5.29-9.82,7.67-14.63,1.34-2.7,2.32-5.59,3.47-8.42a37.47,37.47,0,0,0,4.66-2.73c7.19-5.55,12.41-13.71,21.94-16.14,2.91-.74,5.72-1.89,9-3l-.88-3.79c-3.38,1.35-6.26,2.54-9.16,3.64-5.19,2-12.61-3.7-12.29-10.31l-5.18,4.45c-7.23,6.22-14.52,12.38-21.67,18.69-5,4.43-9.57,9.27-10.81,16.36l12-14.17c2.24,2.11,3.7,3.69,5.37,5,2.84,2.26,3.17,4.68,1.16,7.7-2.54,3.79-4.88,7.72-7.44,11.8l-9.18-7.35C690.83,765.09,698.08,772.59,702.55,774.34Z" transform="translate(-22.92 0)"/><path class="cls-1" d="M433.27,441.34c-1.61-.95-3.67-1.71-5.13-3.1q-28-26.61-55.89-53.4c-4.54-4.35-4.31-6.34,1.2-9.78s10.91-6.83,16.51-10c4.44-2.5,8.4-2,12.36,1.84,18.46,18,37.16,35.7,55.74,53.55,3.6,3.46,3.36,5.33-1,7.95-6,3.61-12,7.18-18.12,10.65A45.59,45.59,0,0,1,433.27,441.34Z" transform="translate(-22.92 0)"/><path class="cls-1" d="M307.61,124.22c15.71,4.67,31.76,7.53,46.25,15.54,2.84,1.58,3,3.06.79,5.22-5.42,5.24-5.41,5.25-7.28,10.27l-19.06-7.79a49.89,49.89,0,0,1,1.47-7.32c1.06-3.06-.26-4.07-2.9-4.78-11.86-3.23-11.85-3.26-15,9.17h-16.5a41.34,41.34,0,0,0,1.15-5.06,5.59,5.59,0,0,0-.59-3.43c-4.7-7-4.65-7.3,2.14-10.29-1.25-1.5-3.57-3.08-3.67-4.78-.08-1.37,2.54-2.89,4-4.36-3.56-3.78-3.52-4,1.73-7.66-3.31-4.92-2.45-6.16,3.59-7.41,13.39-2.75,25.74,1.77,38.17,5.23,6,1.66,11.64,4.65,17.24,7.45,1.28.64,1.72,3,2.55,4.51-1.94.08-4.31.91-5.77.11-9.44-5.2-19-10-29.86-11.32-3.56-.41-7.22-.06-10.84-.06l-.1,1.11c7.36,1.92,14.64,4.23,22.1,5.64s14.39,3.65,20.48,8.14c1.13.84,1.65,2.5,2.45,3.78-1.84.48-4,1.85-5.45,1.28-6.74-2.74-13.17-6.22-19.89-9s-13.59-4-21.78-1.72c11.22,2.89,21.55,5.3,31.71,8.27a48.28,48.28,0,0,1,11.47,5.63c1.05.65,1.05,3,1.54,4.58-1.89.3-4.1,1.39-5.62.77-8-3.25-15.64-7.82-23.89-10.17C321.71,123.91,314.5,124.63,307.61,124.22Z" transform="translate(-22.92 0)"/><path class="cls-1" d="M125.18,198.37c9,8.29,17.9,16.37,26.64,24.58a3.44,3.44,0,0,1,.4,3.22c-6.76,11.42-13.67,22.74-20.89,34.66-5.69-5.1-10.79-9.61-15.83-14.19-4.24-3.84-8.5-7.67-12.54-11.7-.86-.87-1.58-3-1.09-3.91,6.17-11.08,12-22.46,21.49-31.27C123.77,199.38,124.25,199.08,125.18,198.37Z" transform="translate(-22.92 0)"/><path class="cls-1" d="M730.23,769.12l24.36,23.25c4.14,4,8.54,7.69,12.33,12,3.4,3.83,7.13,3.11,11.89,2.27-4.69-3.71-9.12-6.72-13-10.34-12.74-11.94-25.28-24.09-38-36.27-2.7,2.14-3.5,4.84-1.83,8,1.44,2.77.44,4.6-2,6.06a71.83,71.83,0,0,1-7.71,4.59c-4.19,1.88-6.41.33-5.42-4a33.41,33.41,0,0,1,4.33-10.57,76.17,76.17,0,0,1,27.48-25.38,21.25,21.25,0,0,1,6.82-2.35c4-.62,5.8,1.64,4.11,5.35-1.78,3.89-4.07,7.53-6.4,11.74,12.25,11.75,24.76,23.88,37.44,35.81,2.23,2.1,3.22,4,2.59,7.07-.67,3.23-.83,6.35,1.47,9.38.75,1,.11,4-.94,5.07s-4,1.63-5.12.91c-2.87-1.81-5.44-1.78-8.5-.89-3.67,1.07-6.66.15-9.61-2.79-11.27-11.2-22.82-22.12-34.36-33C728.21,773.05,727.23,771.53,730.23,769.12Zm51.29,33.33,2.73-9.27-1.58.3a34,34,0,0,1-4.91-3.26c-13.64-12.84-27.21-25.76-41.1-38.94l-6.38,5.59c17.39,15.37,31.9,33,50.62,46.15,1.27,1.92,2.53,3.85,3.8,5.78l1.44-1C786,805,784.84,803,781.52,802.45Zm-35.85-47.63,1.17-1.43-4.37-5.22-3,2.51Z" transform="translate(-22.92 0)"/><path class="cls-1" d="M341.16,180.89c-8-.36-14.33-3.63-20.25-7.74-.85-.58-1.34-2.37-1.23-3.53a63,63,0,0,1,1.5-7.12c1.77-8.28,4.82-10.26,13-8.05a27.66,27.66,0,0,1,14.4,8.86c1.57,1.86-1.45,16.52-3.71,17.27A13.66,13.66,0,0,1,341.16,180.89Z" transform="translate(-22.92 0)"/><path class="cls-1" d="M358.74,111.78C342,98.87,323.36,97.37,303.71,100c1-4.63,4.57-5.64,7.59-5.77,6.78-.29,13.8-.65,20.35.74,7.44,1.57,14.58,4.81,21.66,7.77C356.48,104.08,358.85,106.69,358.74,111.78Z" transform="translate(-22.92 0)"/><path class="cls-1" d="M344,193l-6.53-9.12,10.72-.52c1.14-5,2.83-10.68,3.58-16.52.28-2.15-1.67-4.59-2.6-6.88,4.45,1,7.17,4.85,6.26,9.08-1.08,5-2.53,10-3.34,15S348.1,191.6,344,193Z" transform="translate(-22.92 0)"/><path class="cls-1" d="M326.43,181.08l-23.51-4.66C312.83,171.08,316.84,171.81,326.43,181.08Z" transform="translate(-22.92 0)"/><path class="cls-1" d="M311.72,145.52l19.64,4.19-.27,1.27c-7.16,1.83-13.59-.1-19.63-4C311.54,146.46,311.63,146,311.72,145.52Z" transform="translate(-22.92 0)"/><path class="cls-1" d="M66.13,213q-2.84-8.52-5.69-17l1.47-.77c2.79,2.57,6.49,4.68,8.08,7.84,1.13,2.28-.45,6-1.12,9-.11.47-1.88.56-2.88.82Z" transform="translate(-22.92 0)"/><path class="cls-1" d="M81.88,187.54c-2.33,3.13-4.66,6.25-7.44,10L62.43,187c5.6-1.8,10.15-3.71,14.9-4.63,3.59-.69,4.24,2.45,4.4,5.34Z" transform="translate(-22.92 0)"/><path class="cls-1" d="M162,12.56c7.54.86,14.24,3.13,19.92,7.89s11.37,9.64,16.75,14.79a19.3,19.3,0,0,1,4.49,7.11c2,5.46-.26,10.3-5.49,12.68-5,2.25-10.1,4.1-14.9,6.63-11.88,6.23-23.24,4.36-33.68-2.72a123.54,123.54,0,0,1-18.78-16.27c-6.35-6.54-4.06-15.9,4.21-19.65,6-2.72,12-5.46,18.09-7.9A82.27,82.27,0,0,1,162,12.56Z" transform="translate(-22.92 0)"/></svg>