<?xml version="1.0" encoding="UTF-8" standalone="no"?>
<!-- Created with Inkscape (http://www.inkscape.org/) -->

<svg
   version="1.1"
   id="svg2"
   width="261.62534"
   height="86.122002"
   viewBox="0 0 261.62534 86.122002"
   sodipodi:docname="marca-kingstar-diesel-brasil.ai"
   xmlns:inkscape="http://www.inkscape.org/namespaces/inkscape"
   xmlns:sodipodi="http://sodipodi.sourceforge.net/DTD/sodipodi-0.dtd"
   xmlns="http://www.w3.org/2000/svg"
   xmlns:svg="http://www.w3.org/2000/svg">
  <defs
     id="defs6">
    <clipPath
       clipPathUnits="userSpaceOnUse"
       id="clipPath16">
      <path
         d="M 0,64.592 H 196.219 V 0 H 0 Z"
         id="path14" />
    </clipPath>
  </defs>
  <sodipodi:namedview
     id="namedview4"
     pagecolor="#ffffff"
     bordercolor="#000000"
     borderopacity="0.25"
     inkscape:showpageshadow="2"
     inkscape:pageopacity="0.0"
     inkscape:pagecheckerboard="0"
     inkscape:deskcolor="#d1d1d1" />
  <g
     id="g8"
     inkscape:groupmode="layer"
     inkscape:label="marca-kingstar-diesel-brasil"
     transform="matrix(1.3333333,0,0,-1.3333333,0,86.122)">
    <g
       id="g10">
      <g
         id="g12"
         clip-path="url(#clipPath16)">
        <g
           id="g18"
           transform="translate(78.844,39.0887)">
          <path
             d="M 0,0 H 0.661 C 1.273,0 1.714,0.192 1.984,0.576 L 6,6.405 c 0.237,0.31 0.492,0.524 0.766,0.642 0.273,0.119 0.614,0.178 1.022,0.178 h 3.6 L 6.099,0.013 c -0.376,-0.498 -0.78,-0.857 -1.213,-1.078 0.31,-0.115 0.592,-0.273 0.845,-0.477 0.253,-0.205 0.49,-0.47 0.71,-0.796 l 5.388,-8.278 H 8.131 c -0.237,0 -0.439,0.015 -0.606,0.049 -0.168,0.032 -0.312,0.081 -0.435,0.146 -0.122,0.066 -0.228,0.146 -0.319,0.239 -0.089,0.094 -0.175,0.203 -0.256,0.325 L 2.474,-3.648 C 2.327,-3.42 2.141,-3.259 1.917,-3.165 1.692,-3.072 1.388,-3.024 1.004,-3.024 H 0 v -7.592 H -4.139 V 7.225 l 4.139,0 z"
             style="fill:#010101;fill-opacity:1;fill-rule:nonzero;stroke:none"
             id="path20" />
        </g>
        <path
           d="m 96.171,28.473 h -4.164 v 17.841 h 4.164 z"
           style="fill:#010101;fill-opacity:1;fill-rule:nonzero;stroke:none"
           id="path22" />
        <g
           id="g24"
           transform="translate(115.2004,46.3138)">
          <path
             d="m 0,0 v -17.841 h -2.155 c -0.318,0 -0.586,0.049 -0.802,0.152 -0.217,0.103 -0.431,0.28 -0.643,0.533 l -8.413,10.642 c 0.033,-0.319 0.055,-0.627 0.068,-0.925 0.012,-0.298 0.018,-0.578 0.018,-0.839 v -9.563 h -3.649 V 0 h 2.18 c 0.179,0 0.331,-0.008 0.453,-0.024 0.122,-0.017 0.232,-0.047 0.331,-0.092 0.097,-0.045 0.191,-0.109 0.281,-0.19 0.09,-0.082 0.192,-0.192 0.307,-0.331 l 8.485,-10.714 c -0.041,0.343 -0.068,0.675 -0.086,0.998 -0.016,0.322 -0.023,0.626 -0.023,0.912 l 0,9.441 z"
             style="fill:#010101;fill-opacity:1;fill-rule:nonzero;stroke:none"
             id="path26" />
        </g>
        <g
           id="g28"
           transform="translate(127.2258,37.7177)">
          <path
             d="M 0,0 H 6.344 V -7.531 C 5.429,-8.2 4.455,-8.687 3.423,-8.988 2.39,-9.29 1.311,-9.441 0.184,-9.441 c -1.47,0 -2.806,0.23 -4.01,0.692 -1.205,0.461 -2.236,1.098 -3.092,1.91 -0.858,0.812 -1.519,1.775 -1.984,2.89 -0.466,1.114 -0.699,2.324 -0.699,3.631 0,1.33 0.221,2.553 0.662,3.667 0.441,1.114 1.072,2.076 1.892,2.884 0.82,0.808 1.813,1.436 2.976,1.886 1.163,0.448 2.463,0.673 3.899,0.673 0.743,0 1.442,-0.061 2.094,-0.183 C 2.575,8.486 3.178,8.318 3.729,8.106 4.279,7.894 4.784,7.641 5.241,7.347 5.698,7.054 6.106,6.735 6.466,6.392 L 5.266,4.568 C 5.077,4.282 4.835,4.106 4.537,4.041 4.239,3.976 3.919,4.049 3.576,4.261 3.249,4.458 2.94,4.626 2.651,4.77 2.361,4.912 2.065,5.029 1.764,5.119 1.462,5.208 1.143,5.273 0.809,5.314 0.474,5.355 0.098,5.376 -0.318,5.376 -1.094,5.376 -1.792,5.239 -2.412,4.966 -3.032,4.692 -3.562,4.306 -3.998,3.808 -4.435,3.311 -4.771,2.712 -5.009,2.014 -5.245,1.316 -5.363,0.539 -5.363,-0.318 c 0,-0.948 0.13,-1.788 0.391,-2.523 0.261,-0.735 0.631,-1.355 1.109,-1.861 0.477,-0.506 1.049,-0.892 1.714,-1.158 0.666,-0.265 1.402,-0.397 2.211,-0.397 0.497,0 0.949,0.048 1.352,0.147 0.404,0.097 0.798,0.228 1.182,0.391 v 2.707 H 0.833 c -0.262,0 -0.466,0.069 -0.612,0.208 C 0.073,-2.666 0,-2.49 0,-2.277 Z"
             style="fill:#010101;fill-opacity:1;fill-rule:nonzero;stroke:none"
             id="path30" />
        </g>
        <g
           id="g32"
           transform="translate(146.2053,42.6893)">
          <path
             d="m 0,0 c -0.122,-0.196 -0.25,-0.343 -0.386,-0.441 -0.135,-0.098 -0.307,-0.147 -0.52,-0.147 -0.188,0 -0.39,0.059 -0.606,0.178 -0.217,0.118 -0.462,0.251 -0.735,0.398 -0.274,0.147 -0.585,0.279 -0.937,0.398 -0.351,0.118 -0.751,0.177 -1.2,0.177 -0.775,0 -1.353,-0.165 -1.732,-0.496 -0.38,-0.33 -0.57,-0.777 -0.57,-1.34 0,-0.36 0.115,-0.658 0.343,-0.894 0.229,-0.237 0.529,-0.441 0.901,-0.613 0.371,-0.171 0.796,-0.328 1.273,-0.471 0.478,-0.143 0.965,-0.302 1.463,-0.478 0.498,-0.175 0.986,-0.382 1.463,-0.618 0.477,-0.237 0.903,-0.539 1.274,-0.906 0.371,-0.368 0.671,-0.814 0.9,-1.341 0.228,-0.527 0.342,-1.161 0.342,-1.905 0,-0.824 -0.142,-1.596 -0.427,-2.314 -0.286,-0.718 -0.7,-1.344 -1.243,-1.879 -0.543,-0.536 -1.213,-0.955 -2.009,-1.262 -0.796,-0.306 -1.7,-0.459 -2.712,-0.459 -0.556,0 -1.12,0.058 -1.696,0.172 -0.576,0.114 -1.133,0.274 -1.671,0.483 -0.539,0.208 -1.046,0.455 -1.519,0.74 -0.474,0.287 -0.886,0.605 -1.237,0.955 l 1.224,1.936 c 0.098,0.138 0.227,0.255 0.386,0.349 0.159,0.093 0.333,0.141 0.521,0.141 0.245,0 0.492,-0.078 0.74,-0.233 0.25,-0.155 0.531,-0.326 0.846,-0.514 0.313,-0.188 0.675,-0.36 1.084,-0.515 0.407,-0.154 0.889,-0.232 1.444,-0.232 0.751,0 1.335,0.165 1.751,0.496 0.417,0.33 0.625,0.855 0.625,1.573 0,0.416 -0.115,0.755 -0.343,1.017 -0.228,0.261 -0.529,0.477 -0.9,0.649 -0.371,0.171 -0.794,0.322 -1.268,0.453 -0.473,0.13 -0.959,0.275 -1.457,0.435 -0.498,0.159 -0.983,0.355 -1.457,0.587 -0.474,0.233 -0.895,0.539 -1.268,0.919 -0.371,0.379 -0.67,0.853 -0.899,1.42 -0.229,0.567 -0.344,1.268 -0.344,2.1 0,0.67 0.135,1.323 0.405,1.96 0.269,0.636 0.666,1.204 1.188,1.702 0.522,0.498 1.163,0.895 1.922,1.194 0.76,0.297 1.629,0.447 2.608,0.447 0.547,0 1.08,-0.043 1.598,-0.129 C -2.316,3.606 -1.824,3.479 -1.358,3.313 -0.894,3.145 -0.459,2.945 -0.055,2.712 0.35,2.48 0.711,2.216 1.028,1.922 Z"
             style="fill:#010101;fill-opacity:1;fill-rule:nonzero;stroke:none"
             id="path34" />
        </g>
        <g
           id="g36"
           transform="translate(162.7375,43.0321)">
          <path
             d="M 0,0 H -5.021 V -14.56 H -9.16 V 0 h -5.021 V 3.282 H 0 Z"
             style="fill:#010101;fill-opacity:1;fill-rule:nonzero;stroke:none"
             id="path38" />
        </g>
        <g
           id="g40"
           transform="translate(172.5208,35.2928)">
          <path
             d="M 0,0 -1.653,4.886 C -1.775,5.196 -1.906,5.562 -2.045,5.982 -2.184,6.402 -2.322,6.857 -2.461,7.348 -2.584,6.85 -2.715,6.388 -2.853,5.964 -2.992,5.539 -3.123,5.172 -3.245,4.862 L -4.886,0 Z M 6.576,-6.82 H 3.368 c -0.36,0 -0.649,0.083 -0.87,0.25 -0.221,0.168 -0.388,0.383 -0.502,0.643 L 0.943,-2.816 H -5.841 L -6.894,-5.927 C -6.983,-6.155 -7.146,-6.361 -7.378,-6.545 -7.61,-6.729 -7.898,-6.82 -8.241,-6.82 h -3.233 l 6.907,17.841 h 4.237 z"
             style="fill:#010101;fill-opacity:1;fill-rule:nonzero;stroke:none"
             id="path42" />
        </g>
        <g
           id="g44"
           transform="translate(186.3098,37.9257)">
          <path
             d="M 0,0 C 0.562,0 1.042,0.071 1.438,0.214 1.835,0.357 2.159,0.555 2.412,0.808 2.665,1.062 2.848,1.357 2.963,1.696 3.077,2.035 3.134,2.4 3.134,2.792 3.134,3.576 2.879,4.188 2.369,4.629 1.858,5.07 1.069,5.291 0,5.291 H -1.666 V 0 Z M 8.792,-9.453 H 5.045 c -0.694,0 -1.192,0.261 -1.494,0.783 l -2.964,5.18 c -0.139,0.22 -0.294,0.382 -0.465,0.484 -0.172,0.102 -0.417,0.153 -0.734,0.153 h -1.054 v -6.6 H -5.805 V 8.388 H 0 C 1.289,8.388 2.39,8.256 3.3,7.99 4.21,7.725 4.952,7.355 5.528,6.882 6.104,6.409 6.521,5.849 6.784,5.204 7.044,4.56 7.175,3.857 7.175,3.098 7.175,2.519 7.098,1.972 6.942,1.457 6.787,0.943 6.559,0.467 6.257,0.031 5.955,-0.406 5.581,-0.796 5.137,-1.139 4.691,-1.481 4.179,-1.763 3.6,-1.983 3.869,-2.122 4.122,-2.296 4.359,-2.504 4.596,-2.712 4.808,-2.959 4.995,-3.245 Z"
             style="fill:#010101;fill-opacity:1;fill-rule:nonzero;stroke:none"
             id="path46" />
        </g>
        <g
           id="g48"
           transform="translate(170.6506,17.5331)">
          <path
             d="M 0,0 C 0.8,0 1.405,0.173 1.816,0.52 2.227,0.865 2.433,1.353 2.433,1.98 2.433,2.269 2.378,2.528 2.268,2.758 2.158,2.988 2,3.184 1.794,3.345 1.587,3.507 1.333,3.63 1.032,3.716 0.731,3.802 0.389,3.846 0.006,3.846 H -2.291 L -2.291,0 Z M -2.291,8.078 V 4.329 h 1.975 c 0.421,0 0.782,0.054 1.081,0.161 0.298,0.108 0.544,0.25 0.735,0.426 0.191,0.177 0.332,0.377 0.423,0.601 0.09,0.223 0.135,0.453 0.135,0.69 0,0.615 -0.195,1.08 -0.583,1.397 -0.39,0.316 -0.992,0.474 -1.804,0.474 z m 1.962,0.523 c 0.52,0 0.972,-0.052 1.354,-0.156 C 1.408,8.343 1.725,8.19 1.975,7.991 2.224,7.791 2.408,7.547 2.529,7.259 2.649,6.97 2.71,6.644 2.71,6.277 2.71,6.037 2.668,5.805 2.584,5.581 2.5,5.357 2.38,5.15 2.223,4.962 2.065,4.772 1.872,4.607 1.642,4.468 1.412,4.328 1.148,4.222 0.852,4.148 1.57,4.045 2.121,3.808 2.507,3.436 2.892,3.063 3.084,2.574 3.084,1.968 3.084,1.58 3.015,1.232 2.878,0.923 2.74,0.612 2.54,0.351 2.277,0.136 2.015,-0.08 1.692,-0.244 1.31,-0.358 0.927,-0.473 0.492,-0.529 0.006,-0.529 h -2.961 v 9.13 z"
             style="fill:#1d1d1b;fill-opacity:1;fill-rule:nonzero;stroke:none"
             id="path50" />
        </g>
        <g
           id="g52"
           transform="translate(175.9866,21.8749)">
          <path
             d="M 0,0 C 0.099,0.263 0.212,0.496 0.339,0.7 0.466,0.904 0.611,1.078 0.777,1.22 0.942,1.361 1.128,1.471 1.332,1.546 1.536,1.621 1.764,1.658 2.013,1.658 2.146,1.658 2.277,1.646 2.406,1.623 2.535,1.6 2.649,1.558 2.748,1.497 L 2.696,1.071 C 2.675,1.003 2.635,0.968 2.574,0.968 2.522,0.968 2.444,0.983 2.339,1.014 2.233,1.043 2.095,1.059 1.923,1.059 1.673,1.059 1.452,1.021 1.261,0.945 1.069,0.87 0.897,0.757 0.745,0.606 0.592,0.456 0.459,0.271 0.345,0.049 0.23,-0.173 0.127,-0.428 0.032,-0.716 v -4.155 h -0.619 v 6.42 h 0.328 c 0.073,0 0.125,-0.016 0.155,-0.045 0.031,-0.03 0.05,-0.082 0.059,-0.155 z"
             style="fill:#1d1d1b;fill-opacity:1;fill-rule:nonzero;stroke:none"
             id="path54" />
        </g>
        <g
           id="g56"
           transform="translate(183.4192,20.1073)">
          <path
             d="m 0,0 c -0.611,-0.021 -1.137,-0.07 -1.578,-0.146 -0.441,-0.075 -0.804,-0.176 -1.09,-0.306 -0.286,-0.129 -0.498,-0.282 -0.636,-0.461 -0.137,-0.179 -0.207,-0.382 -0.207,-0.609 0,-0.216 0.036,-0.402 0.107,-0.559 0.071,-0.157 0.166,-0.286 0.284,-0.387 0.118,-0.101 0.255,-0.176 0.41,-0.222 0.154,-0.048 0.315,-0.072 0.483,-0.072 0.25,0 0.479,0.028 0.688,0.081 0.208,0.054 0.402,0.129 0.58,0.226 0.179,0.097 0.346,0.212 0.501,0.345 0.154,0.133 0.307,0.278 0.458,0.432 z m -3.774,2.406 c 0.335,0.336 0.687,0.59 1.057,0.762 0.37,0.172 0.789,0.258 1.258,0.258 0.345,0 0.646,-0.055 0.903,-0.164 C -0.297,3.151 -0.083,2.995 0.087,2.79 0.257,2.586 0.385,2.339 0.471,2.049 0.557,1.758 0.6,1.435 0.6,1.077 V -3.104 H 0.354 c -0.128,0 -0.208,0.061 -0.238,0.181 L 0.025,-2.097 C -0.151,-2.27 -0.326,-2.424 -0.5,-2.562 -0.675,-2.699 -0.856,-2.815 -1.046,-2.91 c -0.189,-0.095 -0.393,-0.168 -0.612,-0.219 -0.22,-0.052 -0.461,-0.078 -0.723,-0.078 -0.22,0 -0.432,0.032 -0.639,0.097 -0.207,0.064 -0.39,0.164 -0.551,0.297 -0.162,0.133 -0.291,0.304 -0.388,0.513 -0.097,0.208 -0.145,0.459 -0.145,0.751 0,0.272 0.078,0.523 0.232,0.755 0.155,0.232 0.398,0.435 0.729,0.607 0.331,0.171 0.756,0.309 1.275,0.413 C -1.35,0.329 -0.728,0.39 0,0.406 V 1.077 C 0,1.671 -0.128,2.128 -0.384,2.448 -0.641,2.769 -1.02,2.93 -1.523,2.93 -1.833,2.93 -2.097,2.886 -2.313,2.8 -2.53,2.714 -2.715,2.619 -2.865,2.517 -3.016,2.413 -3.139,2.318 -3.232,2.232 -3.327,2.146 -3.407,2.104 -3.472,2.104 c -0.047,0 -0.086,0.01 -0.116,0.032 -0.03,0.021 -0.056,0.049 -0.077,0.084 z"
             style="fill:#1d1d1b;fill-opacity:1;fill-rule:nonzero;stroke:none"
             id="path58" />
        </g>
        <g
           id="g60"
           transform="translate(189.6008,22.6298)">
          <path
             d="m 0,0 c -0.035,-0.06 -0.084,-0.09 -0.148,-0.09 -0.048,0 -0.109,0.027 -0.181,0.08 -0.073,0.054 -0.171,0.114 -0.294,0.181 -0.123,0.067 -0.274,0.127 -0.455,0.181 -0.181,0.053 -0.4,0.081 -0.658,0.081 -0.233,0 -0.445,-0.034 -0.636,-0.1 -0.191,-0.067 -0.355,-0.156 -0.49,-0.269 -0.135,-0.111 -0.24,-0.241 -0.313,-0.389 -0.073,-0.149 -0.109,-0.305 -0.109,-0.468 0,-0.202 0.051,-0.37 0.154,-0.504 0.104,-0.133 0.237,-0.247 0.403,-0.342 0.166,-0.094 0.357,-0.176 0.572,-0.245 0.215,-0.068 0.433,-0.137 0.654,-0.206 0.222,-0.069 0.44,-0.145 0.655,-0.229 0.215,-0.084 0.406,-0.189 0.572,-0.313 0.165,-0.125 0.299,-0.277 0.403,-0.458 0.102,-0.181 0.154,-0.4 0.154,-0.658 0,-0.28 -0.049,-0.54 -0.148,-0.781 -0.099,-0.242 -0.244,-0.45 -0.436,-0.626 -0.191,-0.176 -0.427,-0.316 -0.706,-0.419 -0.28,-0.104 -0.6,-0.155 -0.962,-0.155 -0.451,0 -0.841,0.072 -1.167,0.216 -0.327,0.144 -0.62,0.332 -0.878,0.565 l 0.142,0.219 c 0.021,0.035 0.047,0.06 0.074,0.078 0.028,0.016 0.066,0.025 0.113,0.025 0.056,0 0.124,-0.034 0.204,-0.103 0.08,-0.069 0.186,-0.143 0.319,-0.223 0.134,-0.079 0.298,-0.153 0.494,-0.223 0.195,-0.068 0.438,-0.102 0.726,-0.102 0.27,0 0.509,0.037 0.715,0.112 0.207,0.075 0.379,0.178 0.517,0.307 0.138,0.129 0.242,0.281 0.313,0.455 0.071,0.174 0.106,0.358 0.106,0.551 0,0.215 -0.052,0.394 -0.154,0.536 -0.104,0.142 -0.24,0.262 -0.408,0.361 -0.167,0.1 -0.357,0.183 -0.57,0.252 -0.213,0.068 -0.431,0.138 -0.655,0.206 -0.224,0.069 -0.442,0.144 -0.654,0.226 -0.214,0.082 -0.404,0.185 -0.572,0.31 -0.168,0.124 -0.303,0.276 -0.406,0.455 -0.103,0.178 -0.155,0.401 -0.155,0.667 0,0.229 0.05,0.447 0.148,0.658 0.099,0.211 0.239,0.396 0.423,0.555 0.183,0.159 0.405,0.286 0.668,0.381 0.262,0.095 0.557,0.142 0.884,0.142 0.39,0 0.738,-0.056 1.042,-0.168 0.303,-0.112 0.579,-0.284 0.829,-0.516 z"
             style="fill:#1d1d1b;fill-opacity:1;fill-rule:nonzero;stroke:none"
             id="path62" />
        </g>
        <path
           d="m 192.239,17.004 h -0.613 v 6.42 h 0.613 z m 0.264,8.633 c 0,-0.078 -0.016,-0.15 -0.049,-0.216 -0.032,-0.068 -0.074,-0.126 -0.126,-0.178 -0.05,-0.052 -0.111,-0.093 -0.18,-0.122 -0.069,-0.03 -0.142,-0.046 -0.219,-0.046 -0.078,0 -0.15,0.016 -0.22,0.046 -0.068,0.029 -0.129,0.07 -0.18,0.122 -0.052,0.052 -0.093,0.11 -0.123,0.178 -0.03,0.066 -0.045,0.138 -0.045,0.216 0,0.077 0.015,0.151 0.045,0.222 0.03,0.072 0.071,0.133 0.123,0.184 0.051,0.052 0.112,0.093 0.18,0.123 0.07,0.03 0.142,0.045 0.22,0.045 0.077,0 0.15,-0.015 0.219,-0.045 0.069,-0.03 0.13,-0.071 0.18,-0.123 0.052,-0.051 0.094,-0.112 0.126,-0.184 0.033,-0.071 0.049,-0.145 0.049,-0.222"
           style="fill:#1d1d1b;fill-opacity:1;fill-rule:nonzero;stroke:none"
           id="path64" />
        <path
           d="m 195.103,17.004 h -0.619 v 9.388 h 0.619 z"
           style="fill:#1d1d1b;fill-opacity:1;fill-rule:nonzero;stroke:none"
           id="path66" />
        <g
           id="g68"
           transform="translate(47.7424,27.5673)">
          <path
             d="m 0,0 c -0.207,-0.158 -0.326,-0.269 -0.462,-0.351 -5.091,-3.082 -10.182,-6.166 -15.286,-9.227 -0.191,-0.115 -0.569,-0.121 -0.76,-0.009 -5.194,3.072 -10.375,6.168 -15.559,9.257 -3.064,1.826 -6.13,3.65 -9.198,5.47 -0.804,0.478 -1.031,0.362 -1.043,-0.543 -0.039,-3.031 -0.055,-6.062 -0.108,-9.093 -0.007,-0.419 0.152,-0.632 0.485,-0.829 1.088,-0.646 2.162,-1.315 3.242,-1.974 7.31,-4.467 14.622,-8.929 21.921,-13.41 0.48,-0.295 0.835,-0.289 1.3,0.009 1.379,0.884 2.782,1.729 4.18,2.583 6.992,4.269 13.983,8.539 20.981,12.798 0.326,0.198 0.443,0.413 0.439,0.791 -0.026,3.032 -0.046,6.063 -0.028,9.095 0.004,0.626 -0.216,0.955 -0.762,1.25 -5.285,2.867 -10.556,5.761 -15.83,8.65 -0.422,0.232 -0.836,0.48 -1.336,0.768 1.253,0.652 2.393,1.244 3.531,1.839 4.612,2.412 9.221,4.828 13.837,7.232 0.373,0.194 0.553,0.424 0.552,0.862 -0.002,3.156 0.02,6.312 0.025,9.469 10e-4,0.658 -0.159,0.741 -0.746,0.437 C 1.29,30.892 -6.794,26.709 -14.88,22.529 c -0.36,-0.187 -0.732,-0.352 -1.159,-0.556 v 0.399 c -0.002,3.592 -0.003,7.185 -0.007,10.777 -0.001,0.54 -0.003,1.08 -0.027,1.619 -0.018,0.397 -0.177,0.644 -0.649,0.638 -3.177,-0.046 -6.354,-0.067 -9.53,-0.123 -0.166,-0.003 -0.449,-0.244 -0.47,-0.402 -0.076,-0.571 -0.08,-1.154 -0.081,-1.733 -0.02,-11.421 -0.032,-22.843 -0.064,-34.264 -0.002,-0.61 0.18,-0.987 0.714,-1.31 3,-1.813 5.977,-3.664 8.967,-5.495 0.365,-0.224 0.757,-0.404 1.291,-0.686 V 8.38 C -10.541,5.557 -5.324,2.807 0,0 M 17.805,37.024 C 17.792,36.714 17.767,36.405 17.767,36.095 17.765,20.73 17.763,5.365 17.777,-10 c 0,-0.5 -0.142,-0.769 -0.597,-0.994 -11.031,-5.469 -22.055,-10.95 -33.075,-16.443 -0.358,-0.178 -0.613,-0.175 -0.965,0.02 -10.102,5.596 -20.211,11.179 -30.321,16.76 -0.172,0.094 -0.373,0.137 -0.561,0.204 v 47.477 z"
             style="fill:#e95515;fill-opacity:1;fill-rule:nonzero;stroke:none"
             id="path70" />
        </g>
      </g>
    </g>
  </g>
</svg>
